<svg id="svg" version="1.1" xmlns="http://www.w3.org/2000/svg" xmlns:xlink="http://www.w3.org/1999/xlink" width="400" height="400" viewBox="0, 0, 400,400"><g id="svgg"><path id="path0" d="M173.577 47.179 C 168.900 48.598,168.115 53.761,171.839 58.613 C 172.678 59.706,173.934 61.541,174.631 62.691 C 175.327 63.841,176.356 65.371,176.918 66.091 C 177.479 66.811,179.685 70.010,181.819 73.200 C 183.954 76.390,186.123 79.504,186.640 80.119 C 187.158 80.735,187.858 81.823,188.197 82.538 C 188.536 83.252,189.351 84.425,190.007 85.143 C 190.663 85.862,191.200 86.523,191.200 86.612 C 191.200 86.927,194.958 92.604,195.427 93.000 C 195.689 93.220,196.534 94.407,197.306 95.637 L 198.710 97.874 171.993 98.158 C 140.170 98.497,142.189 98.885,138.636 91.741 C 137.996 90.453,137.140 88.922,136.736 88.338 C 136.331 87.754,135.163 85.684,134.141 83.738 C 133.118 81.792,132.154 80.110,131.997 80.000 C 131.841 79.890,130.983 78.450,130.091 76.800 C 125.763 68.791,124.246 66.693,121.355 64.717 C 115.050 60.409,108.424 60.520,105.224 64.988 L 103.800 66.976 103.921 81.588 C 103.987 89.625,104.209 96.650,104.413 97.200 C 104.617 97.750,104.833 104.185,104.892 111.500 L 105.000 124.801 96.375 124.800 L 87.750 124.800 86.744 125.900 C 85.476 127.286,82.800 131.013,82.800 131.392 C 82.800 131.549,82.060 132.515,81.155 133.539 C 80.250 134.562,79.395 135.701,79.255 136.068 C 79.115 136.435,78.427 137.425,77.726 138.268 C 77.026 139.111,75.676 140.903,74.726 142.252 C 73.777 143.600,72.067 146.030,70.928 147.652 C 69.788 149.273,68.548 150.940,68.172 151.356 C 67.796 151.772,66.771 153.212,65.894 154.556 C 65.017 155.900,64.092 157.180,63.839 157.400 C 63.239 157.922,60.800 161.647,60.800 162.043 C 60.800 162.824,61.613 164.308,62.639 165.400 C 63.259 166.060,64.600 167.695,65.617 169.034 C 66.635 170.373,67.775 171.813,68.150 172.234 C 68.525 172.655,70.547 175.160,72.643 177.800 C 74.739 180.440,77.109 183.380,77.911 184.333 C 78.713 185.286,79.665 186.546,80.027 187.133 C 80.389 187.720,81.097 188.560,81.600 189.000 C 82.103 189.440,82.827 190.307,83.210 190.927 C 83.592 191.548,84.545 192.808,85.328 193.727 C 86.111 194.647,88.463 197.560,90.554 200.200 C 92.646 202.840,94.989 205.720,95.759 206.600 C 96.530 207.480,97.727 209.055,98.418 210.100 C 99.110 211.145,99.836 212.000,100.033 212.000 C 100.229 212.000,100.858 212.742,101.430 213.648 C 102.002 214.554,102.983 215.859,103.609 216.548 C 104.235 217.237,106.374 219.870,108.363 222.400 C 110.351 224.930,112.668 227.810,113.511 228.800 C 114.354 229.790,115.653 231.460,116.398 232.511 C 118.837 235.955,119.978 235.667,123.992 230.600 C 125.560 228.620,127.357 226.437,127.986 225.748 C 128.615 225.059,129.572 223.799,130.113 222.948 C 130.654 222.097,131.505 221.040,132.005 220.600 C 132.505 220.160,133.235 219.280,133.627 218.645 C 134.018 218.009,134.984 216.749,135.773 215.845 C 136.562 214.940,138.916 212.040,141.004 209.400 C 143.093 206.760,145.473 203.829,146.294 202.886 C 147.115 201.943,147.979 200.813,148.214 200.375 C 148.448 199.936,149.317 198.817,150.144 197.889 C 150.970 196.960,152.353 195.300,153.217 194.200 C 156.606 189.884,159.326 186.463,161.805 183.400 C 163.230 181.640,165.161 179.210,166.098 178.000 C 167.034 176.790,167.929 175.742,168.087 175.671 C 168.245 175.600,169.045 174.610,169.865 173.471 C 170.684 172.332,171.995 170.661,172.777 169.758 C 177.674 164.107,179.023 161.444,177.458 160.520 C 177.160 160.344,176.428 159.420,175.832 158.466 C 175.235 157.512,173.589 155.196,172.173 153.320 C 170.758 151.443,169.600 149.779,169.600 149.622 C 169.600 149.464,168.883 148.540,168.006 147.568 C 167.129 146.596,166.409 145.653,166.406 145.473 C 166.403 145.294,165.906 144.499,165.302 143.707 L 164.203 142.267 176.602 142.533 C 183.421 142.679,193.548 142.799,199.106 142.799 L 209.211 142.800 205.406 148.392 C 203.313 151.467,201.600 154.135,201.600 154.320 C 201.600 154.505,201.044 155.273,200.365 156.028 C 199.686 156.783,198.863 157.911,198.536 158.536 C 198.209 159.161,196.893 161.148,195.612 162.951 C 194.331 164.754,192.882 166.942,192.393 167.814 C 191.903 168.686,191.063 169.940,190.527 170.600 C 189.990 171.260,187.807 174.430,185.675 177.645 C 183.544 180.861,179.964 186.261,177.720 189.645 C 175.476 193.030,173.203 196.340,172.669 197.000 C 172.135 197.660,171.294 198.920,170.802 199.800 C 169.771 201.641,168.463 203.557,167.697 204.344 C 165.717 206.383,164.197 211.320,164.896 213.446 C 165.663 215.777,166.437 215.988,174.200 215.988 C 186.352 215.988,191.297 213.843,202.600 203.666 C 205.510 201.046,208.438 198.433,211.277 195.923 C 212.445 194.891,214.577 193.001,216.016 191.723 C 217.454 190.445,219.962 188.230,221.588 186.800 C 223.214 185.370,225.277 183.542,226.172 182.737 C 227.744 181.325,233.704 176.076,238.540 171.847 C 239.827 170.721,241.807 168.972,242.940 167.960 C 244.073 166.948,246.260 165.023,247.800 163.682 C 249.340 162.341,251.410 160.513,252.400 159.620 C 254.109 158.079,255.897 156.507,262.205 151.000 C 263.716 149.680,266.620 147.109,268.656 145.287 L 272.358 141.975 309.322 142.252 C 352.415 142.576,348.582 142.906,353.694 138.425 C 358.097 134.566,359.750 125.177,357.036 119.440 C 353.669 112.322,343.915 104.375,335.016 101.499 C 332.807 100.786,330.892 100.055,330.761 99.876 C 330.630 99.697,328.380 99.067,325.761 98.475 L 321.000 97.400 286.000 97.400 C 260.764 97.400,250.787 97.274,250.238 96.949 C 249.530 96.531,247.769 95.003,244.097 91.621 C 243.274 90.863,241.700 89.501,240.600 88.595 C 239.500 87.688,238.048 86.419,237.372 85.773 C 236.697 85.128,235.077 83.680,233.772 82.555 C 232.468 81.430,229.510 78.843,227.200 76.808 C 224.890 74.772,221.944 72.182,220.654 71.053 C 219.363 69.924,217.927 68.640,217.462 68.200 C 216.997 67.760,215.893 66.803,215.008 66.074 C 213.071 64.477,209.718 61.517,207.674 59.600 C 206.853 58.830,205.285 57.495,204.190 56.634 C 203.096 55.773,202.015 54.848,201.789 54.579 C 201.563 54.311,199.673 53.223,197.589 52.162 C 195.505 51.101,193.744 50.102,193.675 49.942 C 192.807 47.919,177.894 45.869,173.577 47.179 M184.000 51.604 C 189.524 52.449,197.468 57.053,205.012 63.779 C 206.998 65.551,210.508 68.647,212.812 70.660 C 216.596 73.967,228.763 84.667,239.487 94.118 C 241.734 96.099,243.479 97.873,243.363 98.060 C 243.247 98.247,234.568 98.392,224.076 98.383 L 205.000 98.365 203.119 95.683 C 198.656 89.318,190.979 78.205,185.600 70.324 C 182.410 65.650,178.479 59.898,176.864 57.542 C 172.933 51.806,173.070 51.404,179.000 51.263 C 180.320 51.232,182.570 51.385,184.000 51.604 M117.098 67.867 C 120.483 69.580,121.426 70.996,133.725 92.830 C 139.077 102.332,140.170 102.999,150.400 102.999 C 165.568 103.001,253.013 102.310,253.216 102.187 C 253.722 101.882,318.329 101.984,319.600 102.292 C 320.976 102.626,321.005 102.676,321.299 105.216 C 322.195 112.981,323.158 115.443,326.834 119.373 C 331.644 124.515,335.908 125.819,346.561 125.406 L 353.721 125.128 353.463 127.605 C 353.153 130.565,351.249 134.417,349.397 135.829 C 346.603 137.960,347.946 137.905,307.859 137.545 C 278.046 137.278,270.575 137.312,269.993 137.720 C 269.594 138.000,267.238 140.022,264.758 142.214 C 257.202 148.894,252.803 152.765,246.595 158.200 C 243.328 161.060,238.933 164.935,236.828 166.812 C 234.722 168.688,229.940 172.917,226.200 176.209 C 222.460 179.501,213.910 187.063,207.200 193.015 C 190.684 207.664,190.623 207.709,184.125 210.256 C 180.429 211.705,169.598 212.218,169.602 210.944 C 169.604 210.535,171.244 207.770,173.247 204.800 C 175.250 201.830,182.217 191.480,188.728 181.800 C 220.007 135.300,217.099 139.956,215.672 138.665 C 215.012 138.068,212.344 137.996,187.593 137.903 L 160.244 137.800 157.852 134.600 C 156.537 132.840,154.453 130.050,153.220 128.400 L 150.979 125.400 130.331 125.296 L 109.684 125.193 109.452 119.096 C 108.985 106.849,108.549 68.974,108.864 68.089 C 109.571 66.105,113.410 66.001,117.098 67.867 M330.017 105.206 C 339.954 108.870,350.800 116.952,350.800 120.694 C 350.800 121.894,337.032 121.212,334.313 119.877 C 328.953 117.245,325.600 111.743,325.600 105.580 C 325.600 103.643,325.744 103.631,330.017 105.206 M183.197 115.953 C 176.440 118.147,174.616 125.514,179.651 130.275 C 184.391 134.757,192.454 131.850,193.435 125.305 C 194.280 119.668,188.374 114.273,183.197 115.953 M206.467 116.858 C 201.823 119.157,200.766 126.148,204.484 129.967 C 210.618 136.266,221.172 129.800,218.411 121.435 C 216.884 116.806,211.072 114.579,206.467 116.858 M232.403 116.616 C 225.291 119.810,226.108 130.383,233.622 132.406 C 242.594 134.822,248.094 122.444,240.331 117.307 C 238.310 115.970,234.568 115.643,232.403 116.616 M258.255 116.586 C 253.827 118.164,251.598 123.513,253.563 127.842 C 256.742 134.841,266.921 134.210,269.052 126.882 C 271.003 120.168,264.801 114.252,258.255 116.586 M284.600 116.374 C 278.095 117.958,275.887 125.512,280.520 130.331 C 285.669 135.687,294.800 131.870,294.800 124.361 C 294.800 119.117,289.709 115.130,284.600 116.374 M187.918 120.992 C 191.383 123.908,188.331 129.345,183.963 128.036 C 182.130 127.487,181.200 126.123,181.200 123.983 C 181.200 120.484,185.198 118.704,187.918 120.992 M213.078 120.864 C 215.909 123.212,214.286 128.400,210.720 128.400 C 206.232 128.400,204.742 122.810,208.605 120.463 C 209.560 119.883,212.178 120.118,213.078 120.864 M238.900 121.592 C 241.320 124.277,239.419 128.400,235.761 128.400 C 231.662 128.400,230.168 123.200,233.600 120.881 C 235.439 119.639,237.373 119.898,238.900 121.592 M264.040 121.642 C 266.095 123.843,265.397 127.057,262.611 128.221 C 259.630 129.467,256.233 126.743,256.983 123.708 C 257.805 120.383,261.777 119.221,264.040 121.642 M288.985 121.300 C 292.434 124.316,289.537 129.747,285.175 128.440 C 283.217 127.853,282.400 126.688,282.400 124.480 C 282.400 120.974,286.402 119.041,288.985 121.300 M92.706 144.500 L 84.600 160.600 75.828 160.708 C 71.003 160.767,66.925 160.677,66.765 160.508 C 66.606 160.339,69.533 155.970,73.271 150.800 C 77.009 145.630,80.998 140.114,82.134 138.541 C 83.270 136.969,85.370 134.045,86.800 132.043 L 89.400 128.404 95.106 128.402 L 100.813 128.400 92.706 144.500 M132.800 128.622 C 132.800 128.847,123.482 149.671,120.907 155.200 L 119.510 158.200 118.573 156.200 C 116.660 152.118,109.275 135.780,106.776 130.100 L 106.028 128.400 119.414 128.400 C 126.776 128.400,132.800 128.500,132.800 128.622 M154.606 135.500 C 157.436 139.405,161.632 145.210,163.930 148.400 C 166.228 151.590,169.074 155.492,170.254 157.070 C 173.250 161.077,173.717 160.831,163.360 160.708 L 154.319 160.600 146.369 144.800 C 141.996 136.110,138.414 128.865,138.409 128.700 C 138.404 128.535,140.888 128.400,143.930 128.400 L 149.459 128.400 154.606 135.500 M104.000 131.595 C 104.000 131.787,105.822 135.961,108.049 140.872 C 110.276 145.782,113.149 152.123,114.434 154.962 C 115.719 157.802,116.676 160.277,116.561 160.462 C 116.281 160.917,88.908 160.898,88.627 160.443 C 88.505 160.247,90.583 155.792,93.244 150.543 C 95.905 145.294,99.238 138.697,100.652 135.883 C 102.829 131.551,104.000 130.050,104.000 131.595 M150.378 160.300 C 150.395 160.691,147.345 160.800,136.400 160.800 C 124.726 160.800,122.400 160.708,122.400 160.245 C 122.400 159.940,123.457 157.375,124.750 154.545 C 126.042 151.715,128.674 145.890,130.598 141.600 C 132.522 137.310,134.459 133.085,134.902 132.210 L 135.708 130.620 143.032 145.210 C 147.061 153.235,150.366 160.025,150.378 160.300 M87.198 169.300 C 88.600 172.215,91.352 177.930,93.315 182.000 C 95.277 186.070,99.855 195.610,103.489 203.200 C 107.123 210.790,110.359 217.515,110.681 218.144 C 111.003 218.774,111.090 219.224,110.875 219.144 C 110.434 218.982,66.800 164.635,66.800 164.248 C 66.800 164.112,70.816 164.000,75.725 164.000 L 84.650 164.000 87.198 169.300 M118.000 194.680 C 118.000 213.624,117.858 225.215,117.628 224.980 C 117.257 224.602,88.400 164.599,88.400 164.206 C 88.400 164.093,95.060 164.000,103.200 164.000 L 118.000 164.000 118.000 194.680 M150.400 164.362 C 150.400 164.562,148.674 168.297,146.564 172.662 C 144.454 177.028,137.946 190.590,132.103 202.800 C 126.259 215.010,121.415 225.075,121.339 225.167 C 121.262 225.258,121.200 211.533,121.200 194.667 L 121.200 164.000 135.800 164.000 C 144.259 164.000,150.400 164.152,150.400 164.362 M171.926 164.700 C 171.597 165.085,167.012 170.800,161.738 177.400 C 136.649 208.797,127.959 219.600,127.792 219.600 C 127.543 219.600,128.852 216.752,133.308 207.600 C 137.993 197.979,142.702 188.181,149.209 174.520 L 154.200 164.040 163.362 164.020 C 172.050 164.001,172.493 164.036,171.926 164.700 M309.800 178.557 C 305.865 179.313,302.397 180.537,301.025 181.655 C 300.791 181.845,299.494 182.796,298.143 183.768 C 296.792 184.740,295.194 186.152,294.592 186.906 L 293.498 188.277 291.849 187.439 C 290.942 186.977,290.110 186.483,290.000 186.340 C 288.536 184.434,275.504 184.267,273.490 186.128 C 273.209 186.388,272.089 187.050,271.001 187.600 C 266.982 189.631,262.500 195.467,261.589 199.853 C 261.168 201.883,261.086 201.983,259.674 202.203 C 257.104 202.603,253.590 203.715,252.827 204.369 C 252.421 204.716,251.271 205.573,250.271 206.273 C 241.173 212.644,241.547 228.330,250.961 235.173 C 256.108 238.915,251.524 238.600,300.800 238.600 L 344.200 238.600 346.500 237.671 C 347.765 237.160,348.800 236.597,348.800 236.420 C 348.800 236.242,349.345 235.871,350.010 235.596 C 359.699 231.583,360.402 212.578,351.106 206.008 C 350.168 205.345,349.041 204.526,348.602 204.188 C 347.688 203.484,344.279 202.400,342.979 202.400 C 342.225 202.400,342.064 202.109,341.825 200.305 C 341.672 199.152,341.275 197.577,340.942 196.805 C 339.112 192.553,337.326 189.054,336.782 188.654 C 336.442 188.404,335.658 187.528,335.039 186.706 C 334.420 185.884,332.808 184.461,331.457 183.544 C 330.106 182.627,328.910 181.750,328.800 181.595 C 327.163 179.292,315.601 177.444,309.800 178.557 M320.526 180.591 C 331.242 182.862,339.069 192.063,340.204 203.722 C 340.465 206.412,341.233 207.277,341.534 205.221 C 341.709 204.022,343.865 204.249,347.032 205.798 C 359.925 212.106,358.551 231.368,344.879 235.973 C 342.461 236.788,341.816 236.800,300.800 236.800 C 259.784 236.800,259.139 236.788,256.721 235.973 C 239.224 230.079,243.262 205.233,261.900 204.106 C 265.495 203.889,267.579 202.800,264.400 202.800 C 262.947 202.800,262.910 202.436,264.027 199.121 C 268.109 187.003,282.709 182.805,293.184 190.738 C 295.381 192.402,296.932 192.493,295.465 190.872 C 294.825 190.164,294.853 190.044,295.993 188.609 C 301.263 181.978,311.413 178.661,320.526 180.591 M146.200 240.800 C 146.064 241.020,145.558 241.207,145.076 241.216 C 144.594 241.225,143.259 241.739,142.108 242.359 L 140.016 243.485 137.909 242.443 C 133.117 240.070,128.909 241.007,122.012 245.980 L 117.823 249.000 95.897 249.200 C 80.643 249.339,73.883 249.533,73.685 249.838 C 73.528 250.080,72.935 250.390,72.366 250.529 C 70.603 250.960,65.521 255.597,48.663 272.155 C 45.328 275.430,41.826 278.744,40.879 279.520 C 37.855 281.998,37.834 281.902,42.476 286.694 C 53.340 297.909,71.541 316.000,71.960 316.000 C 72.219 316.000,77.441 310.960,83.565 304.800 L 94.699 293.600 120.649 293.596 L 146.600 293.592 148.651 292.637 C 149.779 292.112,150.833 291.470,150.993 291.212 C 151.153 290.953,152.570 289.918,154.142 288.912 C 155.714 287.906,157.360 286.751,157.800 286.345 C 158.240 285.939,159.611 284.930,160.846 284.103 C 162.082 283.276,164.692 281.533,166.646 280.228 C 168.601 278.924,170.636 277.433,171.168 276.915 C 171.701 276.397,172.699 275.706,173.386 275.380 C 174.074 275.053,175.225 274.249,175.943 273.593 C 176.662 272.937,177.373 272.388,177.525 272.373 C 177.676 272.358,179.150 271.366,180.800 270.169 C 182.450 268.971,185.195 267.075,186.900 265.955 C 188.605 264.836,190.000 263.791,190.000 263.634 C 190.000 263.477,190.585 263.066,191.300 262.722 C 200.447 258.315,200.334 243.167,191.140 241.328 C 190.513 241.203,190.000 240.943,190.000 240.750 C 190.000 238.863,182.340 240.996,177.800 244.146 L 175.800 245.534 174.694 244.195 C 170.818 239.503,163.685 239.272,157.545 243.640 C 156.569 244.334,156.449 244.341,155.945 243.732 C 155.233 242.871,151.652 241.209,150.500 241.204 C 150.005 241.202,149.600 241.020,149.600 240.800 C 149.600 240.580,148.891 240.400,148.024 240.400 C 147.157 240.400,146.336 240.580,146.200 240.800 M191.486 243.840 C 195.760 246.318,197.212 251.491,194.900 256.004 C 193.644 258.457,194.399 257.889,165.600 278.042 C 157.814 283.491,154.861 285.573,151.318 288.114 C 146.205 291.780,147.891 291.600,118.672 291.600 L 93.070 291.600 78.435 276.745 C 70.386 268.575,63.747 261.674,63.683 261.409 C 63.479 260.570,71.167 253.571,73.431 252.534 L 75.515 251.580 105.258 251.690 C 138.515 251.813,136.402 251.628,139.276 254.663 C 143.806 259.447,142.471 267.369,136.600 270.537 C 135.028 271.385,134.637 271.402,114.300 271.514 C 94.025 271.625,93.600 271.644,93.600 272.414 C 93.600 273.187,94.003 273.200,117.127 273.200 L 140.654 273.200 143.827 270.973 C 145.572 269.747,150.510 266.272,154.800 263.250 C 187.893 239.937,186.252 240.806,191.486 243.840 M150.538 243.231 C 151.980 243.632,155.234 246.133,154.799 246.506 C 154.044 247.153,142.388 255.200,142.205 255.200 C 142.079 255.200,141.442 254.593,140.791 253.851 C 140.139 253.108,138.615 251.983,137.404 251.351 C 134.660 249.917,134.468 250.330,139.515 246.819 C 145.277 242.811,147.001 242.250,150.538 243.231 M169.803 243.546 C 171.256 244.206,174.006 246.809,173.996 247.514 C 173.993 247.671,171.518 249.523,168.496 251.629 C 160.680 257.073,150.988 263.875,148.336 265.777 C 141.844 270.430,140.044 271.600,139.373 271.600 C 138.788 271.600,138.936 271.294,140.098 270.100 C 143.160 266.955,144.187 262.706,143.136 257.533 C 142.986 256.796,160.256 244.270,162.858 243.228 C 164.441 242.594,168.074 242.760,169.803 243.546 M136.327 244.198 C 138.838 245.367,138.859 245.306,135.031 247.952 L 132.037 250.022 126.344 249.911 L 120.651 249.800 124.315 247.200 C 130.206 243.020,132.542 242.436,136.327 244.198 M76.940 277.664 C 85.003 285.840,91.600 292.654,91.600 292.807 C 91.600 292.960,87.208 297.566,81.841 303.043 L 72.081 313.000 70.641 311.622 C 69.848 310.863,69.200 310.003,69.200 309.709 C 69.200 309.415,68.885 309.065,68.500 308.931 C 67.513 308.587,64.400 305.539,64.400 304.917 C 64.400 304.633,64.167 304.400,63.883 304.400 C 63.261 304.400,60.213 301.287,59.869 300.300 C 59.735 299.915,59.386 299.600,59.094 299.600 C 58.460 299.600,55.819 296.900,55.466 295.891 C 55.330 295.501,54.899 295.070,54.509 294.934 C 53.360 294.531,50.800 291.899,50.800 291.119 C 50.800 290.694,50.506 290.400,50.081 290.400 C 49.214 290.400,46.594 287.756,46.217 286.500 C 46.065 285.996,45.626 285.600,45.220 285.600 C 44.820 285.600,43.840 284.877,43.042 283.994 L 41.592 282.389 49.296 274.883 C 59.293 265.144,61.747 262.818,62.040 262.808 C 62.172 262.804,68.877 269.489,76.940 277.664 M228.987 265.752 C 225.865 266.263,221.605 267.471,221.200 267.959 C 221.090 268.092,219.470 268.966,217.600 269.902 C 213.249 272.079,204.800 279.616,204.800 281.320 C 204.800 281.451,204.361 282.033,203.824 282.612 C 203.287 283.192,202.284 285.046,201.596 286.733 C 200.907 288.420,200.072 290.398,199.739 291.129 C 199.407 291.860,198.859 293.959,198.522 295.793 L 197.910 299.128 196.506 299.391 C 195.733 299.536,194.809 299.813,194.451 300.006 C 194.093 300.199,192.884 300.642,191.764 300.989 C 186.369 302.665,179.679 309.041,178.036 314.074 C 177.771 314.885,177.391 315.605,177.192 315.674 C 175.338 316.316,175.275 332.714,177.122 333.973 C 177.305 334.098,177.766 334.990,178.147 335.955 C 180.314 341.458,186.339 346.967,192.200 348.804 C 193.740 349.286,195.432 349.888,195.961 350.140 C 197.329 350.795,314.829 350.801,315.639 350.146 C 315.947 349.897,316.830 349.566,317.600 349.411 C 319.412 349.046,325.600 346.093,325.600 345.594 C 325.600 345.383,326.311 344.761,327.180 344.213 C 335.466 338.982,338.515 318.756,332.131 311.365 C 331.577 310.724,330.872 309.715,330.563 309.122 C 329.013 306.144,320.410 300.384,317.533 300.397 C 317.167 300.399,316.806 300.217,316.731 299.994 C 316.657 299.771,315.405 299.477,313.950 299.341 L 311.304 299.094 310.460 295.676 C 309.996 293.795,309.462 292.154,309.274 292.029 C 309.086 291.903,308.448 290.810,307.857 289.600 C 306.187 286.181,305.825 285.655,303.539 283.315 C 301.295 281.018,297.231 278.128,295.700 277.741 C 295.205 277.616,294.800 277.360,294.800 277.173 C 294.800 276.237,289.288 275.081,283.960 274.898 C 277.724 274.685,273.711 275.433,270.188 277.463 C 265.791 279.997,266.306 279.999,263.959 277.431 C 255.540 268.219,241.842 263.645,228.987 265.752 M58.400 268.000 C 58.400 268.602,58.609 268.818,59.100 268.724 C 59.485 268.650,59.800 268.324,59.800 268.000 C 59.800 267.676,59.485 267.350,59.100 267.276 C 58.609 267.182,58.400 267.398,58.400 268.000 M63.000 267.600 C 62.665 268.142,63.117 268.800,63.824 268.800 C 64.141 268.800,64.400 268.440,64.400 268.000 C 64.400 267.172,63.435 266.896,63.000 267.600 M239.400 268.019 C 248.328 269.040,255.285 272.428,261.162 278.615 C 264.309 281.928,264.332 281.976,263.200 283.000 C 262.760 283.398,262.400 283.972,262.400 284.275 C 262.400 285.510,263.643 285.128,266.417 283.041 C 282.157 271.200,305.459 279.383,308.208 297.715 L 308.491 299.600 307.094 299.600 C 305.631 299.600,304.651 300.324,305.123 301.058 C 305.280 301.302,307.393 301.584,310.000 301.708 C 328.036 302.568,338.451 319.644,330.670 335.600 C 327.977 341.123,321.189 346.266,314.880 347.564 C 311.104 348.341,198.933 348.160,195.892 347.372 C 178.764 342.934,172.472 322.329,184.245 309.234 C 188.633 304.354,198.400 300.100,198.400 303.069 C 198.400 304.410,199.044 305.235,199.849 304.926 C 200.226 304.781,200.401 304.004,200.403 302.457 C 200.428 283.988,215.108 269.306,235.200 267.656 C 235.530 267.629,237.420 267.792,239.400 268.019 M54.048 272.142 C 53.700 272.562,53.722 272.803,54.142 273.152 C 54.562 273.500,54.803 273.478,55.152 273.058 C 55.500 272.638,55.478 272.397,55.058 272.048 C 54.638 271.700,54.397 271.722,54.048 272.142 M58.534 272.227 C 58.201 273.096,59.047 273.913,59.653 273.307 C 60.165 272.795,59.848 271.600,59.200 271.600 C 58.966 271.600,58.667 271.882,58.534 272.227 M63.248 272.142 C 62.900 272.562,62.922 272.803,63.342 273.152 C 63.762 273.500,64.003 273.478,64.352 273.058 C 64.700 272.638,64.678 272.397,64.258 272.048 C 63.838 271.700,63.597 271.722,63.248 272.142 M67.734 272.227 C 67.401 273.096,68.247 273.913,68.853 273.307 C 69.365 272.795,69.048 271.600,68.400 271.600 C 68.166 271.600,67.867 271.882,67.734 272.227 M49.475 276.658 C 48.909 277.225,49.229 278.000,50.029 278.000 C 50.589 278.000,50.817 277.783,50.729 277.333 C 50.587 276.597,49.904 276.230,49.475 276.658 M53.792 276.813 C 53.637 277.064,53.698 277.458,53.928 277.688 C 54.466 278.226,55.719 277.757,55.500 277.100 C 55.277 276.431,54.146 276.241,53.792 276.813 M58.675 276.658 C 58.109 277.225,58.429 278.000,59.229 278.000 C 59.789 278.000,60.017 277.783,59.929 277.333 C 59.787 276.597,59.104 276.230,58.675 276.658 M63.000 276.800 C 62.665 277.342,63.117 278.000,63.824 278.000 C 64.141 278.000,64.400 277.640,64.400 277.200 C 64.400 276.372,63.435 276.096,63.000 276.800 M67.875 276.658 C 67.309 277.225,67.629 278.000,68.429 278.000 C 68.989 278.000,69.217 277.783,69.129 277.333 C 68.987 276.597,68.304 276.230,67.875 276.658 M72.200 276.800 C 71.865 277.342,72.317 278.000,73.024 278.000 C 73.341 278.000,73.600 277.640,73.600 277.200 C 73.600 276.372,72.635 276.096,72.200 276.800 M44.694 281.439 C 44.319 281.815,44.830 282.800,45.400 282.800 C 45.970 282.800,46.481 281.815,46.106 281.439 C 45.974 281.308,45.657 281.200,45.400 281.200 C 45.143 281.200,44.826 281.308,44.694 281.439 M49.276 281.900 C 49.350 282.285,49.676 282.600,50.000 282.600 C 50.324 282.600,50.650 282.285,50.724 281.900 C 50.818 281.409,50.602 281.200,50.000 281.200 C 49.398 281.200,49.182 281.409,49.276 281.900 M53.894 281.439 C 53.519 281.815,54.030 282.800,54.600 282.800 C 55.170 282.800,55.681 281.815,55.306 281.439 C 55.174 281.308,54.857 281.200,54.600 281.200 C 54.343 281.200,54.026 281.308,53.894 281.439 M58.476 281.900 C 58.550 282.285,58.876 282.600,59.200 282.600 C 59.524 282.600,59.850 282.285,59.924 281.900 C 60.018 281.409,59.802 281.200,59.200 281.200 C 58.598 281.200,58.382 281.409,58.476 281.900 M63.000 281.600 C 62.674 282.128,63.111 282.800,63.781 282.800 C 64.366 282.800,64.887 281.821,64.506 281.439 C 64.133 281.066,63.273 281.158,63.000 281.600 M67.676 281.900 C 67.750 282.285,68.076 282.600,68.400 282.600 C 68.724 282.600,69.050 282.285,69.124 281.900 C 69.218 281.409,69.002 281.200,68.400 281.200 C 67.798 281.200,67.582 281.409,67.676 281.900 M72.178 281.635 C 71.829 282.200,72.600 282.971,73.165 282.622 C 73.800 282.229,73.697 281.200,73.024 281.200 C 72.707 281.200,72.326 281.396,72.178 281.635 M76.876 281.900 C 76.950 282.285,77.276 282.600,77.600 282.600 C 77.924 282.600,78.250 282.285,78.324 281.900 C 78.418 281.409,78.202 281.200,77.600 281.200 C 76.998 281.200,76.782 281.409,76.876 281.900 M49.475 285.858 C 48.909 286.425,49.229 287.200,50.029 287.200 C 50.589 287.200,50.817 286.983,50.729 286.533 C 50.587 285.797,49.904 285.430,49.475 285.858 M53.850 286.215 C 53.588 286.896,54.506 287.429,55.200 287.000 C 55.515 286.805,55.506 286.569,55.170 286.164 C 54.564 285.433,54.143 285.450,53.850 286.215 M58.675 285.858 C 58.109 286.425,58.429 287.200,59.229 287.200 C 59.789 287.200,60.017 286.983,59.929 286.533 C 59.787 285.797,59.104 285.430,58.675 285.858 M63.013 285.979 C 62.661 286.548,63.110 287.200,63.853 287.200 C 64.203 287.200,64.404 286.919,64.329 286.533 C 64.174 285.730,63.375 285.393,63.013 285.979 M67.875 285.858 C 67.309 286.425,67.629 287.200,68.429 287.200 C 68.989 287.200,69.217 286.983,69.129 286.533 C 68.987 285.797,68.304 285.430,67.875 285.858 M72.213 285.979 C 71.861 286.548,72.310 287.200,73.053 287.200 C 73.403 287.200,73.604 286.919,73.529 286.533 C 73.374 285.730,72.575 285.393,72.213 285.979 M77.075 285.858 C 76.509 286.425,76.829 287.200,77.629 287.200 C 78.189 287.200,78.417 286.983,78.329 286.533 C 78.187 285.797,77.504 285.430,77.075 285.858 M81.413 285.979 C 81.061 286.548,81.510 287.200,82.253 287.200 C 82.603 287.200,82.804 286.919,82.729 286.533 C 82.574 285.730,81.775 285.393,81.413 285.979 M53.792 290.813 C 53.637 291.064,53.698 291.458,53.928 291.688 C 54.466 292.226,55.719 291.757,55.500 291.100 C 55.277 290.431,54.146 290.241,53.792 290.813 M58.400 291.200 C 58.400 291.802,58.609 292.018,59.100 291.924 C 59.485 291.850,59.800 291.524,59.800 291.200 C 59.800 290.876,59.485 290.550,59.100 290.476 C 58.609 290.382,58.400 290.598,58.400 291.200 M63.000 290.800 C 62.665 291.342,63.117 292.000,63.824 292.000 C 64.141 292.000,64.400 291.640,64.400 291.200 C 64.400 290.372,63.435 290.096,63.000 290.800 M67.600 291.200 C 67.600 291.802,67.809 292.018,68.300 291.924 C 68.685 291.850,69.000 291.524,69.000 291.200 C 69.000 290.876,68.685 290.550,68.300 290.476 C 67.809 290.382,67.600 290.598,67.600 291.200 M72.200 290.800 C 71.865 291.342,72.317 292.000,73.024 292.000 C 73.341 292.000,73.600 291.640,73.600 291.200 C 73.600 290.372,72.635 290.096,72.200 290.800 M76.800 291.200 C 76.800 291.802,77.009 292.018,77.500 291.924 C 77.885 291.850,78.200 291.524,78.200 291.200 C 78.200 290.876,77.885 290.550,77.500 290.476 C 77.009 290.382,76.800 290.598,76.800 291.200 M81.400 290.800 C 81.065 291.342,81.517 292.000,82.224 292.000 C 82.541 292.000,82.800 291.640,82.800 291.200 C 82.800 290.372,81.835 290.096,81.400 290.800 M86.000 291.200 C 86.000 291.802,86.209 292.018,86.700 291.924 C 87.085 291.850,87.400 291.524,87.400 291.200 C 87.400 290.876,87.085 290.550,86.700 290.476 C 86.209 290.382,86.000 290.598,86.000 291.200 M58.534 295.427 C 58.201 296.296,59.047 297.113,59.653 296.507 C 60.165 295.995,59.848 294.800,59.200 294.800 C 58.966 294.800,58.667 295.082,58.534 295.427 M63.258 295.330 C 62.895 295.768,62.924 296.005,63.390 296.392 C 63.880 296.798,64.038 296.766,64.248 296.218 C 64.607 295.283,63.856 294.609,63.258 295.330 M67.734 295.427 C 67.401 296.296,68.247 297.113,68.853 296.507 C 69.365 295.995,69.048 294.800,68.400 294.800 C 68.166 294.800,67.867 295.082,67.734 295.427 M72.438 295.176 C 71.834 295.550,72.112 296.800,72.800 296.800 C 73.386 296.800,73.786 295.626,73.350 295.190 C 73.149 294.989,72.751 294.983,72.438 295.176 M76.932 295.434 C 76.645 296.181,77.356 296.998,77.965 296.622 C 78.600 296.229,78.496 295.323,77.785 295.050 C 77.428 294.913,77.070 295.074,76.932 295.434 M81.638 295.176 C 81.034 295.550,81.312 296.800,82.000 296.800 C 82.586 296.800,82.986 295.626,82.550 295.190 C 82.349 294.989,81.951 294.983,81.638 295.176 M86.132 295.434 C 85.845 296.181,86.556 296.998,87.165 296.622 C 87.800 296.229,87.696 295.323,86.985 295.050 C 86.628 294.913,86.270 295.074,86.132 295.434 M63.000 300.000 C 62.665 300.542,63.117 301.200,63.824 301.200 C 64.141 301.200,64.400 300.840,64.400 300.400 C 64.400 299.572,63.435 299.296,63.000 300.000 M67.875 299.858 C 67.309 300.425,67.629 301.200,68.429 301.200 C 68.989 301.200,69.217 300.983,69.129 300.533 C 68.987 299.797,68.304 299.430,67.875 299.858 M72.200 300.000 C 71.865 300.542,72.317 301.200,73.024 301.200 C 73.341 301.200,73.600 300.840,73.600 300.400 C 73.600 299.572,72.635 299.296,72.200 300.000 M76.800 300.400 C 76.800 301.002,77.009 301.218,77.500 301.124 C 77.885 301.050,78.200 300.724,78.200 300.400 C 78.200 300.076,77.885 299.750,77.500 299.676 C 77.009 299.582,76.800 299.798,76.800 300.400 M81.400 300.000 C 81.065 300.542,81.517 301.200,82.224 301.200 C 82.541 301.200,82.800 300.840,82.800 300.400 C 82.800 299.572,81.835 299.296,81.400 300.000 M67.676 305.100 C 67.750 305.485,68.076 305.800,68.400 305.800 C 68.724 305.800,69.050 305.485,69.124 305.100 C 69.218 304.609,69.002 304.400,68.400 304.400 C 67.798 304.400,67.582 304.609,67.676 305.100 M72.200 304.800 C 71.865 305.342,72.317 306.000,73.024 306.000 C 73.341 306.000,73.600 305.640,73.600 305.200 C 73.600 304.372,72.635 304.096,72.200 304.800 M76.876 305.100 C 76.950 305.485,77.276 305.800,77.600 305.800 C 77.924 305.800,78.250 305.485,78.324 305.100 C 78.418 304.609,78.202 304.400,77.600 304.400 C 76.998 304.400,76.782 304.609,76.876 305.100 M72.200 309.200 C 71.865 309.742,72.317 310.400,73.024 310.400 C 73.341 310.400,73.600 310.040,73.600 309.600 C 73.600 308.772,72.635 308.496,72.200 309.200 " stroke="none" fill="#3f3f4d" fill-rule="evenodd"></path><path id="path1" d="M84.497 135.500 C 81.667 139.405,76.527 146.497,73.075 151.260 C 69.624 156.023,66.800 160.028,66.800 160.160 C 66.800 160.292,70.805 160.399,75.700 160.397 L 84.600 160.394 92.500 144.649 C 96.845 135.989,100.400 128.791,100.400 128.652 C 100.400 128.513,97.980 128.400,95.022 128.400 L 89.644 128.400 84.497 135.500 M106.400 128.633 C 106.400 128.967,108.225 133.099,113.853 145.511 C 116.574 151.512,118.800 156.586,118.800 156.787 C 118.800 159.241,119.816 157.432,125.197 145.400 C 126.574 142.320,128.671 137.689,129.857 135.109 C 131.043 132.529,132.185 129.964,132.396 129.409 L 132.780 128.400 119.590 128.400 C 112.336 128.400,106.400 128.505,106.400 128.633 M138.400 128.585 C 138.400 128.882,154.041 159.768,154.364 160.108 C 154.524 160.277,158.632 160.367,163.491 160.308 L 172.327 160.200 165.955 151.400 C 162.450 146.560,157.292 139.413,154.491 135.518 L 149.400 128.436 143.900 128.418 C 140.875 128.408,138.400 128.483,138.400 128.585 M101.915 133.671 C 101.152 135.062,97.793 141.645,94.451 148.300 L 88.373 160.400 102.547 160.400 L 116.720 160.400 114.316 155.100 C 111.573 149.052,107.390 139.708,105.318 135.000 C 103.446 130.749,103.505 130.771,101.915 133.671 M133.910 134.516 C 133.090 136.322,131.132 140.680,129.558 144.200 C 127.985 147.720,125.731 152.725,124.549 155.322 C 123.367 157.919,122.400 160.124,122.400 160.222 C 122.400 160.320,128.715 160.400,136.433 160.400 C 144.152 160.400,150.407 160.250,150.333 160.066 C 149.762 158.634,135.755 131.212,135.600 131.221 C 135.490 131.227,134.729 132.710,133.910 134.516 M67.839 165.492 C 70.154 168.540,109.333 217.426,110.080 218.200 C 111.041 219.195,110.421 217.835,100.500 197.200 C 86.298 167.662,85.207 165.400,84.860 164.800 C 84.571 164.300,83.024 164.182,75.603 164.092 L 66.693 163.984 67.839 165.492 M89.762 166.900 C 91.877 171.469,116.194 222.064,116.918 223.400 C 117.523 224.517,117.569 222.503,117.584 194.300 L 117.600 164.000 103.010 164.000 L 88.420 164.000 89.762 166.900 M121.200 194.467 C 121.200 211.223,121.270 224.858,121.357 224.767 C 121.443 224.675,125.493 216.272,130.357 206.094 C 135.221 195.916,139.378 187.276,139.594 186.894 C 139.941 186.283,141.739 182.553,148.641 168.123 C 149.609 166.100,150.400 164.345,150.400 164.223 C 150.400 164.100,143.830 164.000,135.800 164.000 L 121.200 164.000 121.200 194.467 M153.036 166.900 C 151.296 170.656,146.686 180.244,137.794 198.600 C 129.814 215.075,128.064 218.808,128.427 218.583 C 128.642 218.451,131.367 215.160,134.483 211.271 C 163.833 174.635,172.000 164.392,172.000 164.211 C 172.000 164.095,168.035 164.000,163.190 164.000 L 154.380 164.000 153.036 166.900 M51.800 272.584 L 41.800 282.336 43.381 283.968 C 44.251 284.866,45.201 285.600,45.494 285.600 C 45.786 285.600,46.135 285.915,46.269 286.300 C 46.613 287.287,49.661 290.400,50.283 290.400 C 50.567 290.400,50.805 290.625,50.811 290.900 C 50.827 291.643,53.497 294.381,54.622 294.808 C 55.160 295.013,55.600 295.469,55.600 295.822 C 55.600 296.673,58.496 299.600,59.338 299.600 C 59.708 299.600,60.000 299.916,60.000 300.319 C 60.000 301.099,62.560 303.731,63.709 304.134 C 64.099 304.270,64.530 304.701,64.666 305.091 C 65.019 306.098,67.660 308.800,68.291 308.800 C 68.582 308.800,68.977 309.205,69.170 309.700 C 69.362 310.195,70.080 311.131,70.766 311.781 L 72.013 312.962 74.122 310.781 C 75.283 309.581,79.723 305.043,83.989 300.696 L 91.747 292.792 84.306 285.296 C 80.213 281.173,73.565 274.425,69.532 270.299 C 65.500 266.173,62.110 262.806,62.000 262.815 C 61.890 262.825,57.300 267.221,51.800 272.584 M64.624 268.362 C 64.280 268.917,63.327 268.930,62.989 268.382 C 62.847 268.153,62.956 267.694,63.231 267.362 C 63.825 266.647,65.112 267.571,64.624 268.362 M60.000 268.000 C 60.000 268.533,59.733 268.800,59.200 268.800 C 58.667 268.800,58.400 268.533,58.400 268.000 C 58.400 267.467,58.667 267.200,59.200 267.200 C 59.733 267.200,60.000 267.467,60.000 268.000 M55.525 272.506 C 55.684 273.332,54.529 273.889,53.920 273.280 C 53.311 272.671,53.868 271.516,54.694 271.675 C 55.077 271.749,55.451 272.123,55.525 272.506 M59.866 272.227 C 60.199 273.096,59.353 273.913,58.747 273.307 C 58.235 272.795,58.552 271.600,59.200 271.600 C 59.434 271.600,59.733 271.882,59.866 272.227 M64.725 272.506 C 64.884 273.332,63.729 273.889,63.120 273.280 C 62.511 272.671,63.068 271.516,63.894 271.675 C 64.277 271.749,64.651 272.123,64.725 272.506 M69.066 272.227 C 69.399 273.096,68.553 273.913,67.947 273.307 C 67.435 272.795,67.752 271.600,68.400 271.600 C 68.634 271.600,68.933 271.882,69.066 272.227 M50.728 277.300 C 50.658 277.795,50.330 278.200,50.000 278.200 C 49.670 278.200,49.342 277.795,49.272 277.300 C 49.174 276.607,49.341 276.400,50.000 276.400 C 50.659 276.400,50.826 276.607,50.728 277.300 M55.411 276.818 C 55.553 277.047,55.444 277.506,55.169 277.838 C 54.575 278.553,53.288 277.629,53.776 276.838 C 54.120 276.283,55.073 276.270,55.411 276.818 M59.928 277.300 C 59.858 277.795,59.530 278.200,59.200 278.200 C 58.870 278.200,58.542 277.795,58.472 277.300 C 58.374 276.607,58.541 276.400,59.200 276.400 C 59.859 276.400,60.026 276.607,59.928 277.300 M64.624 276.838 C 64.773 277.079,64.648 277.523,64.347 277.824 C 63.653 278.518,62.588 277.929,62.929 277.040 C 63.210 276.308,64.221 276.187,64.624 276.838 M69.128 277.300 C 69.058 277.795,68.730 278.200,68.400 278.200 C 68.070 278.200,67.742 277.795,67.672 277.300 C 67.574 276.607,67.741 276.400,68.400 276.400 C 69.059 276.400,69.226 276.607,69.128 277.300 M73.824 276.838 C 73.973 277.079,73.848 277.523,73.547 277.824 C 72.853 278.518,71.788 277.929,72.129 277.040 C 72.410 276.308,73.421 276.187,73.824 276.838 M46.315 281.946 C 46.247 282.301,45.877 282.651,45.494 282.725 C 44.640 282.889,44.079 281.645,44.805 281.197 C 45.552 280.735,46.461 281.186,46.315 281.946 M50.728 281.931 C 50.824 282.584,50.650 282.800,50.028 282.800 C 49.492 282.800,49.200 282.542,49.200 282.067 C 49.200 280.546,50.507 280.430,50.728 281.931 M55.515 281.946 C 55.447 282.301,55.077 282.651,54.694 282.725 C 53.840 282.889,53.279 281.645,54.005 281.197 C 54.752 280.735,55.661 281.186,55.515 281.946 M59.928 281.931 C 60.024 282.584,59.850 282.800,59.228 282.800 C 58.692 282.800,58.400 282.542,58.400 282.067 C 58.400 280.546,59.707 280.430,59.928 281.931 M64.624 282.362 C 64.221 283.013,63.210 282.892,62.929 282.160 C 62.588 281.271,63.653 280.682,64.347 281.376 C 64.648 281.677,64.773 282.121,64.624 282.362 M69.128 281.931 C 69.224 282.584,69.050 282.800,68.428 282.800 C 67.892 282.800,67.600 282.542,67.600 282.067 C 67.600 280.546,68.907 280.430,69.128 281.931 M73.824 282.362 C 73.421 283.013,72.410 282.892,72.129 282.160 C 71.788 281.271,72.853 280.682,73.547 281.376 C 73.848 281.677,73.973 282.121,73.824 282.362 M78.330 281.734 C 78.494 282.584,77.235 283.103,76.783 282.372 C 76.393 281.742,77.095 280.699,77.760 280.920 C 78.002 281.000,78.258 281.367,78.330 281.734 M50.666 286.227 C 50.999 287.096,50.153 287.913,49.547 287.307 C 49.035 286.795,49.352 285.600,50.000 285.600 C 50.234 285.600,50.533 285.882,50.666 286.227 M55.525 286.506 C 55.684 287.332,54.529 287.889,53.920 287.280 C 53.311 286.671,53.868 285.516,54.694 285.675 C 55.077 285.749,55.451 286.123,55.525 286.506 M59.866 286.227 C 60.199 287.096,59.353 287.913,58.747 287.307 C 58.235 286.795,58.552 285.600,59.200 285.600 C 59.434 285.600,59.733 285.882,59.866 286.227 M64.725 286.506 C 64.884 287.332,63.729 287.889,63.120 287.280 C 62.511 286.671,63.068 285.516,63.894 285.675 C 64.277 285.749,64.651 286.123,64.725 286.506 M69.000 286.605 C 69.000 287.725,67.828 287.601,67.668 286.464 C 67.565 285.739,67.699 285.561,68.268 285.670 C 68.684 285.750,69.000 286.153,69.000 286.605 M73.778 285.964 C 74.117 286.513,73.587 287.600,72.981 287.600 C 72.278 287.600,71.873 286.907,72.152 286.181 C 72.400 285.535,73.428 285.398,73.778 285.964 M78.266 286.227 C 78.398 286.572,78.310 287.050,78.070 287.290 C 77.493 287.867,76.362 286.966,76.667 286.171 C 76.959 285.408,77.965 285.444,78.266 286.227 M83.115 286.454 C 83.261 287.213,82.040 287.800,81.480 287.240 C 80.902 286.662,81.495 285.521,82.294 285.675 C 82.677 285.749,83.047 286.099,83.115 286.454 M55.500 291.100 C 55.719 291.757,54.466 292.226,53.928 291.688 C 53.698 291.458,53.637 291.064,53.792 290.813 C 54.146 290.241,55.277 290.431,55.500 291.100 M60.000 291.200 C 60.000 291.733,59.733 292.000,59.200 292.000 C 58.667 292.000,58.400 291.733,58.400 291.200 C 58.400 290.667,58.667 290.400,59.200 290.400 C 59.733 290.400,60.000 290.667,60.000 291.200 M64.700 291.100 C 64.919 291.757,63.666 292.226,63.128 291.688 C 62.898 291.458,62.837 291.064,62.992 290.813 C 63.346 290.241,64.477 290.431,64.700 291.100 M69.200 291.200 C 69.200 291.733,68.933 292.000,68.400 292.000 C 67.867 292.000,67.600 291.733,67.600 291.200 C 67.600 290.667,67.867 290.400,68.400 290.400 C 68.933 290.400,69.200 290.667,69.200 291.200 M73.800 291.200 C 73.800 292.067,72.239 291.948,72.070 291.068 C 71.961 290.499,72.139 290.365,72.864 290.468 C 73.379 290.540,73.800 290.870,73.800 291.200 M78.400 291.200 C 78.400 292.132,77.010 292.324,76.670 291.439 C 76.401 290.736,76.723 290.400,77.667 290.400 C 78.133 290.400,78.400 290.691,78.400 291.200 M83.000 291.200 C 83.000 292.067,81.439 291.948,81.270 291.068 C 81.161 290.499,81.339 290.365,82.064 290.468 C 82.579 290.540,83.000 290.870,83.000 291.200 M87.600 291.200 C 87.600 292.132,86.210 292.324,85.870 291.439 C 85.601 290.736,85.923 290.400,86.867 290.400 C 87.333 290.400,87.600 290.691,87.600 291.200 M59.800 295.828 C 59.800 296.247,59.485 296.650,59.100 296.724 C 58.396 296.859,58.087 295.647,58.675 295.058 C 59.148 294.586,59.800 295.032,59.800 295.828 M64.725 295.706 C 64.884 296.532,63.729 297.089,63.120 296.480 C 62.511 295.871,63.068 294.716,63.894 294.875 C 64.277 294.949,64.651 295.323,64.725 295.706 M69.000 295.828 C 69.000 296.247,68.685 296.650,68.300 296.724 C 67.596 296.859,67.287 295.647,67.875 295.058 C 68.348 294.586,69.000 295.032,69.000 295.828 M73.925 295.706 C 74.084 296.532,72.929 297.089,72.320 296.480 C 71.711 295.871,72.268 294.716,73.094 294.875 C 73.477 294.949,73.851 295.323,73.925 295.706 M78.330 295.734 C 78.494 296.584,77.235 297.103,76.783 296.372 C 76.393 295.742,77.095 294.699,77.760 294.920 C 78.002 295.000,78.258 295.367,78.330 295.734 M83.125 295.706 C 83.284 296.532,82.129 297.089,81.520 296.480 C 80.911 295.871,81.468 294.716,82.294 294.875 C 82.677 294.949,83.051 295.323,83.125 295.706 M87.530 295.734 C 87.694 296.584,86.435 297.103,85.983 296.372 C 85.593 295.742,86.295 294.699,86.960 294.920 C 87.202 295.000,87.458 295.367,87.530 295.734 M64.624 300.038 C 64.773 300.279,64.648 300.723,64.347 301.024 C 63.653 301.718,62.588 301.129,62.929 300.240 C 63.210 299.508,64.221 299.387,64.624 300.038 M69.128 300.500 C 69.058 300.995,68.730 301.400,68.400 301.400 C 68.070 301.400,67.742 300.995,67.672 300.500 C 67.574 299.807,67.741 299.600,68.400 299.600 C 69.059 299.600,69.226 299.807,69.128 300.500 M73.824 300.038 C 73.973 300.279,73.848 300.723,73.547 301.024 C 72.853 301.718,71.788 301.129,72.129 300.240 C 72.410 299.508,73.421 299.387,73.824 300.038 M78.400 300.376 C 78.400 301.385,77.714 301.793,77.006 301.205 C 76.278 300.601,76.675 299.600,77.643 299.600 C 78.126 299.600,78.400 299.881,78.400 300.376 M83.024 300.038 C 83.173 300.279,83.048 300.723,82.747 301.024 C 82.053 301.718,80.988 301.129,81.329 300.240 C 81.610 299.508,82.621 299.387,83.024 300.038 M69.128 305.131 C 69.224 305.784,69.050 306.000,68.428 306.000 C 67.892 306.000,67.600 305.742,67.600 305.267 C 67.600 303.746,68.907 303.630,69.128 305.131 M73.824 305.562 C 73.421 306.213,72.410 306.092,72.129 305.360 C 71.788 304.471,72.853 303.882,73.547 304.576 C 73.848 304.877,73.973 305.321,73.824 305.562 M78.328 305.131 C 78.422 305.771,78.249 306.000,77.671 306.000 C 76.730 306.000,76.282 305.078,76.916 304.444 C 77.554 303.806,78.177 304.109,78.328 305.131 M73.778 309.164 C 74.117 309.713,73.587 310.800,72.981 310.800 C 72.278 310.800,71.873 310.107,72.152 309.381 C 72.400 308.735,73.428 308.598,73.778 309.164 " stroke="none" fill="#f1e14c" fill-rule="evenodd"></path><path id="path2" d="M176.679 51.874 C 173.165 52.188,171.725 49.626,191.815 78.800 C 197.345 86.830,202.573 94.428,203.435 95.685 L 205.000 97.969 223.900 97.985 C 234.503 97.993,242.800 97.846,242.800 97.649 C 242.800 97.455,241.765 96.420,240.500 95.349 C 239.235 94.277,235.136 90.700,231.391 87.400 C 227.646 84.100,221.716 78.880,218.212 75.800 C 214.709 72.720,210.013 68.580,207.777 66.600 C 199.725 59.469,198.607 58.603,194.236 56.114 C 187.763 52.428,183.094 51.300,176.679 51.874 M109.667 67.465 L 108.733 68.221 109.193 95.611 C 109.446 110.675,109.735 123.405,109.834 123.900 L 110.015 124.800 130.332 124.800 C 149.476 124.800,150.694 124.842,151.425 125.533 C 151.851 125.935,154.000 128.810,156.200 131.920 L 160.200 137.575 187.700 137.588 C 215.086 137.600,215.203 137.603,216.039 138.439 C 217.496 139.896,219.189 137.125,194.058 174.400 C 175.733 201.580,170.002 210.237,170.001 210.744 C 170.000 211.187,171.066 211.254,175.700 211.100 C 184.679 210.804,189.077 208.748,198.241 200.566 C 200.684 198.385,203.920 195.520,205.432 194.200 C 206.944 192.880,210.084 190.090,212.409 188.000 C 214.734 185.910,220.844 180.510,225.986 176.000 C 231.127 171.490,237.252 166.090,239.595 164.000 C 241.939 161.910,244.383 159.747,245.028 159.192 C 245.673 158.638,251.588 153.438,258.174 147.637 L 270.149 137.088 307.574 137.284 C 330.524 137.403,345.542 137.332,346.400 137.100 C 349.676 136.214,352.646 132.053,353.093 127.722 L 353.325 125.469 346.761 125.728 C 330.306 126.377,322.414 120.233,320.978 105.653 L 320.704 102.876 318.852 102.583 C 317.126 102.309,254.092 102.307,253.616 102.581 C 253.497 102.649,228.602 102.837,198.294 102.997 L 143.189 103.288 141.011 102.223 C 138.063 100.781,136.927 99.228,130.679 88.107 C 129.193 85.460,127.729 82.894,123.317 75.200 C 119.344 68.271,113.063 64.712,109.667 67.465 M189.318 116.500 C 194.513 119.404,195.439 125.875,191.257 130.057 C 184.881 136.433,174.484 130.397,176.990 121.775 C 178.611 116.200,184.372 113.735,189.318 116.500 M213.907 116.219 C 215.787 117.005,217.076 118.207,218.028 120.063 C 222.528 128.838,211.569 137.093,204.466 130.280 C 197.634 123.726,205.136 112.554,213.907 116.219 M238.632 116.012 C 245.907 118.778,246.369 128.463,239.400 132.111 C 232.665 135.635,224.832 128.042,227.821 120.887 C 229.531 116.794,234.635 114.493,238.632 116.012 M264.676 116.574 C 268.085 118.161,270.418 122.247,269.799 125.545 C 268.444 132.769,260.108 135.598,255.043 130.553 C 248.231 123.767,255.979 112.525,264.676 116.574 M288.620 116.047 C 291.339 116.731,293.850 119.162,294.638 121.871 C 296.978 129.920,288.482 136.238,281.599 131.568 C 273.650 126.174,279.292 113.698,288.620 116.047 M309.800 180.686 C 302.929 182.343,293.991 188.801,295.800 190.800 C 297.537 192.719,295.593 193.053,293.371 191.217 C 284.184 183.625,270.296 186.638,265.068 197.358 C 263.361 200.859,263.206 202.400,264.560 202.400 C 265.599 202.400,266.384 203.349,265.816 203.917 C 265.661 204.073,263.788 204.304,261.655 204.432 C 242.135 205.598,240.202 233.259,259.420 236.406 C 262.815 236.962,339.529 236.931,342.627 236.372 C 357.535 233.684,360.432 212.609,346.788 206.103 C 343.236 204.409,342.000 204.161,342.000 205.143 C 342.000 206.050,341.005 206.974,340.418 206.611 C 340.188 206.469,340.000 205.492,340.000 204.440 C 340.000 189.838,324.008 177.259,309.800 180.686 M184.672 243.378 C 183.612 243.660,182.172 244.314,181.472 244.832 C 180.773 245.349,178.490 246.961,176.400 248.413 C 174.310 249.865,171.070 252.137,169.200 253.461 C 159.959 260.005,147.408 268.826,144.133 271.078 L 140.467 273.600 117.333 273.594 C 94.050 273.588,93.002 273.525,93.266 272.152 C 93.405 271.431,94.256 271.392,114.205 271.200 C 134.648 271.003,135.028 270.985,136.638 270.124 C 144.191 266.082,142.976 254.601,134.760 252.389 C 131.510 251.514,74.833 252.076,73.105 253.000 C 71.370 253.928,64.000 260.650,64.000 261.304 C 64.000 261.547,69.290 267.068,75.756 273.573 C 82.223 280.078,88.730 286.705,90.217 288.300 L 92.922 291.200 119.074 291.200 C 140.764 291.200,145.458 291.103,146.586 290.632 C 147.829 290.112,154.424 285.572,175.400 270.795 C 179.580 267.850,183.720 264.944,184.600 264.336 C 192.137 259.133,193.440 258.080,194.536 256.306 C 198.665 249.629,192.342 241.341,184.672 243.378 M145.420 243.598 C 144.273 243.963,135.642 249.599,135.616 250.000 C 135.609 250.110,136.405 250.530,137.384 250.933 C 138.364 251.335,139.803 252.370,140.582 253.233 C 141.361 254.095,142.094 254.800,142.212 254.800 C 142.834 254.800,154.400 246.413,154.400 245.962 C 154.400 244.459,148.004 242.775,145.420 243.598 M162.518 243.789 C 161.813 244.095,159.645 245.483,157.700 246.873 C 155.755 248.263,151.706 251.110,148.702 253.200 C 144.041 256.442,143.281 257.117,143.520 257.800 C 144.715 261.213,143.555 266.507,140.943 269.558 C 138.640 272.248,139.016 272.016,153.200 261.995 C 160.288 256.986,160.995 256.492,168.515 251.287 C 173.938 247.534,173.887 247.602,172.528 245.988 C 170.398 243.456,165.671 242.418,162.518 243.789 M130.377 243.979 C 128.875 244.435,127.971 244.968,124.576 247.404 L 121.516 249.600 126.860 249.600 L 132.205 249.600 135.129 247.514 C 137.770 245.629,137.984 245.378,137.345 244.910 C 135.768 243.757,132.532 243.325,130.377 243.979 M230.249 268.421 C 213.842 271.172,200.800 286.129,200.800 302.196 C 200.800 305.618,198.455 306.670,198.070 303.421 C 197.852 301.585,192.587 303.055,188.222 306.169 C 173.055 316.992,176.227 339.793,193.832 346.498 L 196.200 347.400 254.582 347.508 C 324.049 347.636,319.040 348.089,326.197 341.034 C 340.962 326.479,331.081 303.223,309.636 302.053 C 305.025 301.801,305.000 301.795,305.000 300.800 C 305.000 299.982,305.218 299.779,306.200 299.683 C 308.373 299.471,308.387 299.445,307.738 296.925 C 303.323 279.776,282.260 271.802,268.340 282.008 C 263.294 285.709,263.245 285.736,262.603 285.202 C 261.786 284.524,261.845 283.864,262.800 283.000 C 263.993 281.921,263.854 281.628,260.700 278.555 C 252.199 270.272,241.146 266.594,230.249 268.421 " stroke="none" fill="#f3f3e3" fill-rule="evenodd"></path><path id="path3" d="M325.774 105.470 C 325.881 106.312,326.073 107.802,326.202 108.783 C 327.326 117.349,333.898 121.365,345.906 120.822 L 350.811 120.600 349.459 118.600 C 346.092 113.620,339.951 109.396,331.000 105.903 C 325.247 103.658,325.548 103.682,325.774 105.470 M183.698 120.615 C 179.832 122.241,180.885 128.000,185.049 128.000 C 186.892 128.000,187.851 127.449,188.631 125.940 C 190.306 122.702,187.062 119.201,183.698 120.615 M207.782 121.382 C 205.348 123.815,207.064 128.013,210.482 127.987 C 213.026 127.968,214.400 126.569,214.400 123.996 C 214.400 120.909,209.995 119.169,207.782 121.382 M233.169 121.511 C 229.863 124.465,233.254 129.558,237.380 127.834 C 239.281 127.040,240.293 124.872,239.573 123.135 C 238.413 120.334,235.354 119.559,233.169 121.511 M259.368 120.968 C 257.861 121.624,257.012 123.473,257.362 125.338 C 258.222 129.920,265.020 129.055,264.887 124.381 C 264.800 121.335,262.208 119.731,259.368 120.968 M283.569 121.969 C 282.254 123.284,282.083 124.628,283.004 126.408 C 284.818 129.916,290.400 128.551,290.400 124.600 C 290.400 122.471,288.641 120.800,286.400 120.800 C 285.097 120.800,284.486 121.052,283.569 121.969 " stroke="none" fill="#abc3fa" fill-rule="evenodd"></path><path id="path4" d="M175.519 51.457 C 173.929 51.740,173.731 52.955,174.970 54.827 C 175.543 55.692,176.101 56.400,176.211 56.400 C 176.321 56.400,175.938 55.684,175.359 54.810 C 174.780 53.935,174.402 52.972,174.518 52.668 C 174.993 51.431,184.048 51.526,187.408 52.803 C 188.015 53.034,188.594 53.140,188.695 53.038 C 189.537 52.196,178.687 50.894,175.519 51.457 M192.465 54.963 C 192.610 55.128,194.140 56.066,195.865 57.048 C 197.589 58.030,198.730 58.571,198.400 58.251 C 197.767 57.637,192.010 54.447,192.465 54.963 M178.800 60.400 C 179.696 61.720,180.520 62.800,180.630 62.800 C 180.740 62.800,180.096 61.720,179.200 60.400 C 178.304 59.080,177.480 58.000,177.370 58.000 C 177.260 58.000,177.904 59.080,178.800 60.400 M199.200 58.923 C 199.200 59.032,200.325 60.083,201.700 61.260 C 203.075 62.436,203.948 63.078,203.641 62.687 C 202.974 61.838,199.200 58.640,199.200 58.923 M206.400 65.400 C 207.146 66.170,207.847 66.800,207.957 66.800 C 208.067 66.800,207.546 66.170,206.800 65.400 C 206.054 64.630,205.353 64.000,205.243 64.000 C 205.133 64.000,205.654 64.630,206.400 65.400 M184.000 68.000 C 184.896 69.320,185.720 70.400,185.830 70.400 C 185.940 70.400,185.296 69.320,184.400 68.000 C 183.504 66.680,182.680 65.600,182.570 65.600 C 182.460 65.600,183.104 66.680,184.000 68.000 M111.505 66.683 C 112.002 66.779,112.722 66.775,113.105 66.675 C 113.487 66.575,113.080 66.496,112.200 66.501 C 111.320 66.505,111.007 66.587,111.505 66.683 M208.518 67.055 C 208.668 67.306,210.089 68.656,211.674 70.055 C 213.259 71.455,214.433 72.395,214.282 72.145 C 214.132 71.894,212.711 70.544,211.126 69.145 C 209.541 67.745,208.367 66.805,208.518 67.055 M108.509 70.400 C 108.509 71.390,108.587 71.795,108.682 71.300 C 108.778 70.805,108.778 69.995,108.682 69.500 C 108.587 69.005,108.509 69.410,108.509 70.400 M119.999 70.201 C 120.768 71.080,121.555 71.980,121.748 72.200 C 121.940 72.420,121.911 72.240,121.683 71.800 C 121.455 71.360,120.668 70.460,119.934 69.801 L 118.600 68.602 119.999 70.201 M188.400 74.400 C 189.296 75.720,190.120 76.800,190.230 76.800 C 190.340 76.800,189.696 75.720,188.800 74.400 C 187.904 73.080,187.080 72.000,186.970 72.000 C 186.860 72.000,187.504 73.080,188.400 74.400 M215.200 72.885 C 215.200 73.014,218.800 76.297,223.200 80.180 C 227.600 84.063,231.200 87.157,231.200 87.055 C 231.200 86.953,228.095 84.126,224.300 80.773 C 220.505 77.420,216.905 74.220,216.300 73.663 C 215.695 73.106,215.200 72.756,215.200 72.885 M124.524 77.400 C 124.862 78.060,125.438 78.960,125.804 79.400 C 126.170 79.840,126.065 79.480,125.570 78.600 C 124.480 76.658,123.664 75.722,124.524 77.400 M191.445 78.900 C 192.142 80.089,195.287 84.400,195.459 84.400 C 195.563 84.400,194.715 83.050,193.574 81.400 C 191.789 78.818,190.536 77.347,191.445 78.900 M108.958 87.800 C 108.958 90.880,109.021 92.087,109.097 90.482 C 109.173 88.878,109.173 86.358,109.096 84.882 C 109.019 83.407,108.957 84.720,108.958 87.800 M128.925 85.000 C 129.481 86.100,130.235 87.360,130.600 87.800 C 130.964 88.240,130.682 87.520,129.971 86.200 C 128.365 83.216,127.551 82.281,128.925 85.000 M197.600 87.800 C 198.281 88.790,198.928 89.600,199.038 89.600 C 199.148 89.600,198.681 88.790,198.000 87.800 C 197.319 86.810,196.672 86.000,196.562 86.000 C 196.452 86.000,196.919 86.810,197.600 87.800 M233.800 89.411 C 237.067 92.499,241.023 95.905,240.676 95.332 C 240.520 95.074,238.369 93.126,235.896 91.003 C 233.423 88.880,232.480 88.164,233.800 89.411 M201.612 93.522 C 202.566 94.908,203.536 96.160,203.767 96.303 C 204.241 96.596,201.392 92.529,200.472 91.600 C 200.145 91.270,200.658 92.135,201.612 93.522 M134.000 94.000 C 134.449 94.880,134.906 95.600,135.016 95.600 C 135.126 95.600,134.849 94.880,134.400 94.000 C 133.951 93.120,133.494 92.400,133.384 92.400 C 133.274 92.400,133.551 93.120,134.000 94.000 M242.103 96.631 C 242.486 97.089,242.800 97.582,242.800 97.728 C 242.800 97.873,234.205 98.041,223.700 98.100 L 204.600 98.208 223.876 98.304 C 243.791 98.403,244.305 98.360,242.491 96.758 C 241.680 96.042,241.582 96.010,242.103 96.631 M137.237 99.124 C 138.897 101.441,143.741 103.993,144.685 103.048 C 144.822 102.912,144.498 102.796,143.967 102.791 C 142.360 102.777,139.818 101.393,138.003 99.546 C 136.602 98.120,136.462 98.042,137.237 99.124 M269.000 102.054 C 248.540 102.231,226.760 102.438,220.600 102.514 C 214.440 102.590,231.180 102.550,257.800 102.426 C 310.103 102.182,315.506 102.196,318.644 102.588 L 320.710 102.846 321.129 105.923 L 321.548 109.000 321.345 106.000 C 321.233 104.350,321.006 102.860,320.840 102.689 C 320.431 102.268,312.904 101.615,309.200 101.679 C 307.550 101.708,289.460 101.877,269.000 102.054 M166.728 103.100 C 172.078 103.163,180.718 103.163,185.928 103.100 C 191.137 103.036,186.760 102.985,176.200 102.985 C 165.640 102.985,161.377 103.037,166.728 103.100 M109.367 111.600 C 109.367 115.890,109.426 117.645,109.498 115.500 C 109.570 113.355,109.570 109.845,109.498 107.700 C 109.426 105.555,109.367 107.310,109.367 111.600 M325.701 106.600 C 325.705 107.480,325.787 107.793,325.883 107.295 C 325.979 106.798,325.975 106.078,325.875 105.695 C 325.775 105.313,325.696 105.720,325.701 106.600 M332.800 106.600 C 333.350 106.914,333.980 107.172,334.200 107.172 C 334.420 107.172,334.150 106.914,333.600 106.600 C 333.050 106.286,332.420 106.028,332.200 106.028 C 331.980 106.028,332.250 106.286,332.800 106.600 M339.600 109.724 C 339.600 109.817,340.365 110.398,341.300 111.015 C 342.235 111.632,342.789 111.880,342.531 111.568 C 342.034 110.967,339.600 109.436,339.600 109.724 M346.783 115.300 C 347.764 116.345,348.619 117.200,348.683 117.200 C 348.984 117.200,348.666 116.841,346.900 115.183 L 345.000 113.400 346.783 115.300 M329.200 116.000 C 329.897 116.880,330.557 117.600,330.667 117.600 C 330.777 117.600,330.297 116.880,329.600 116.000 C 328.903 115.120,328.243 114.400,328.133 114.400 C 328.023 114.400,328.503 115.120,329.200 116.000 M183.197 115.553 C 181.379 116.144,179.814 117.108,178.801 118.262 L 177.803 119.400 179.001 118.346 C 183.731 114.185,189.791 115.105,192.543 120.400 C 193.338 121.929,193.605 122.234,193.419 121.400 C 192.578 117.630,186.866 114.362,183.197 115.553 M206.948 116.176 C 206.259 116.476,205.586 116.898,205.452 117.115 C 205.318 117.332,205.875 117.170,206.689 116.755 C 209.592 115.275,213.986 115.970,216.599 118.321 L 217.797 119.400 216.799 118.247 C 214.722 115.850,209.986 114.854,206.948 116.176 M232.500 116.196 C 231.785 116.507,231.200 116.851,231.200 116.960 C 231.200 117.070,231.824 116.898,232.587 116.580 C 234.520 115.772,237.538 115.851,239.311 116.755 C 240.125 117.170,240.681 117.331,240.547 117.114 C 239.681 115.712,234.874 115.164,232.500 116.196 M258.250 116.188 C 252.979 118.066,250.296 127.263,254.297 129.736 C 254.505 129.865,254.254 129.137,253.738 128.118 C 250.279 121.285,256.546 114.432,264.265 116.605 C 264.669 116.719,264.460 116.547,263.800 116.224 C 262.295 115.486,260.255 115.473,258.250 116.188 M283.850 116.167 C 282.997 116.482,282.097 116.954,281.850 117.216 C 281.602 117.477,282.002 117.387,282.739 117.016 C 284.215 116.270,287.140 116.032,289.000 116.505 C 289.892 116.733,290.028 116.706,289.529 116.402 C 288.350 115.683,285.478 115.564,283.850 116.167 M324.267 116.697 C 324.653 117.411,325.960 118.941,327.172 120.097 L 329.374 122.200 327.182 119.800 C 325.976 118.480,324.669 116.950,324.277 116.400 C 323.591 115.436,323.591 115.447,324.267 116.697 M265.400 117.057 C 267.437 118.864,268.187 119.391,267.402 118.463 C 266.966 117.948,266.247 117.341,265.804 117.114 C 265.362 116.887,265.180 116.862,265.400 117.057 M229.524 118.300 C 228.359 119.549,227.439 121.173,227.731 121.464 C 227.839 121.572,228.049 121.275,228.199 120.804 C 228.348 120.333,229.013 119.329,229.677 118.574 C 231.112 116.939,230.992 116.725,229.524 118.300 M292.447 118.582 C 293.023 119.252,293.693 120.160,293.935 120.600 C 294.177 121.040,294.381 121.168,294.388 120.885 C 294.395 120.601,293.725 119.693,292.900 118.867 C 292.065 118.030,291.864 117.904,292.447 118.582 M242.472 119.454 C 243.202 120.570,243.858 121.436,243.929 121.379 C 244.187 121.171,242.861 118.979,242.013 118.211 C 241.402 117.659,241.539 118.029,242.472 119.454 M280.117 118.500 C 279.151 119.555,277.996 121.737,278.009 122.480 C 278.014 122.766,278.385 122.190,278.834 121.200 C 279.282 120.210,280.030 118.995,280.495 118.500 C 280.959 118.005,281.249 117.600,281.139 117.600 C 281.029 117.600,280.569 118.005,280.117 118.500 M202.833 120.041 C 201.202 122.724,201.646 127.677,203.676 129.434 L 204.560 130.200 203.719 129.095 C 201.844 126.633,201.718 122.390,203.442 119.700 C 203.759 119.205,203.922 118.800,203.803 118.800 C 203.685 118.800,203.249 119.359,202.833 120.041 M332.800 118.996 C 332.800 119.270,335.249 120.484,335.432 120.301 C 335.519 120.214,334.962 119.844,334.195 119.478 C 333.428 119.112,332.800 118.895,332.800 118.996 M182.703 120.900 C 182.185 121.395,182.043 121.584,182.389 121.321 C 182.734 121.058,183.463 120.664,184.008 120.446 C 184.668 120.183,184.773 120.042,184.322 120.025 C 183.950 120.011,183.221 120.405,182.703 120.900 M186.126 120.407 C 187.523 120.826,188.391 121.528,188.819 122.586 C 189.074 123.215,189.155 123.249,189.175 122.736 C 189.209 121.838,186.949 119.992,185.869 120.034 C 185.149 120.063,185.192 120.126,186.126 120.407 M209.700 120.276 C 210.085 120.376,210.715 120.376,211.100 120.276 C 211.485 120.175,211.170 120.093,210.400 120.093 C 209.630 120.093,209.315 120.175,209.700 120.276 M237.727 120.847 C 238.127 121.080,238.802 121.839,239.226 122.535 C 239.650 123.231,239.998 123.589,239.999 123.331 C 240.001 122.672,238.026 120.397,237.464 120.412 C 237.209 120.419,237.327 120.615,237.727 120.847 M283.722 121.439 L 282.600 122.478 283.754 121.639 C 284.436 121.143,285.518 120.800,286.400 120.800 C 287.282 120.800,288.364 121.143,289.046 121.639 L 290.200 122.478 289.078 121.439 C 288.270 120.691,287.520 120.400,286.400 120.400 C 285.280 120.400,284.530 120.691,283.722 121.439 M336.600 120.804 C 337.367 121.130,340.711 121.353,340.367 121.056 C 340.275 120.977,339.210 120.811,338.000 120.688 C 336.631 120.549,336.102 120.592,336.600 120.804 M269.093 121.800 C 269.261 122.460,269.398 123.630,269.398 124.400 C 269.398 125.170,269.261 126.340,269.093 127.000 C 268.825 128.057,268.847 128.105,269.280 127.400 C 269.550 126.960,269.772 125.610,269.772 124.400 C 269.772 123.190,269.550 121.840,269.280 121.400 C 268.847 120.695,268.825 120.743,269.093 121.800 M344.100 121.096 C 345.365 121.175,347.435 121.175,348.700 121.096 C 349.965 121.016,348.930 120.951,346.400 120.951 C 343.870 120.951,342.835 121.016,344.100 121.096 M206.667 122.267 C 206.300 122.633,206.329 125.909,206.700 126.138 C 206.865 126.240,207.000 125.351,207.000 124.162 C 207.000 122.973,206.985 122.000,206.967 122.000 C 206.948 122.000,206.813 122.120,206.667 122.267 M193.642 124.000 C 193.553 125.619,192.717 128.143,191.938 129.146 C 191.642 129.527,191.799 129.423,192.286 128.913 C 193.318 127.835,194.119 125.206,193.884 123.670 C 193.745 122.766,193.708 122.817,193.642 124.000 M218.901 124.200 C 218.905 125.080,218.987 125.393,219.083 124.895 C 219.179 124.398,219.175 123.678,219.075 123.295 C 218.975 122.913,218.896 123.320,218.901 124.200 M294.893 124.400 C 294.893 125.170,294.975 125.485,295.076 125.100 C 295.176 124.715,295.176 124.085,295.076 123.700 C 294.975 123.315,294.893 123.630,294.893 124.400 M332.193 123.793 C 333.106 124.520,336.553 125.616,337.773 125.567 C 338.228 125.548,337.563 125.282,336.297 124.975 C 335.030 124.668,333.410 124.134,332.697 123.789 C 331.514 123.217,331.470 123.217,332.193 123.793 M256.806 124.433 C 256.809 124.965,256.989 125.670,257.206 126.000 C 257.482 126.422,257.523 126.185,257.342 125.200 C 257.025 123.475,256.798 123.149,256.806 124.433 M109.632 124.500 C 109.602 125.158,110.836 125.200,130.200 125.200 L 150.801 125.200 152.665 127.600 C 153.690 128.920,154.605 130.000,154.698 130.000 C 154.970 130.000,151.880 125.850,151.209 125.313 C 150.749 124.944,145.648 124.822,130.333 124.813 C 114.504 124.803,110.022 124.691,109.865 124.300 C 109.744 124.001,109.650 124.082,109.632 124.500 M188.294 126.503 L 187.588 127.800 188.394 126.856 C 189.080 126.052,189.446 125.194,189.100 125.203 C 189.045 125.204,188.682 125.789,188.294 126.503 M350.077 125.497 L 353.154 125.633 353.310 127.116 L 353.466 128.600 353.533 126.900 L 353.600 125.200 350.300 125.280 L 347.000 125.361 350.077 125.497 M282.400 125.889 C 282.400 126.121,282.771 126.736,283.224 127.256 L 284.047 128.200 283.345 127.000 C 282.420 125.421,282.400 125.397,282.400 125.889 M340.291 125.889 C 341.001 125.977,342.261 125.979,343.091 125.892 C 343.921 125.805,343.340 125.733,341.800 125.731 C 340.260 125.729,339.581 125.800,340.291 125.889 M293.917 127.918 C 293.541 128.733,292.911 129.842,292.517 130.383 C 292.123 130.924,292.023 131.229,292.295 131.062 C 292.976 130.645,294.901 127.300,294.735 126.824 C 294.661 126.611,294.293 127.104,293.917 127.918 M243.396 127.614 C 243.243 128.095,242.468 129.234,241.674 130.144 C 240.239 131.789,240.238 131.792,241.550 130.600 C 242.893 129.380,244.217 127.284,243.866 126.933 C 243.760 126.827,243.548 127.133,243.396 127.614 M177.212 127.353 C 177.187 128.080,178.854 130.342,179.907 131.011 C 180.853 131.611,180.806 131.496,179.552 130.152 C 178.756 129.298,177.906 128.240,177.664 127.800 C 177.422 127.360,177.219 127.159,177.212 127.353 M278.412 127.738 C 278.388 128.408,279.689 130.216,280.734 130.963 C 281.713 131.664,281.698 131.614,280.553 130.363 C 279.867 129.613,279.107 128.640,278.865 128.200 C 278.623 127.760,278.419 127.552,278.412 127.738 M209.905 128.283 C 210.402 128.379,211.122 128.375,211.505 128.275 C 211.887 128.175,211.480 128.096,210.600 128.101 C 209.720 128.105,209.407 128.187,209.905 128.283 M216.626 129.900 C 215.762 131.005,215.693 131.190,216.363 130.604 C 217.165 129.904,218.223 128.400,217.914 128.400 C 217.851 128.400,217.272 129.075,216.626 129.900 M228.941 129.637 C 229.263 130.097,229.948 130.755,230.463 131.100 C 231.082 131.514,230.932 131.230,230.022 130.263 C 228.477 128.624,228.063 128.384,228.941 129.637 M352.846 129.316 C 352.786 130.246,351.385 133.023,350.080 134.800 C 349.282 135.887,349.238 136.039,349.882 135.478 C 351.053 134.459,353.292 130.121,353.074 129.292 C 352.908 128.656,352.889 128.658,352.846 129.316 M266.975 130.500 L 265.800 131.800 267.100 130.625 C 267.815 129.979,268.400 129.394,268.400 129.325 C 268.400 129.016,268.070 129.288,266.975 130.500 M155.943 132.118 C 156.640 133.131,157.422 134.090,157.680 134.250 C 157.939 134.409,157.535 133.684,156.784 132.637 C 155.005 130.160,154.294 129.721,155.943 132.118 M189.000 131.431 C 188.120 131.957,187.580 132.389,187.800 132.392 C 188.281 132.398,190.800 130.898,190.800 130.606 C 190.800 130.344,190.883 130.307,189.000 131.431 M256.000 131.400 C 256.745 131.950,257.526 132.400,257.734 132.400 C 257.941 132.400,257.449 131.950,256.638 131.400 C 255.828 130.850,255.047 130.400,254.905 130.400 C 254.762 130.400,255.255 130.850,256.000 131.400 M184.300 132.682 C 184.795 132.778,185.605 132.778,186.100 132.682 C 186.595 132.587,186.190 132.509,185.200 132.509 C 184.210 132.509,183.805 132.587,184.300 132.682 M209.300 132.687 C 209.905 132.778,210.895 132.778,211.500 132.687 C 212.105 132.595,211.610 132.520,210.400 132.520 C 209.190 132.520,208.695 132.595,209.300 132.687 M235.800 132.800 C 234.722 133.074,234.702 133.106,235.600 133.113 C 236.150 133.117,237.050 132.976,237.600 132.800 C 238.944 132.369,237.492 132.369,235.800 132.800 M258.940 132.894 C 259.508 133.257,262.354 133.241,263.290 132.870 C 263.670 132.719,262.743 132.597,261.230 132.598 C 259.718 132.599,258.687 132.732,258.940 132.894 M285.300 133.087 C 285.905 133.178,286.895 133.178,287.500 133.087 C 288.105 132.995,287.610 132.920,286.400 132.920 C 285.190 132.920,284.695 132.995,285.300 133.087 M268.467 138.700 L 266.965 140.200 268.382 139.001 C 269.162 138.342,269.971 137.667,270.180 137.501 C 270.389 137.335,270.427 137.200,270.265 137.200 C 270.102 137.200,269.293 137.875,268.467 138.700 M299.328 137.500 C 305.008 137.562,314.188 137.562,319.728 137.500 C 325.268 137.437,320.620 137.386,309.400 137.386 C 298.180 137.386,293.648 137.437,299.328 137.500 M341.600 137.600 L 337.800 137.847 341.400 137.895 C 343.380 137.922,345.360 137.789,345.800 137.600 C 346.240 137.411,346.330 137.278,346.000 137.305 C 345.670 137.331,343.690 137.464,341.600 137.600 M187.572 137.900 C 219.769 138.024,218.314 137.769,214.989 142.705 C 214.214 143.857,213.669 144.800,213.779 144.800 C 214.195 144.800,216.800 140.579,216.800 139.905 C 216.800 137.508,217.886 137.591,187.700 137.697 L 160.200 137.794 187.572 137.900 M263.000 143.455 L 259.800 146.487 262.644 144.052 C 265.266 141.807,266.715 140.383,266.349 140.412 C 266.267 140.418,264.760 141.787,263.000 143.455 M211.037 148.700 C 210.225 149.965,209.979 150.508,210.490 149.906 C 211.500 148.718,212.947 146.400,212.679 146.400 C 212.588 146.400,211.849 147.435,211.037 148.700 M255.600 149.838 C 251.066 153.884,249.222 155.774,252.600 152.912 C 255.641 150.337,259.863 146.434,259.600 146.442 C 259.490 146.445,257.690 147.973,255.600 149.838 M206.950 154.700 C 205.640 156.499,205.344 157.083,206.023 156.531 C 206.601 156.061,208.175 153.600,207.898 153.600 C 207.817 153.600,207.390 154.095,206.950 154.700 M247.715 156.810 C 246.789 157.685,246.167 158.400,246.334 158.400 C 246.501 158.400,247.341 157.680,248.200 156.800 C 250.210 154.741,249.900 154.748,247.715 156.810 M242.791 161.238 L 240.200 163.676 242.702 161.597 C 244.959 159.721,245.885 158.800,245.515 158.800 C 245.442 158.800,244.217 159.897,242.791 161.238 M199.600 165.600 C 197.393 168.900,195.677 171.600,195.787 171.600 C 195.897 171.600,197.793 168.900,200.000 165.600 C 202.207 162.300,203.923 159.600,203.813 159.600 C 203.703 159.600,201.807 162.300,199.600 165.600 M66.747 160.508 C 66.917 160.677,71.003 160.767,75.828 160.707 L 84.600 160.599 75.519 160.399 C 70.525 160.290,66.578 160.339,66.747 160.508 M154.347 160.508 C 154.517 160.677,158.693 160.767,163.628 160.707 L 172.600 160.599 163.319 160.399 C 158.215 160.290,154.177 160.339,154.347 160.508 M95.474 160.699 C 99.255 160.765,105.555 160.765,109.474 160.699 C 113.393 160.634,110.300 160.580,102.600 160.580 C 94.900 160.580,91.693 160.634,95.474 160.699 M129.300 160.699 C 133.205 160.765,139.595 160.765,143.500 160.699 C 147.405 160.634,144.210 160.580,136.400 160.580 C 128.590 160.580,125.395 160.634,129.300 160.699 M117.505 194.438 C 117.447 211.179,117.535 224.960,117.700 225.062 C 117.865 225.164,118.000 211.467,118.000 194.624 C 118.000 177.781,117.912 164.000,117.805 164.000 C 117.698 164.000,117.563 177.697,117.505 194.438 M237.978 165.500 L 236.600 167.000 238.100 165.622 C 239.496 164.338,239.784 164.000,239.478 164.000 C 239.412 164.000,238.737 164.675,237.978 165.500 M228.600 173.635 C 224.860 176.941,221.260 180.203,220.600 180.884 C 219.940 181.565,223.045 178.927,227.500 175.021 C 234.609 168.789,235.937 167.559,235.500 167.612 C 235.445 167.619,232.340 170.329,228.600 173.635 M193.385 174.900 C 192.768 175.835,192.520 176.389,192.832 176.131 C 193.433 175.634,194.964 173.200,194.676 173.200 C 194.583 173.200,194.002 173.965,193.385 174.900 M312.900 180.294 C 313.945 180.376,315.655 180.376,316.700 180.294 C 317.745 180.212,316.890 180.144,314.800 180.144 C 312.710 180.144,311.855 180.212,312.900 180.294 M188.000 182.800 C 187.104 184.120,186.460 185.200,186.570 185.200 C 186.680 185.200,187.504 184.120,188.400 182.800 C 189.296 181.480,189.940 180.400,189.830 180.400 C 189.720 180.400,188.896 181.480,188.000 182.800 M215.000 185.636 C 212.800 187.613,210.550 189.704,210.000 190.282 C 209.450 190.861,211.210 189.389,213.911 187.011 C 218.255 183.187,219.549 181.949,219.124 182.021 C 219.056 182.032,217.200 183.659,215.000 185.636 M326.750 183.199 C 327.932 183.851,329.181 184.613,329.526 184.892 C 330.033 185.303,330.095 185.303,329.848 184.892 C 329.502 184.317,325.613 182.006,325.000 182.011 C 324.780 182.013,325.567 182.548,326.750 183.199 M301.878 183.591 C 300.845 184.246,300.000 184.869,300.000 184.975 C 300.000 185.080,300.900 184.607,302.000 183.924 C 303.764 182.827,304.291 182.400,303.878 182.400 C 303.811 182.400,302.911 182.936,301.878 183.591 M298.200 186.316 C 297.540 186.912,296.554 187.940,296.009 188.600 C 295.463 189.260,296.048 188.816,297.309 187.614 C 299.376 185.641,299.810 185.166,299.500 185.216 C 299.445 185.225,298.860 185.720,298.200 186.316 M332.600 187.600 C 333.906 188.920,335.065 190.000,335.175 190.000 C 335.285 190.000,334.306 188.920,333.000 187.600 C 331.694 186.280,330.535 185.200,330.425 185.200 C 330.315 185.200,331.294 186.280,332.600 187.600 M183.837 189.100 C 183.025 190.365,182.779 190.908,183.290 190.306 C 184.300 189.118,185.747 186.800,185.479 186.800 C 185.388 186.800,184.649 187.835,183.837 189.100 M274.600 187.889 C 270.971 189.357,263.901 196.034,264.908 197.041 C 265.015 197.148,265.560 196.457,266.118 195.504 C 268.016 192.266,271.756 189.336,275.978 187.780 C 276.760 187.492,277.130 187.253,276.800 187.249 C 276.470 187.245,275.480 187.533,274.600 187.889 M287.238 187.786 C 288.028 188.077,289.243 188.609,289.938 188.968 C 290.632 189.327,291.200 189.518,291.200 189.392 C 291.200 189.051,287.095 187.204,286.400 187.232 C 286.070 187.245,286.447 187.495,287.238 187.786 M295.385 190.709 C 296.616 192.191,295.597 192.667,293.957 191.377 L 292.600 190.309 293.948 191.592 C 295.183 192.767,295.350 192.821,295.936 192.236 C 296.521 191.650,296.493 191.521,295.602 190.698 L 294.630 189.800 295.385 190.709 M206.778 193.100 L 205.400 194.600 206.900 193.222 C 208.296 191.938,208.584 191.600,208.278 191.600 C 208.212 191.600,207.537 192.275,206.778 193.100 M179.837 195.100 C 179.025 196.365,178.779 196.908,179.290 196.306 C 180.300 195.118,181.747 192.800,181.479 192.800 C 181.388 192.800,180.649 193.835,179.837 195.100 M337.845 195.000 C 338.913 198.339,339.603 200.039,339.420 198.878 C 339.305 198.151,338.846 196.801,338.401 195.878 C 337.955 194.955,337.705 194.560,337.845 195.000 M199.493 199.426 C 196.912 201.751,194.800 203.737,194.800 203.841 C 194.800 203.944,196.960 202.111,199.600 199.767 C 203.893 195.956,204.669 195.200,204.293 195.200 C 204.234 195.200,202.074 197.102,199.493 199.426 M172.591 205.749 C 168.469 212.017,168.323 211.727,175.500 211.503 C 178.824 211.399,181.977 211.098,182.720 210.813 C 184.658 210.071,184.117 209.983,181.612 210.633 C 178.910 211.334,170.000 211.423,170.000 210.749 C 170.000 210.501,171.346 208.251,172.991 205.749 C 174.636 203.247,175.892 201.200,175.782 201.200 C 175.672 201.200,174.236 203.247,172.591 205.749 M263.246 201.900 C 263.208 202.639,263.410 202.800,264.371 202.800 C 265.069 202.800,265.618 203.045,265.730 203.408 C 265.862 203.834,265.900 203.805,265.856 203.308 C 265.816 202.858,265.402 202.555,264.721 202.476 C 264.127 202.407,263.570 202.051,263.471 201.676 C 263.345 201.196,263.279 201.262,263.246 201.900 M191.539 205.938 C 190.076 206.962,188.546 208.031,188.139 208.314 C 187.733 208.597,188.300 208.366,189.400 207.802 C 191.083 206.938,195.029 203.980,194.400 204.053 C 194.290 204.066,193.003 204.914,191.539 205.938 M261.091 204.289 C 261.801 204.377,263.061 204.379,263.891 204.292 C 264.721 204.205,264.140 204.133,262.600 204.131 C 261.060 204.129,260.381 204.200,261.091 204.289 M340.064 205.076 C 340.029 205.778,340.188 206.469,340.418 206.611 C 341.042 206.997,342.006 206.022,341.960 205.051 C 341.924 204.279,341.895 204.290,341.649 205.170 C 341.234 206.654,340.476 206.629,340.291 205.124 L 340.128 203.800 340.064 205.076 M253.526 206.361 C 252.519 206.999,251.553 207.764,251.379 208.061 C 251.199 208.367,251.394 208.312,251.831 207.931 C 252.254 207.564,253.410 206.801,254.400 206.236 C 255.390 205.672,256.010 205.207,255.778 205.205 C 255.546 205.202,254.533 205.722,253.526 206.361 M347.198 206.238 C 348.188 206.803,349.223 207.453,349.498 207.682 C 349.774 207.911,350.000 207.982,350.000 207.840 C 350.000 207.496,346.358 205.199,345.822 205.205 C 345.590 205.207,346.209 205.672,347.198 206.238 M351.824 209.800 C 353.692 212.270,354.222 212.840,353.684 211.800 C 353.456 211.360,352.604 210.280,351.791 209.400 L 350.312 207.800 351.824 209.800 M248.421 211.171 C 247.382 212.629,246.017 215.600,246.018 216.400 C 246.019 216.730,246.434 215.991,246.942 214.757 C 247.449 213.523,248.267 211.948,248.759 211.257 C 249.252 210.566,249.564 210.000,249.454 210.000 C 249.344 210.000,248.879 210.527,248.421 211.171 M355.740 220.400 C 355.740 222.270,355.809 223.035,355.893 222.100 C 355.977 221.165,355.977 219.635,355.893 218.700 C 355.809 217.765,355.740 218.530,355.740 220.400 M246.241 225.200 C 246.688 226.897,248.035 229.533,248.734 230.080 C 249.315 230.534,249.337 230.519,248.905 229.965 C 248.632 229.615,247.862 228.175,247.193 226.765 C 246.524 225.354,246.096 224.650,246.241 225.200 M352.399 230.287 C 351.630 231.325,350.024 232.855,348.832 233.687 C 347.639 234.519,346.797 235.200,346.960 235.200 C 348.030 235.200,352.022 231.664,353.394 229.500 C 354.488 227.776,353.940 228.210,352.399 230.287 M250.004 231.742 C 251.035 232.926,254.102 235.200,254.665 235.200 C 254.841 235.200,254.269 234.725,253.393 234.145 C 252.517 233.565,251.172 232.530,250.404 231.845 C 249.070 230.655,249.052 230.651,250.004 231.742 M184.320 243.019 C 183.285 243.346,182.334 243.783,182.205 243.992 C 182.076 244.201,182.652 244.083,183.485 243.730 C 185.431 242.905,189.107 242.925,190.738 243.768 C 191.432 244.127,192.000 244.331,192.000 244.221 C 192.000 243.028,186.845 242.221,184.320 243.019 M145.154 243.352 C 143.811 243.832,141.200 245.455,141.200 245.811 C 141.200 245.897,142.129 245.389,143.265 244.683 C 145.945 243.017,149.653 242.862,152.200 244.309 C 153.564 245.084,153.662 245.101,152.868 244.419 C 151.064 242.872,147.772 242.416,145.154 243.352 M162.500 243.396 C 161.785 243.707,161.200 244.051,161.200 244.160 C 161.200 244.270,161.824 244.098,162.587 243.780 C 164.723 242.887,167.950 243.041,170.118 244.138 C 171.137 244.654,171.865 244.905,171.736 244.697 C 170.739 243.084,165.059 242.284,162.500 243.396 M130.715 243.528 C 130.338 243.678,131.276 243.800,132.800 243.800 C 134.324 243.800,135.262 243.678,134.885 243.528 C 134.508 243.379,133.570 243.256,132.800 243.256 C 132.030 243.256,131.092 243.379,130.715 243.528 M193.238 245.377 C 193.588 245.830,194.173 246.645,194.538 247.189 C 194.902 247.733,195.200 247.988,195.200 247.756 C 195.200 247.523,194.615 246.708,193.900 245.943 C 193.185 245.179,192.887 244.924,193.238 245.377 M124.857 246.776 C 121.757 249.019,121.350 249.636,124.322 247.590 C 126.480 246.104,127.587 245.165,127.124 245.213 C 127.056 245.220,126.036 245.923,124.857 246.776 M172.990 246.450 C 173.613 247.477,173.593 247.529,172.113 248.784 L 170.600 250.068 172.291 248.934 C 174.253 247.619,174.263 247.590,173.176 246.344 L 172.353 245.400 172.990 246.450 M177.846 246.996 C 176.772 247.739,175.692 248.565,175.446 248.830 C 175.201 249.095,176.125 248.561,177.500 247.641 C 178.875 246.722,180.000 245.887,180.000 245.785 C 180.000 245.511,179.963 245.532,177.846 246.996 M138.900 247.240 C 137.965 247.902,137.200 248.533,137.200 248.641 C 137.200 248.750,138.010 248.281,139.000 247.600 C 139.990 246.919,140.800 246.280,140.800 246.181 C 140.800 245.905,140.724 245.948,138.900 247.240 M152.500 247.662 C 151.345 248.523,150.400 249.327,150.400 249.448 C 150.400 249.617,152.628 248.126,154.767 246.525 C 154.858 246.456,154.858 246.331,154.767 246.248 C 154.675 246.164,153.655 246.800,152.500 247.662 M156.600 247.232 C 154.230 249.024,153.927 249.502,156.080 248.054 C 157.113 247.359,158.069 246.612,158.203 246.395 C 158.574 245.794,158.339 245.917,156.600 247.232 M134.900 247.640 C 133.965 248.302,133.200 248.933,133.200 249.041 C 133.200 249.150,134.010 248.681,135.000 248.000 C 135.990 247.319,136.800 246.680,136.800 246.581 C 136.800 246.305,136.724 246.348,134.900 247.640 M120.938 249.700 C 120.836 249.865,123.363 250.000,126.553 250.000 C 129.743 250.000,132.436 249.865,132.538 249.700 C 132.640 249.535,130.114 249.400,126.924 249.400 C 123.734 249.400,121.040 249.535,120.938 249.700 M149.806 252.030 C 148.269 253.129,146.829 254.234,146.606 254.484 C 146.130 255.018,151.524 251.338,152.386 250.542 C 153.496 249.515,152.593 250.036,149.806 252.030 M137.600 251.433 C 138.590 251.996,139.937 252.939,140.594 253.528 C 141.636 254.464,141.687 254.478,140.994 253.639 C 140.124 252.587,136.894 250.397,136.222 250.405 C 135.990 250.407,136.610 250.870,137.600 251.433 M146.900 251.640 C 145.965 252.302,145.200 252.933,145.200 253.041 C 145.200 253.150,146.010 252.681,147.000 252.000 C 147.990 251.319,148.800 250.680,148.800 250.581 C 148.800 250.305,148.724 250.348,146.900 251.640 M167.300 252.040 C 166.365 252.702,165.600 253.333,165.600 253.441 C 165.600 253.550,166.410 253.081,167.400 252.400 C 168.390 251.719,169.200 251.080,169.200 250.981 C 169.200 250.705,169.124 250.748,167.300 252.040 M170.100 252.440 C 169.165 253.102,168.400 253.733,168.400 253.841 C 168.400 253.950,169.210 253.481,170.200 252.800 C 171.190 252.119,172.000 251.480,172.000 251.381 C 172.000 251.105,171.924 251.148,170.100 252.440 M74.200 252.209 C 73.284 252.654,73.237 252.722,74.000 252.496 C 74.550 252.333,88.500 252.200,105.000 252.200 L 135.000 252.200 136.661 253.088 C 137.575 253.577,138.899 254.657,139.603 255.488 C 140.307 256.320,140.700 256.640,140.476 256.200 C 139.909 255.087,138.063 253.432,136.400 252.546 C 134.475 251.520,76.265 251.205,74.200 252.209 M67.621 257.058 C 65.390 259.180,63.617 261.135,63.682 261.403 C 63.747 261.671,70.387 268.576,78.438 276.748 L 93.076 291.606 119.038 291.500 L 145.000 291.394 118.956 291.297 L 92.912 291.200 89.621 287.700 C 87.812 285.775,81.306 279.153,75.165 272.984 C 69.024 266.815,64.000 261.568,64.000 261.323 C 64.000 261.079,65.845 259.154,68.100 257.047 C 70.355 254.940,72.083 253.212,71.939 253.208 C 71.796 253.203,69.853 254.936,67.621 257.058 M144.180 253.575 C 143.971 253.781,143.260 254.230,142.600 254.573 C 141.940 254.915,141.670 255.195,142.000 255.196 C 142.549 255.196,145.284 253.247,144.780 253.214 C 144.659 253.206,144.389 253.369,144.180 253.575 M144.481 255.772 C 142.688 257.039,142.731 256.964,143.201 258.042 C 143.606 258.971,143.612 258.967,143.402 257.900 C 143.282 257.295,143.323 256.799,143.492 256.798 C 143.662 256.797,144.340 256.353,145.000 255.812 C 146.516 254.570,146.215 254.546,144.481 255.772 M164.400 256.442 C 161.260 258.735,160.931 259.250,163.922 257.190 C 166.066 255.714,167.206 254.748,166.724 254.818 C 166.656 254.828,165.610 255.559,164.400 256.442 M160.479 256.835 C 158.236 258.484,158.328 258.763,160.600 257.200 C 162.165 256.123,162.714 255.600,162.279 255.600 C 162.212 255.600,161.402 256.156,160.479 256.835 M193.599 257.700 C 193.010 258.504,192.913 258.784,193.345 258.433 C 194.001 257.900,194.993 256.400,194.689 256.400 C 194.613 256.400,194.122 256.985,193.599 257.700 M154.835 260.800 C 152.985 262.103,151.275 263.387,151.035 263.652 C 150.521 264.223,157.129 259.751,157.986 258.949 C 159.104 257.901,158.182 258.443,154.835 260.800 M141.728 261.600 C 141.728 263.030,141.801 263.615,141.889 262.900 C 141.978 262.185,141.978 261.015,141.889 260.300 C 141.801 259.585,141.728 260.170,141.728 261.600 M143.728 261.600 C 143.728 263.030,143.801 263.615,143.889 262.900 C 143.978 262.185,143.978 261.015,143.889 260.300 C 143.801 259.585,143.728 260.170,143.728 261.600 M157.620 261.231 C 155.010 263.141,154.580 263.566,156.200 262.634 C 157.440 261.922,160.354 259.616,160.000 259.629 C 159.890 259.632,158.819 260.353,157.620 261.231 M188.900 261.240 C 187.965 261.902,187.200 262.533,187.200 262.641 C 187.200 262.750,188.010 262.281,189.000 261.600 C 189.990 260.919,190.800 260.280,190.800 260.181 C 190.800 259.905,190.724 259.948,188.900 261.240 M182.700 265.632 C 181.435 266.529,180.400 267.351,180.400 267.457 C 180.400 267.564,181.480 266.894,182.800 265.968 C 184.900 264.494,185.478 264.000,185.100 264.000 C 185.045 264.000,183.965 264.734,182.700 265.632 M142.499 266.541 C 141.698 268.371,141.685 268.489,142.379 267.600 C 143.103 266.673,143.795 264.851,143.519 264.594 C 143.454 264.533,142.994 265.409,142.499 266.541 M151.800 265.435 L 150.600 266.466 151.900 265.606 C 152.615 265.133,153.200 264.668,153.200 264.573 C 153.200 264.273,153.031 264.378,151.800 265.435 M147.447 265.998 C 145.355 267.581,145.133 267.878,146.727 266.962 C 147.892 266.293,149.604 264.781,149.162 264.811 C 149.073 264.817,148.301 265.351,147.447 265.998 M54.400 269.800 C 52.761 271.450,51.510 272.800,51.620 272.800 C 51.730 272.800,53.161 271.450,54.800 269.800 C 56.439 268.150,57.690 266.800,57.580 266.800 C 57.470 266.800,56.039 268.150,54.400 269.800 M139.170 268.239 C 136.534 271.063,137.244 270.978,114.200 271.200 C 93.750 271.397,93.399 271.413,93.361 272.200 C 93.332 272.781,93.367 272.812,93.487 272.314 C 93.640 271.678,95.179 271.619,114.326 271.514 C 134.636 271.402,135.028 271.385,136.600 270.537 C 138.002 269.780,140.897 267.200,140.345 267.200 C 140.232 267.200,139.703 267.668,139.170 268.239 M177.006 269.630 C 175.469 270.729,174.029 271.834,173.806 272.084 C 173.330 272.618,178.724 268.938,179.586 268.142 C 180.696 267.115,179.793 267.636,177.006 269.630 M235.105 267.883 C 235.602 267.979,236.322 267.975,236.705 267.875 C 237.087 267.775,236.680 267.696,235.800 267.701 C 234.920 267.705,234.607 267.787,235.105 267.883 M145.100 270.032 C 142.058 272.190,142.136 272.480,145.200 270.400 C 147.247 269.010,147.948 268.400,147.500 268.400 C 147.445 268.400,146.365 269.134,145.100 270.032 M140.000 270.200 C 138.941 271.293,138.798 271.600,139.349 271.600 C 140.027 271.600,143.600 269.379,143.600 268.957 C 143.600 268.700,142.943 269.086,141.362 270.272 C 139.630 271.571,139.231 271.428,140.600 270.000 C 141.232 269.340,141.661 268.800,141.553 268.800 C 141.445 268.800,140.746 269.430,140.000 270.200 M245.000 269.166 C 246.874 270.034,251.191 271.508,251.012 271.219 C 250.806 270.885,246.887 269.404,245.200 269.022 C 244.351 268.830,244.321 268.852,245.000 269.166 M222.800 270.231 L 221.800 270.833 222.800 270.568 C 224.252 270.184,225.203 269.624,224.400 269.626 C 224.070 269.627,223.350 269.899,222.800 270.231 M117.400 273.200 L 93.800 273.410 117.276 273.505 C 132.599 273.567,140.839 273.461,141.000 273.200 C 141.136 272.980,141.192 272.843,141.124 272.895 C 141.056 272.948,130.380 273.085,117.400 273.200 M169.657 274.776 C 166.557 277.019,166.150 277.636,169.122 275.590 C 171.280 274.104,172.387 273.165,171.924 273.213 C 171.856 273.220,170.836 273.923,169.657 274.776 M214.785 274.829 L 213.400 276.058 214.900 274.981 C 216.226 274.030,216.657 273.600,216.285 273.600 C 216.222 273.600,215.547 274.153,214.785 274.829 M256.196 274.489 C 256.854 274.990,258.667 276.570,260.225 278.000 L 263.058 280.600 259.991 277.547 C 258.304 275.868,256.491 274.288,255.962 274.036 C 255.217 273.681,255.270 273.783,256.196 274.489 M74.400 275.400 C 75.146 276.170,75.847 276.800,75.957 276.800 C 76.067 276.800,75.546 276.170,74.800 275.400 C 74.054 274.630,73.353 274.000,73.243 274.000 C 73.133 274.000,73.654 274.630,74.400 275.400 M210.786 278.300 L 208.600 280.600 210.900 278.414 C 213.037 276.382,213.383 276.000,213.086 276.000 C 213.024 276.000,211.989 277.035,210.786 278.300 M280.305 277.483 C 280.802 277.579,281.522 277.575,281.905 277.475 C 282.287 277.375,281.880 277.296,281.000 277.301 C 280.120 277.305,279.807 277.387,280.305 277.483 M283.905 277.483 C 284.402 277.579,285.122 277.575,285.505 277.475 C 285.887 277.375,285.480 277.296,284.600 277.301 C 283.720 277.305,283.407 277.387,283.905 277.483 M79.000 280.000 C 80.083 281.100,81.060 282.000,81.170 282.000 C 81.280 282.000,80.483 281.100,79.400 280.000 C 78.317 278.900,77.340 278.000,77.230 278.000 C 77.120 278.000,77.917 278.900,79.000 280.000 M162.904 279.543 C 160.761 281.093,159.725 282.000,160.800 281.385 C 161.853 280.782,165.200 278.331,165.200 278.162 C 165.200 277.895,165.085 277.964,162.904 279.543 M272.500 279.212 C 271.565 279.627,270.800 280.047,270.800 280.145 C 270.800 280.330,274.872 278.856,275.167 278.565 C 275.583 278.153,274.041 278.527,272.500 279.212 M290.433 278.565 C 290.726 278.854,294.800 280.330,294.800 280.147 C 294.800 279.913,291.251 278.400,290.700 278.400 C 290.462 278.400,290.342 278.474,290.433 278.565 M207.059 282.500 C 205.908 284.025,203.197 288.902,203.206 289.433 C 203.209 289.635,203.945 288.450,204.841 286.800 C 205.737 285.150,206.914 283.215,207.456 282.500 C 207.997 281.785,208.351 281.200,208.241 281.200 C 208.131 281.200,207.599 281.785,207.059 282.500 M262.831 282.899 C 261.825 284.138,261.984 285.179,263.229 285.499 C 263.560 285.585,263.506 285.460,263.100 285.203 C 262.175 284.618,262.217 284.046,263.268 282.927 C 263.746 282.419,264.061 281.936,263.968 281.854 C 263.876 281.772,263.364 282.243,262.831 282.899 M265.400 283.839 C 264.173 284.934,264.088 285.077,265.036 284.452 C 266.152 283.716,267.520 282.391,267.149 282.406 C 267.067 282.409,266.280 283.054,265.400 283.839 M300.978 285.200 C 302.506 286.850,303.923 288.380,304.127 288.600 C 304.331 288.820,304.300 288.640,304.059 288.200 C 303.528 287.234,301.052 284.577,299.400 283.200 C 298.740 282.650,299.450 283.550,300.978 285.200 M43.200 284.200 C 43.946 284.970,44.647 285.600,44.757 285.600 C 44.867 285.600,44.346 284.970,43.600 284.200 C 42.854 283.430,42.153 282.800,42.043 282.800 C 41.933 282.800,42.454 283.430,43.200 284.200 M82.000 282.925 C 82.000 282.994,82.585 283.579,83.300 284.225 L 84.600 285.400 83.425 284.100 C 82.330 282.888,82.000 282.616,82.000 282.925 M156.500 284.040 C 155.565 284.702,154.800 285.333,154.800 285.441 C 154.800 285.550,155.610 285.081,156.600 284.400 C 157.590 283.719,158.400 283.080,158.400 282.981 C 158.400 282.705,158.324 282.748,156.500 284.040 M64.300 286.463 C 64.495 287.205,64.397 287.292,63.606 287.086 C 62.948 286.914,62.808 286.968,63.115 287.275 C 63.352 287.512,63.828 287.598,64.173 287.466 C 64.855 287.204,65.020 286.183,64.437 285.823 C 64.238 285.700,64.176 285.988,64.300 286.463 M149.877 288.624 C 148.160 289.821,146.916 290.800,147.114 290.800 C 147.528 290.800,153.200 286.876,153.200 286.590 C 153.200 286.306,153.233 286.286,149.877 288.624 M47.800 288.800 C 48.659 289.680,49.452 290.400,49.562 290.400 C 49.672 290.400,49.059 289.680,48.200 288.800 C 47.341 287.920,46.548 287.200,46.438 287.200 C 46.328 287.200,46.941 287.920,47.800 288.800 M202.012 292.656 C 201.561 294.116,201.097 296.051,200.982 296.956 C 200.866 297.860,201.211 296.980,201.748 295.000 C 202.285 293.020,202.850 291.085,203.005 290.700 C 203.159 290.315,203.184 290.000,203.059 290.000 C 202.934 290.000,202.463 291.195,202.012 292.656 M306.625 293.584 C 307.161 294.904,307.614 296.303,307.632 296.692 C 307.652 297.146,307.738 297.213,307.872 296.878 C 308.098 296.316,306.506 291.713,305.973 291.383 C 305.795 291.273,306.088 292.263,306.625 293.584 M50.800 291.725 C 50.800 291.794,51.385 292.379,52.100 293.025 L 53.400 294.200 52.225 292.900 C 51.130 291.688,50.800 291.416,50.800 291.725 M82.421 302.179 C 80.351 304.258,78.464 305.849,78.228 305.715 C 77.993 305.581,77.933 305.619,78.097 305.799 C 78.260 305.979,78.181 306.413,77.922 306.763 C 77.663 307.113,79.464 305.423,81.925 303.007 C 84.386 300.591,86.400 298.566,86.400 298.507 C 86.400 298.222,85.921 298.665,82.421 302.179 M200.531 301.800 C 200.533 303.340,200.605 303.921,200.692 303.091 C 200.779 302.261,200.777 301.001,200.689 300.291 C 200.600 299.581,200.529 300.260,200.531 301.800 M304.902 301.200 C 305.028 301.667,306.031 301.853,309.432 302.040 C 311.834 302.172,314.430 302.398,315.200 302.542 C 316.462 302.778,316.502 302.760,315.600 302.360 C 315.050 302.116,312.530 301.820,310.000 301.703 C 307.339 301.579,305.261 301.302,305.070 301.045 C 304.855 300.756,304.796 300.811,304.902 301.200 M195.000 302.622 C 193.461 303.161,193.772 303.146,196.847 302.531 C 197.872 302.326,198.000 302.411,198.000 303.301 C 198.000 303.852,198.315 304.540,198.700 304.832 C 199.296 305.282,199.325 305.278,198.900 304.801 C 198.625 304.492,198.400 303.736,198.400 303.120 C 198.400 301.816,197.625 301.702,195.000 302.622 M187.730 306.136 C 185.406 307.847,182.731 310.638,181.918 312.200 C 181.417 313.163,181.756 312.810,183.789 310.248 C 184.641 309.175,186.432 307.493,187.769 306.510 C 190.491 304.510,190.624 304.400,190.311 304.400 C 190.188 304.400,189.027 305.181,187.730 306.136 M321.600 304.894 C 321.710 305.013,322.700 305.787,323.800 306.612 C 324.978 307.495,325.440 307.719,324.924 307.156 C 324.442 306.630,323.452 305.857,322.724 305.438 C 321.996 305.019,321.490 304.774,321.600 304.894 M328.838 311.845 C 331.193 315.382,331.253 315.448,330.155 313.309 C 329.565 312.159,328.721 310.899,328.279 310.509 C 327.807 310.092,328.038 310.644,328.838 311.845 M180.254 315.100 C 179.432 316.695,178.395 320.379,178.432 321.573 C 178.449 322.138,178.706 321.487,179.001 320.127 C 179.297 318.767,179.902 316.832,180.347 315.827 C 181.228 313.834,181.164 313.333,180.254 315.100 M332.909 322.400 C 332.909 323.390,332.987 323.795,333.082 323.300 C 333.178 322.805,333.178 321.995,333.082 321.500 C 332.987 321.005,332.909 321.410,332.909 322.400 M178.120 324.800 C 178.120 326.010,178.195 326.505,178.287 325.900 C 178.378 325.295,178.378 324.305,178.287 323.700 C 178.195 323.095,178.120 323.590,178.120 324.800 M332.909 327.200 C 332.909 328.190,332.987 328.595,333.082 328.100 C 333.178 327.605,333.178 326.795,333.082 326.300 C 332.987 325.805,332.909 326.210,332.909 327.200 M178.582 328.844 C 178.769 330.681,180.328 335.405,180.644 335.089 C 180.736 334.998,180.518 334.224,180.161 333.369 C 179.804 332.514,179.261 330.732,178.954 329.408 C 178.450 327.233,178.414 327.179,178.582 328.844 M329.823 336.522 C 329.188 337.665,327.393 339.853,325.834 341.385 C 324.275 342.916,323.569 343.770,324.265 343.282 C 326.647 341.612,331.719 335.185,331.124 334.591 C 331.043 334.510,330.458 335.379,329.823 336.522 M182.666 338.601 C 183.810 340.222,187.587 343.761,188.811 344.360 C 189.583 344.738,189.537 344.650,188.600 343.959 C 187.940 343.472,186.144 341.797,184.609 340.237 C 183.073 338.676,182.199 337.941,182.666 338.601 M193.400 346.614 C 194.060 346.917,194.870 347.158,195.200 347.152 C 195.530 347.145,195.170 346.897,194.400 346.600 C 192.574 345.897,191.855 345.907,193.400 346.614 M315.200 347.038 C 313.375 347.494,303.011 347.572,254.476 347.494 C 222.287 347.442,196.367 347.517,196.876 347.660 C 197.384 347.803,223.720 347.935,255.400 347.954 C 313.304 347.988,316.615 347.918,317.885 346.648 C 318.209 346.325,317.844 346.378,315.200 347.038 " stroke="none" fill="#a6a8a4" fill-rule="evenodd"></path></g></svg>