<svg id="svg" version="1.1" xmlns="http://www.w3.org/2000/svg" xmlns:xlink="http://www.w3.org/1999/xlink" width="400" height="211.47826086956522" viewBox="0, 0, 400,211.47826086956522"><g id="svgg"><path id="path0" d="M241.460 0.232 C 236.930 0.601,228.276 1.952,228.027 2.328 C 227.969 2.417,227.351 2.607,226.653 2.750 C 224.750 3.142,220.252 4.399,219.493 4.751 C 219.126 4.921,217.595 5.491,216.090 6.018 C 214.585 6.545,213.300 7.058,213.234 7.159 C 213.169 7.259,212.591 7.535,211.951 7.773 C 210.310 8.384,208.417 9.236,208.098 9.509 C 207.949 9.637,206.827 10.223,205.606 10.812 C 204.385 11.401,203.338 11.952,203.279 12.035 C 203.221 12.119,202.411 12.600,201.481 13.105 C 200.550 13.609,199.741 14.090,199.683 14.172 C 199.625 14.255,198.768 14.822,197.779 15.432 C 196.790 16.043,195.930 16.624,195.868 16.724 C 195.806 16.824,195.187 17.284,194.493 17.746 C 190.512 20.396,184.534 25.661,180.657 29.931 C 179.918 30.746,178.851 31.910,178.287 32.518 C 177.722 33.127,177.260 33.698,177.258 33.788 C 177.257 33.877,176.900 34.336,176.465 34.806 C 176.030 35.277,175.409 36.014,175.084 36.443 L 174.494 37.223 173.649 36.690 C 173.184 36.397,172.622 35.975,172.400 35.752 C 172.177 35.530,171.681 35.186,171.296 34.989 C 170.912 34.791,170.055 34.262,169.393 33.814 C 168.730 33.365,167.493 32.653,166.643 32.231 C 165.793 31.809,164.955 31.346,164.781 31.201 C 164.606 31.056,163.654 30.588,162.665 30.159 C 161.676 29.731,160.296 29.111,159.598 28.781 C 158.361 28.197,155.158 27.068,153.889 26.768 C 153.541 26.686,153.208 26.546,153.149 26.456 C 152.995 26.224,149.096 25.261,145.743 24.627 C 140.191 23.577,139.333 23.482,134.109 23.339 C 129.435 23.211,124.224 23.464,122.063 23.925 C 121.533 24.038,120.053 24.319,118.773 24.550 C 115.574 25.128,111.052 26.254,111.052 26.473 C 111.052 26.572,110.927 26.653,110.774 26.653 C 110.291 26.653,105.916 28.122,104.812 28.655 C 104.231 28.936,102.946 29.512,101.957 29.934 C 100.968 30.356,99.924 30.853,99.637 31.039 C 99.350 31.224,98.306 31.803,97.316 32.325 C 96.326 32.847,95.384 33.406,95.223 33.568 C 95.061 33.729,94.488 34.089,93.948 34.368 C 92.944 34.885,89.726 37.137,88.447 38.215 C 88.055 38.545,87.246 39.196,86.649 39.662 C 85.576 40.497,82.569 43.268,81.334 44.557 C 78.938 47.059,78.265 47.803,78.263 47.953 C 78.262 48.046,77.810 48.612,77.259 49.211 C 76.707 49.810,75.923 50.762,75.517 51.326 C 75.110 51.891,74.723 52.401,74.655 52.459 C 74.395 52.682,72.766 55.195,72.766 55.372 C 72.766 55.474,72.552 55.762,72.290 56.011 C 72.028 56.260,71.386 57.295,70.862 58.311 C 70.338 59.327,69.757 60.333,69.570 60.547 C 69.383 60.761,68.866 61.765,68.422 62.779 C 67.978 63.792,67.406 65.003,67.151 65.468 C 66.896 65.933,66.323 67.361,65.878 68.641 C 65.434 69.921,65.008 71.015,64.933 71.074 C 64.748 71.217,63.775 74.739,63.240 77.208 C 63.000 78.313,62.718 79.375,62.613 79.568 C 62.508 79.761,62.258 81.015,62.057 82.355 L 61.693 84.791 59.879 84.916 C 55.299 85.231,49.096 86.092,48.553 86.487 C 48.433 86.574,47.620 86.818,46.748 87.028 C 44.143 87.656,41.692 88.426,40.646 88.946 C 40.104 89.214,39.186 89.591,38.604 89.783 C 36.335 90.530,30.472 93.722,27.624 95.760 C 27.169 96.085,26.607 96.462,26.375 96.598 C 24.228 97.856,17.633 103.891,14.972 107.033 C 13.393 108.897,12.269 110.358,12.263 110.554 C 12.260 110.654,11.988 110.999,11.659 111.321 C 11.331 111.643,10.845 112.329,10.579 112.845 C 10.314 113.361,9.920 113.972,9.705 114.203 C 9.299 114.640,8.809 115.461,7.871 117.280 C 7.568 117.869,7.253 118.398,7.172 118.456 C 7.006 118.575,5.401 121.999,5.170 122.725 C 5.088 122.984,4.913 123.304,4.780 123.436 C 4.648 123.568,4.081 125.096,3.519 126.830 C 2.958 128.565,2.372 130.270,2.218 130.619 C 1.855 131.442,0.976 135.642,0.492 138.868 C -0.059 142.534,-0.059 154.029,0.492 157.694 C 0.975 160.915,1.855 165.119,2.217 165.944 C 2.371 166.293,2.853 167.721,3.290 169.117 C 4.058 171.577,4.492 172.621,6.324 176.415 C 7.297 178.428,8.801 181.168,9.355 181.937 C 9.556 182.215,10.119 183.062,10.606 183.818 C 11.094 184.574,11.705 185.431,11.965 185.722 C 12.224 186.013,12.690 186.631,12.999 187.097 C 14.535 189.410,22.118 196.993,24.432 198.529 C 24.897 198.838,25.516 199.304,25.806 199.564 C 26.097 199.823,26.954 200.435,27.710 200.922 C 28.466 201.409,29.313 201.972,29.591 202.173 C 30.753 203.011,33.835 204.624,38.075 206.614 C 39.641 207.349,44.407 208.990,44.974 208.990 C 45.135 208.990,45.267 209.069,45.267 209.166 C 45.267 209.543,51.240 210.719,55.632 211.207 C 59.964 211.688,340.036 211.688,344.368 211.207 C 348.599 210.737,353.048 209.895,354.416 209.305 C 354.765 209.155,356.192 208.675,357.589 208.239 C 359.978 207.494,361.285 206.947,365.098 205.101 C 366.958 204.199,369.687 202.694,370.409 202.171 C 370.687 201.969,371.676 201.309,372.607 200.704 C 373.538 200.100,374.395 199.488,374.511 199.345 C 374.627 199.202,375.103 198.833,375.568 198.526 C 377.870 197.006,385.478 189.399,386.998 187.097 C 387.305 186.631,387.672 186.155,387.814 186.039 C 388.603 185.391,392.082 179.704,393.572 176.626 C 395.419 172.814,395.965 171.506,396.711 169.117 C 397.147 167.721,397.629 166.293,397.783 165.944 C 398.145 165.121,399.024 160.922,399.509 157.694 C 400.101 153.763,400.053 142.299,399.428 138.337 C 398.861 134.740,397.904 130.429,397.653 130.337 C 397.548 130.298,397.462 130.147,397.462 130.002 C 397.462 129.552,395.588 123.927,395.280 123.452 C 395.120 123.205,394.580 122.069,394.081 120.927 C 393.581 119.785,393.067 118.738,392.937 118.600 C 392.808 118.463,392.274 117.510,391.750 116.484 C 391.227 115.458,390.630 114.437,390.424 114.215 C 390.219 113.993,389.727 113.262,389.331 112.591 C 388.936 111.919,388.438 111.179,388.224 110.946 C 388.011 110.714,387.414 109.952,386.898 109.254 C 383.901 105.205,375.532 97.247,373.430 96.448 C 373.152 96.342,372.924 96.176,372.924 96.079 C 372.924 95.982,372.139 95.437,371.179 94.868 C 370.219 94.299,369.322 93.723,369.184 93.588 C 369.046 93.453,368.094 92.930,367.069 92.426 C 366.043 91.922,365.148 91.429,365.081 91.331 C 365.013 91.234,363.776 90.677,362.331 90.095 C 360.886 89.512,359.418 88.904,359.069 88.744 C 358.305 88.393,353.665 87.034,352.498 86.819 C 352.040 86.734,351.618 86.593,351.559 86.504 C 351.447 86.334,345.317 85.246,344.470 85.246 C 343.917 85.246,343.848 85.030,343.620 82.602 C 343.401 80.256,342.486 74.634,342.282 74.376 C 342.180 74.246,342.031 73.760,341.951 73.295 C 341.675 71.695,340.135 65.737,339.825 65.074 C 339.654 64.709,339.122 63.221,338.643 61.766 C 338.163 60.312,337.642 58.919,337.485 58.671 C 337.328 58.423,336.868 57.376,336.463 56.345 C 335.739 54.501,332.863 48.670,332.567 48.448 C 332.485 48.385,332.036 47.596,331.571 46.693 C 331.105 45.791,330.501 44.791,330.228 44.472 C 329.955 44.153,329.538 43.511,329.302 43.046 C 329.066 42.581,328.266 41.370,327.525 40.356 C 326.783 39.343,326.177 38.431,326.177 38.331 C 326.177 38.231,325.929 37.918,325.625 37.636 C 325.322 37.354,324.783 36.695,324.426 36.171 C 324.070 35.648,323.408 34.791,322.955 34.268 C 322.501 33.744,321.637 32.747,321.033 32.052 C 319.136 29.865,315.580 26.265,313.273 24.196 C 309.765 21.049,309.202 20.570,308.302 19.972 C 307.837 19.662,307.424 19.325,307.385 19.222 C 307.346 19.119,306.599 18.554,305.725 17.967 C 304.851 17.380,303.962 16.738,303.749 16.541 C 303.537 16.343,302.808 15.850,302.131 15.444 C 301.453 15.038,300.487 14.396,299.984 14.016 C 299.480 13.637,298.976 13.326,298.863 13.326 C 298.750 13.326,298.115 12.978,297.451 12.553 C 295.017 10.992,287.657 7.403,286.892 7.403 C 286.743 7.403,286.621 7.319,286.621 7.215 C 286.621 7.036,282.099 5.283,281.647 5.286 C 281.529 5.287,281.100 5.113,280.695 4.900 C 279.906 4.484,276.381 3.455,273.612 2.831 C 272.681 2.622,271.872 2.384,271.814 2.304 C 271.536 1.919,263.162 0.640,258.170 0.218 C 255.231 -0.029,244.561 -0.021,241.460 0.232 M259.628 6.018 C 298.970 10.788,330.610 40.233,337.149 78.160 C 338.194 84.223,338.287 85.169,338.419 91.169 C 338.580 98.520,338.699 98.841,341.258 98.841 C 343.259 98.841,343.944 97.546,343.945 93.765 L 343.945 90.968 344.527 91.068 C 344.847 91.124,346.013 91.318,347.118 91.501 C 366.068 94.634,383.002 108.407,390.272 126.600 C 404.366 161.873,381.558 200.702,343.839 205.646 C 340.006 206.148,58.630 206.045,55.420 205.540 C 7.529 198.006,-11.424 140.139,23.113 106.901 C 35.085 95.379,47.049 90.903,66.775 90.566 C 74.486 90.435,74.878 90.409,75.448 89.992 C 77.411 88.555,76.876 85.777,74.531 85.233 C 74.084 85.129,72.350 85.042,70.679 85.039 L 67.640 85.034 67.789 83.818 C 68.505 77.972,71.295 69.757,74.741 63.353 C 92.958 29.489,136.469 18.781,168.588 40.257 C 170.610 41.609,174.085 44.276,176.488 46.320 C 180.025 49.329,180.689 49.610,182.297 48.778 C 184.528 47.624,184.055 45.569,180.972 43.027 C 178.588 41.061,178.655 41.350,180.158 39.473 C 199.524 15.306,230.092 2.437,259.628 6.018 " stroke="none" fill="#3c3c4c" fill-rule="evenodd"></path><path id="path1" d="M245.584 5.836 C 245.061 5.881,243.395 6.018,241.883 6.141 C 221.466 7.789,201.058 17.513,186.568 32.498 C 183.634 35.532,179.992 39.778,179.302 40.969 C 179.213 41.122,179.964 41.913,181.244 43.015 C 184.029 45.413,184.431 46.579,183.082 48.347 C 181.746 50.099,178.662 49.191,176.203 46.322 C 175.966 46.046,171.759 42.731,170.280 41.655 C 150.016 26.920,122.381 25.251,100.582 37.447 C 83.787 46.843,72.260 62.629,68.418 81.495 C 67.662 85.204,67.353 84.823,71.112 84.823 C 75.559 84.823,76.786 85.471,76.784 87.817 C 76.782 90.559,76.339 90.683,66.103 90.807 C 58.931 90.894,57.223 90.976,54.892 91.346 C 15.325 97.629,-6.123 140.138,12.512 175.343 C 21.158 191.678,36.993 202.638,55.843 205.333 C 59.955 205.921,340.001 205.922,344.221 205.334 C 362.307 202.814,377.911 192.328,386.733 176.763 C 403.913 146.453,390.563 107.976,358.329 94.900 C 354.711 93.432,348.610 91.754,345.186 91.285 L 344.205 91.150 344.122 94.068 C 344.012 97.955,343.392 98.995,341.187 98.995 C 338.652 98.995,338.234 98.053,338.234 92.337 C 338.234 62.382,321.201 33.360,294.447 17.729 C 291.929 16.258,288.583 14.512,286.984 13.834 C 286.311 13.548,285.129 13.026,284.357 12.672 C 274.212 8.026,256.439 4.892,245.584 5.836 " stroke="none" fill="#f3f3e3" fill-rule="evenodd"></path><path id="path2" d="M244.474 5.864 C 244.852 5.911,245.471 5.911,245.849 5.864 C 246.227 5.817,245.918 5.779,245.161 5.779 C 244.405 5.779,244.096 5.817,244.474 5.864 M253.993 5.864 C 254.371 5.911,254.989 5.911,255.368 5.864 C 255.746 5.817,255.436 5.779,254.680 5.779 C 253.924 5.779,253.614 5.817,253.993 5.864 M242.041 6.069 C 242.245 6.122,242.578 6.122,242.782 6.069 C 242.985 6.015,242.819 5.972,242.411 5.972 C 242.004 5.972,241.838 6.015,242.041 6.069 M257.271 6.069 C 257.475 6.122,257.808 6.122,258.012 6.069 C 258.215 6.015,258.049 5.972,257.641 5.972 C 257.234 5.972,257.068 6.015,257.271 6.069 M288.948 14.690 C 288.948 14.749,289.233 14.944,289.582 15.124 C 289.931 15.305,290.217 15.405,290.217 15.347 C 290.217 15.288,289.931 15.093,289.582 14.913 C 289.233 14.732,288.948 14.632,288.948 14.690 M128.552 29.344 C 128.927 29.390,129.593 29.391,130.032 29.345 C 130.471 29.299,130.164 29.261,129.350 29.260 C 128.535 29.259,128.176 29.297,128.552 29.344 M133.639 29.346 C 134.136 29.391,134.898 29.390,135.331 29.345 C 135.764 29.299,135.357 29.263,134.426 29.263 C 133.496 29.264,133.141 29.301,133.639 29.346 M125.809 29.552 C 126.072 29.603,126.453 29.601,126.655 29.548 C 126.857 29.495,126.642 29.453,126.177 29.456 C 125.711 29.458,125.546 29.501,125.809 29.552 M137.655 29.552 C 137.918 29.603,138.298 29.601,138.501 29.548 C 138.703 29.495,138.488 29.453,138.022 29.456 C 137.557 29.458,137.391 29.501,137.655 29.552 M312.216 31.412 C 313.316 32.517,314.265 33.421,314.323 33.421 C 314.381 33.421,313.528 32.517,312.427 31.412 C 311.327 30.307,310.379 29.402,310.320 29.402 C 310.262 29.402,311.115 30.307,312.216 31.412 M123.797 29.760 C 124.001 29.813,124.334 29.813,124.537 29.760 C 124.741 29.707,124.574 29.663,124.167 29.663 C 123.760 29.663,123.593 29.707,123.797 29.760 M139.662 29.760 C 139.865 29.813,140.198 29.813,140.402 29.760 C 140.605 29.707,140.439 29.663,140.032 29.663 C 139.625 29.663,139.458 29.707,139.662 29.760 M186.880 31.994 L 185.405 33.527 186.938 32.052 C 187.782 31.241,188.472 30.551,188.472 30.519 C 188.472 30.363,188.250 30.569,186.880 31.994 M183.911 35.167 L 183.289 35.854 183.977 35.233 C 184.355 34.891,184.664 34.582,184.664 34.545 C 184.664 34.382,184.490 34.526,183.911 35.167 M179.078 41.006 C 179.016 41.105,179.225 41.415,179.541 41.693 L 180.116 42.200 179.638 41.655 C 179.376 41.356,179.225 41.047,179.304 40.968 C 179.382 40.889,179.389 40.825,179.318 40.825 C 179.247 40.825,179.139 40.906,179.078 41.006 M88.196 46.272 L 87.467 47.065 88.260 46.336 C 88.696 45.935,89.053 45.578,89.053 45.543 C 89.053 45.381,88.874 45.533,88.196 46.272 M183.660 46.430 C 183.662 46.896,183.706 47.061,183.756 46.798 C 183.807 46.535,183.805 46.154,183.752 45.952 C 183.699 45.750,183.658 45.965,183.660 46.430 M67.757 84.506 C 67.798 84.908,67.959 84.929,71.076 84.937 L 74.352 84.945 71.141 84.878 C 68.318 84.820,67.916 84.768,67.821 84.447 C 67.740 84.172,67.724 84.187,67.757 84.506 M59.069 90.891 C 59.273 90.945,59.606 90.945,59.810 90.891 C 60.013 90.838,59.847 90.795,59.439 90.795 C 59.032 90.795,58.866 90.838,59.069 90.891 M344.027 93.707 C 344.027 95.161,344.060 95.756,344.102 95.029 C 344.143 94.302,344.143 93.112,344.102 92.385 C 344.060 91.658,344.027 92.253,344.027 93.707 M376.415 106.610 C 377.105 107.308,377.718 107.879,377.776 107.879 C 377.834 107.879,377.317 107.308,376.626 106.610 C 375.935 105.912,375.323 105.341,375.264 105.341 C 375.206 105.341,375.724 105.912,376.415 106.610 M20.188 110.048 L 19.566 110.735 20.254 110.114 C 20.895 109.535,21.039 109.360,20.875 109.360 C 20.839 109.360,20.529 109.669,20.188 110.048 M394.138 144.157 C 394.139 144.738,394.180 144.951,394.229 144.630 C 394.278 144.308,394.276 143.832,394.226 143.572 C 394.176 143.312,394.136 143.575,394.138 144.157 M5.772 144.368 C 5.773 144.950,5.814 145.163,5.863 144.841 C 5.912 144.520,5.910 144.044,5.860 143.783 C 5.810 143.523,5.770 143.786,5.772 144.368 M394.349 148.599 C 394.351 149.180,394.392 149.393,394.441 149.072 C 394.489 148.750,394.488 148.274,394.438 148.014 C 394.387 147.754,394.348 148.017,394.349 148.599 M5.772 152.195 C 5.773 152.776,5.814 152.989,5.863 152.668 C 5.912 152.346,5.910 151.870,5.860 151.610 C 5.810 151.350,5.770 151.613,5.772 152.195 M394.138 152.406 C 394.139 152.988,394.180 153.201,394.229 152.879 C 394.278 152.558,394.276 152.082,394.226 151.822 C 394.176 151.561,394.136 151.824,394.138 152.406 M377.359 189.053 L 376.203 190.270 377.419 189.114 C 378.549 188.039,378.733 187.837,378.576 187.837 C 378.542 187.837,377.995 188.384,377.359 189.053 M22.316 188.895 C 22.771 189.360,23.190 189.741,23.248 189.741 C 23.306 189.741,22.982 189.360,22.528 188.895 C 22.073 188.429,21.654 188.049,21.596 188.049 C 21.538 188.049,21.862 188.429,22.316 188.895 M58.649 205.757 C 58.971 205.806,59.447 205.805,59.707 205.754 C 59.967 205.704,59.704 205.664,59.122 205.666 C 58.540 205.668,58.328 205.709,58.649 205.757 M340.405 205.757 C 340.726 205.806,341.202 205.805,341.462 205.754 C 341.723 205.704,341.460 205.664,340.878 205.666 C 340.296 205.668,340.083 205.709,340.405 205.757 M131.200 205.976 C 169.098 206.005,231.113 206.005,269.011 205.976 C 306.909 205.946,275.902 205.922,200.106 205.922 C 124.310 205.922,93.302 205.946,131.200 205.976 " stroke="none" fill="#acaea9" fill-rule="evenodd"></path><path id="path3" d="M249.233 5.655 C 249.786 5.699,250.690 5.699,251.243 5.655 C 251.795 5.612,251.343 5.576,250.238 5.576 C 249.133 5.576,248.681 5.612,249.233 5.655 M338.322 92.544 C 338.322 94.754,338.353 95.630,338.392 94.489 C 338.430 93.349,338.430 91.540,338.391 90.470 C 338.353 89.400,338.322 90.333,338.322 92.544 M67.330 90.692 C 68.587 90.730,70.586 90.729,71.772 90.692 C 72.959 90.654,71.930 90.623,69.487 90.624 C 67.044 90.624,66.073 90.655,67.330 90.692 M394.338 147.012 C 394.338 147.419,394.381 147.586,394.435 147.382 C 394.488 147.179,394.488 146.846,394.435 146.642 C 394.381 146.438,394.338 146.605,394.338 147.012 M5.574 148.281 C 5.574 149.270,5.610 149.675,5.655 149.180 C 5.699 148.686,5.699 147.877,5.655 147.382 C 5.610 146.888,5.574 147.292,5.574 148.281 M61.396 205.963 C 61.600 206.016,61.933 206.016,62.136 205.963 C 62.340 205.910,62.173 205.866,61.766 205.866 C 61.359 205.866,61.192 205.910,61.396 205.963 " stroke="none" fill="#949494" fill-rule="evenodd"></path><path id="path4" d="M246.161 5.652 C 246.537 5.699,247.203 5.700,247.642 5.654 C 248.081 5.608,247.774 5.570,246.959 5.569 C 246.145 5.568,245.786 5.606,246.161 5.652 M252.618 5.651 C 252.938 5.700,253.461 5.700,253.781 5.651 C 254.101 5.603,253.839 5.563,253.199 5.563 C 252.559 5.563,252.298 5.603,252.618 5.651 M242.464 5.857 C 242.668 5.910,243.001 5.910,243.205 5.857 C 243.408 5.804,243.242 5.760,242.834 5.760 C 242.427 5.760,242.261 5.804,242.464 5.857 M256.637 5.857 C 256.840 5.910,257.173 5.910,257.377 5.857 C 257.581 5.804,257.414 5.760,257.007 5.760 C 256.600 5.760,256.433 5.804,256.637 5.857 M258.752 6.069 C 258.956 6.122,259.289 6.122,259.492 6.069 C 259.696 6.015,259.529 5.972,259.122 5.972 C 258.715 5.972,258.548 6.015,258.752 6.069 M184.441 34.426 L 183.712 35.219 184.506 34.490 C 185.244 33.812,185.396 33.633,185.235 33.633 C 185.199 33.633,184.842 33.990,184.441 34.426 M87.142 47.118 L 85.986 48.334 87.203 47.178 C 88.333 46.104,88.516 45.902,88.359 45.902 C 88.326 45.902,87.778 46.449,87.142 47.118 M338.297 87.573 C 338.297 88.213,338.337 88.474,338.385 88.154 C 338.434 87.834,338.434 87.311,338.385 86.991 C 338.337 86.671,338.297 86.933,338.297 87.573 M61.608 90.686 C 61.928 90.734,62.451 90.734,62.771 90.686 C 63.091 90.637,62.829 90.597,62.189 90.597 C 61.549 90.597,61.288 90.637,61.608 90.686 M64.146 90.680 C 64.350 90.733,64.683 90.733,64.886 90.680 C 65.090 90.627,64.923 90.583,64.516 90.583 C 64.109 90.583,63.942 90.627,64.146 90.680 M377.049 107.033 C 377.504 107.499,377.923 107.879,377.981 107.879 C 378.039 107.879,377.715 107.499,377.261 107.033 C 376.806 106.568,376.387 106.187,376.329 106.187 C 376.271 106.187,376.595 106.568,377.049 107.033 M20.718 109.307 L 19.989 110.100 20.783 109.372 C 21.521 108.693,21.673 108.514,21.512 108.514 C 21.476 108.514,21.119 108.871,20.718 109.307 M5.560 145.637 C 5.562 146.219,5.603 146.432,5.652 146.110 C 5.700 145.789,5.699 145.313,5.649 145.053 C 5.598 144.792,5.559 145.056,5.560 145.637 M394.346 145.531 C 394.346 146.055,394.388 146.269,394.438 146.007 C 394.488 145.746,394.488 145.317,394.438 145.056 C 394.388 144.794,394.346 145.008,394.346 145.531 M5.560 150.925 C 5.562 151.507,5.603 151.720,5.652 151.398 C 5.700 151.077,5.699 150.601,5.649 150.341 C 5.598 150.081,5.559 150.344,5.560 150.925 M394.342 151.137 C 394.344 151.602,394.388 151.768,394.438 151.505 C 394.489 151.242,394.487 150.861,394.434 150.659 C 394.381 150.456,394.340 150.672,394.342 151.137 M20.518 187.097 C 20.913 187.504,21.283 187.837,21.342 187.837 C 21.400 187.837,21.124 187.504,20.730 187.097 C 20.335 186.690,19.965 186.356,19.906 186.356 C 19.848 186.356,20.124 186.690,20.518 187.097 M24.326 190.904 C 24.720 191.311,25.091 191.645,25.149 191.645 C 25.207 191.645,24.932 191.311,24.537 190.904 C 24.143 190.497,23.772 190.164,23.714 190.164 C 23.656 190.164,23.931 190.497,24.326 190.904 M60.024 205.967 C 60.287 206.017,60.667 206.015,60.870 205.962 C 61.072 205.909,60.857 205.868,60.391 205.870 C 59.926 205.873,59.760 205.916,60.024 205.967 M339.241 205.967 C 339.504 206.017,339.885 206.015,340.087 205.962 C 340.289 205.909,340.074 205.868,339.609 205.870 C 339.143 205.873,338.978 205.916,339.241 205.967 " stroke="none" fill="#8c9494" fill-rule="evenodd"></path></g></svg>