<svg id="svg" version="1.1" xmlns="http://www.w3.org/2000/svg" xmlns:xlink="http://www.w3.org/1999/xlink" width="400" height="376.47058823529414" viewBox="0, 0, 400,376.47058823529414"><g id="svgg"><path id="path0" d="M91.149 0.733 C 89.960 1.364,88.136 3.339,88.136 3.995 C 88.136 4.137,87.518 5.008,86.763 5.929 C 86.008 6.850,84.663 8.666,83.774 9.965 C 81.754 12.915,78.684 17.125,77.375 18.741 C 76.828 19.416,75.722 20.941,74.918 22.131 C 74.114 23.320,72.689 25.311,71.751 26.554 C 70.814 27.797,69.897 29.160,69.714 29.582 C 69.531 30.005,69.082 30.598,68.716 30.901 C 68.351 31.203,67.340 32.552,66.471 33.898 C 65.602 35.245,64.528 36.669,64.084 37.064 C 63.640 37.459,63.277 37.935,63.277 38.122 C 63.277 38.309,62.285 39.766,61.072 41.359 C 59.860 42.953,58.245 45.188,57.484 46.328 C 56.724 47.467,55.555 49.111,54.887 49.980 C 52.931 52.525,51.160 54.959,49.241 57.740 C 48.253 59.170,46.855 61.061,46.133 61.941 C 45.412 62.822,44.821 63.676,44.821 63.838 C 44.821 64.001,44.138 65.000,43.302 66.059 C 42.467 67.118,40.272 70.104,38.425 72.693 C 36.577 75.282,34.797 77.704,34.469 78.073 C 34.141 78.443,33.280 79.672,32.555 80.804 C 31.831 81.937,30.774 83.414,30.206 84.087 C 29.637 84.760,28.420 86.412,27.500 87.759 C 26.581 89.105,25.583 90.458,25.283 90.766 C 24.983 91.073,24.144 92.259,23.418 93.402 C 22.693 94.545,21.618 95.979,21.031 96.588 C 20.443 97.197,19.962 97.841,19.962 98.020 C 19.962 98.198,18.804 99.903,17.389 101.809 C 15.974 103.714,14.499 105.782,14.112 106.403 C 13.726 107.024,13.091 107.849,12.701 108.234 C 12.312 108.620,11.243 110.061,10.325 111.436 C 8.545 114.104,5.104 118.887,3.685 120.664 C -1.149 126.723,-1.152 129.526,3.672 135.299 C 7.355 139.707,13.741 147.692,14.999 149.463 C 15.688 150.431,16.810 151.817,17.493 152.542 C 18.176 153.267,18.888 154.153,19.076 154.511 C 19.264 154.868,20.050 155.885,20.823 156.771 C 21.596 157.656,23.838 160.414,25.805 162.900 C 27.771 165.386,29.964 168.098,30.678 168.927 C 31.392 169.755,32.430 171.108,32.985 171.934 C 33.541 172.759,34.217 173.606,34.489 173.817 C 34.760 174.027,35.747 175.217,36.681 176.460 C 37.615 177.702,40.429 181.262,42.935 184.369 C 45.441 187.476,48.336 191.150,49.368 192.533 C 50.399 193.916,51.381 195.102,51.549 195.170 C 51.717 195.237,52.386 196.030,53.034 196.933 C 53.683 197.835,54.811 199.276,55.541 200.134 C 56.271 200.993,58.394 203.644,60.260 206.026 C 62.126 208.409,64.258 211.055,65.000 211.906 C 65.741 212.758,66.650 213.945,67.018 214.543 C 67.387 215.141,68.076 215.970,68.550 216.384 C 69.024 216.798,69.706 217.615,70.066 218.199 C 70.425 218.783,71.321 219.969,72.056 220.836 C 72.791 221.702,74.934 224.360,76.818 226.742 C 78.702 229.124,80.869 231.811,81.633 232.713 C 82.398 233.615,83.604 235.182,84.315 236.197 C 85.025 237.211,85.734 238.041,85.890 238.041 C 86.046 238.041,86.696 238.847,87.333 239.831 C 87.971 240.815,88.963 242.130,89.538 242.755 C 90.113 243.379,91.427 244.990,92.458 246.333 C 93.488 247.677,94.563 249.015,94.845 249.307 C 95.127 249.599,96.063 250.785,96.924 251.943 C 97.785 253.101,98.647 254.162,98.841 254.301 C 99.194 254.554,101.519 257.501,105.105 262.241 C 106.163 263.639,107.190 264.783,107.387 264.783 C 107.584 264.783,107.855 265.080,107.989 265.443 C 108.234 266.106,113.657 273.033,116.222 275.959 C 116.979 276.823,117.896 278.009,118.258 278.595 C 118.621 279.181,119.402 280.169,119.993 280.791 C 120.585 281.412,121.583 282.623,122.211 283.481 C 123.583 285.355,127.803 290.660,128.761 291.714 C 129.138 292.128,130.274 293.569,131.286 294.915 C 132.299 296.262,133.259 297.420,133.419 297.489 C 133.580 297.559,134.323 298.537,135.071 299.663 C 135.819 300.789,136.715 301.919,137.063 302.174 C 137.411 302.428,138.108 303.230,138.611 303.955 C 139.115 304.680,141.227 307.360,143.304 309.912 C 145.381 312.463,147.644 315.344,148.331 316.315 C 149.019 317.285,149.999 318.472,150.509 318.953 C 151.019 319.433,151.847 320.477,152.348 321.272 C 152.850 322.067,153.862 323.301,154.597 324.014 C 155.331 324.728,155.932 325.429,155.932 325.572 C 155.932 325.837,161.608 332.993,164.063 335.824 C 164.802 336.675,165.718 337.886,166.100 338.513 C 166.482 339.141,166.979 339.768,167.204 339.908 C 167.430 340.047,168.533 341.379,169.655 342.868 C 171.972 345.940,178.533 354.141,180.709 356.685 C 181.506 357.618,182.696 359.171,183.353 360.137 C 184.011 361.102,184.692 361.950,184.868 362.020 C 185.044 362.090,185.719 362.885,186.368 363.788 C 187.016 364.690,188.143 366.131,188.872 366.989 C 189.602 367.848,191.474 370.156,193.033 372.118 C 196.394 376.347,196.811 376.617,200.010 376.634 C 202.597 376.649,203.666 376.192,205.020 374.494 C 205.398 374.019,205.915 373.420,206.168 373.162 C 206.421 372.904,207.516 371.530,208.601 370.109 C 209.687 368.688,210.836 367.264,211.156 366.945 C 211.476 366.625,212.433 365.415,213.284 364.255 C 214.134 363.096,214.970 362.090,215.141 362.020 C 215.312 361.950,215.987 361.102,216.640 360.137 C 217.294 359.171,218.436 357.686,219.178 356.836 C 220.988 354.765,228.458 345.419,230.241 342.995 C 231.025 341.928,231.894 340.882,232.170 340.672 C 232.446 340.461,233.126 339.614,233.681 338.789 C 234.237 337.963,235.277 336.610,235.993 335.782 C 236.709 334.953,238.904 332.241,240.870 329.755 C 242.837 327.269,245.030 324.557,245.744 323.729 C 246.458 322.900,247.486 321.562,248.029 320.755 C 248.571 319.948,249.336 319.016,249.727 318.684 C 250.118 318.351,250.997 317.285,251.679 316.315 C 252.361 315.344,254.619 312.463,256.696 309.912 C 258.773 307.360,260.885 304.680,261.389 303.955 C 261.892 303.230,262.589 302.428,262.937 302.174 C 263.285 301.919,264.181 300.789,264.929 299.663 C 265.677 298.537,266.431 297.559,266.605 297.489 C 266.779 297.420,267.452 296.625,268.100 295.723 C 268.749 294.820,269.876 293.379,270.605 292.521 C 272.579 290.197,276.481 285.271,277.860 283.362 C 278.527 282.439,279.405 281.398,279.812 281.049 C 280.218 280.700,280.996 279.736,281.541 278.908 C 282.086 278.079,283.122 276.723,283.844 275.895 C 286.670 272.647,291.902 265.949,291.902 265.578 C 291.902 265.363,292.199 265.027,292.561 264.831 C 292.924 264.636,293.729 263.759,294.350 262.884 C 294.972 262.008,296.164 260.509,297.000 259.553 C 297.836 258.597,299.003 257.095,299.593 256.215 C 300.184 255.334,300.789 254.614,300.938 254.614 C 301.087 254.614,301.897 253.639,302.737 252.448 C 303.578 251.257,304.580 249.944,304.965 249.529 C 305.349 249.115,306.508 247.687,307.540 246.356 C 308.572 245.025,309.893 243.415,310.475 242.778 C 311.058 242.141,312.055 240.824,312.691 239.852 C 313.327 238.879,314.053 238.005,314.304 237.908 C 314.556 237.812,315.284 236.944,315.922 235.980 C 316.561 235.016,317.704 233.518,318.463 232.651 C 319.221 231.783,321.363 229.124,323.223 226.742 C 325.082 224.360,327.078 221.888,327.659 221.248 C 328.240 220.609,329.025 219.592,329.405 218.989 C 329.784 218.385,330.823 217.093,331.714 216.118 C 332.605 215.143,333.333 214.210,333.333 214.045 C 333.333 213.881,334.054 212.950,334.934 211.977 C 335.815 211.004,337.128 209.407,337.853 208.428 C 338.578 207.448,339.373 206.444,339.621 206.197 C 339.868 205.949,340.937 204.601,341.996 203.202 C 343.056 201.802,344.181 200.398,344.497 200.082 C 344.812 199.767,345.767 198.560,346.617 197.400 C 347.468 196.241,348.297 195.237,348.460 195.170 C 348.623 195.102,349.610 193.916,350.654 192.533 C 351.697 191.150,353.164 189.256,353.913 188.324 C 360.361 180.301,362.338 177.806,363.574 176.132 C 364.359 175.069,365.219 174.030,365.486 173.823 C 365.752 173.616,366.503 172.708,367.154 171.805 C 367.805 170.903,368.933 169.462,369.661 168.604 C 370.389 167.746,372.511 165.094,374.376 162.712 C 376.240 160.330,378.375 157.684,379.119 156.832 C 379.863 155.980,380.774 154.794,381.143 154.195 C 381.511 153.597,382.198 152.768,382.669 152.354 C 383.140 151.940,383.922 150.976,384.407 150.213 C 384.892 149.450,386.014 147.987,386.900 146.961 C 387.787 145.935,389.868 143.362,391.525 141.243 C 393.183 139.124,395.264 136.551,396.150 135.525 C 400.986 129.930,401.042 125.867,396.354 120.716 C 395.977 120.301,394.744 118.606,393.614 116.949 C 392.484 115.292,391.361 113.766,391.118 113.559 C 390.874 113.352,390.077 112.229,389.346 111.064 C 388.615 109.899,387.696 108.628,387.304 108.239 C 386.912 107.851,386.274 107.024,385.888 106.403 C 385.501 105.782,384.026 103.714,382.611 101.809 C 381.196 99.903,380.038 98.198,380.038 98.020 C 380.038 97.841,379.555 97.197,378.965 96.588 C 378.375 95.979,377.414 94.718,376.829 93.785 C 375.911 92.321,374.169 89.909,370.711 85.311 C 370.243 84.689,369.039 82.976,368.035 81.504 C 367.031 80.032,365.923 78.507,365.572 78.114 C 365.221 77.722,363.423 75.282,361.575 72.693 C 359.728 70.104,357.533 67.118,356.698 66.059 C 355.862 65.000,355.179 64.008,355.179 63.854 C 355.179 63.700,354.630 62.871,353.958 62.013 C 353.287 61.154,352.606 60.282,352.445 60.075 C 351.592 58.977,347.847 53.730,346.397 51.601 C 345.480 50.254,344.369 48.830,343.928 48.435 C 343.487 48.040,343.126 47.569,343.126 47.388 C 343.126 47.032,337.469 39.067,335.686 36.911 C 335.086 36.186,333.851 34.449,332.943 33.051 C 332.034 31.653,331.153 30.508,330.984 30.508 C 330.816 30.508,330.515 30.127,330.316 29.661 C 330.116 29.195,329.186 27.797,328.249 26.554 C 327.311 25.311,325.886 23.320,325.082 22.131 C 324.278 20.941,323.172 19.416,322.625 18.741 C 321.316 17.125,318.246 12.915,316.226 9.965 C 315.337 8.666,313.992 6.850,313.237 5.929 C 312.482 5.008,311.864 4.128,311.864 3.974 C 311.864 3.246,310.145 1.413,308.835 0.745 C 306.610 -0.390,93.286 -0.402,91.149 0.733 M135.710 11.165 C 135.930 11.385,81.016 121.211,80.133 122.316 C 79.697 122.862,16.949 123.025,16.949 122.480 C 16.949 122.311,17.800 120.998,18.840 119.561 C 19.880 118.125,21.436 115.932,22.298 114.689 C 23.160 113.446,24.316 111.836,24.866 111.111 C 25.415 110.386,27.024 108.183,28.440 106.215 C 29.855 104.247,31.887 101.450,32.954 100.000 C 34.021 98.550,36.576 95.016,38.633 92.147 C 40.690 89.278,43.266 85.719,44.357 84.238 C 45.449 82.756,46.635 81.110,46.994 80.580 C 47.353 80.050,49.341 77.276,51.412 74.415 C 53.484 71.555,56.115 67.921,57.260 66.340 C 58.405 64.759,61.286 60.780,63.663 57.499 C 66.040 54.218,68.748 50.459,69.680 49.146 C 71.382 46.749,77.012 38.954,82.868 30.885 C 84.597 28.503,86.701 25.594,87.544 24.421 C 88.387 23.247,90.914 19.730,93.159 16.605 L 97.240 10.923 116.354 10.923 C 126.866 10.923,135.577 11.032,135.710 11.165 M246.328 11.328 C 246.328 11.798,242.546 20.388,235.315 36.347 C 234.282 38.625,232.376 42.863,231.078 45.763 C 229.781 48.663,227.833 52.985,226.751 55.367 C 225.668 57.750,223.800 61.902,222.600 64.595 C 221.400 67.288,218.432 73.898,216.006 79.284 C 213.579 84.670,210.920 90.603,210.098 92.467 C 209.275 94.331,208.088 96.959,207.459 98.305 C 206.831 99.652,205.756 102.024,205.072 103.578 C 202.156 110.194,200.366 113.940,200.072 114.038 C 199.899 114.095,199.142 112.740,198.390 111.026 C 197.639 109.312,195.983 105.621,194.710 102.825 C 193.438 100.028,191.412 95.537,190.208 92.844 C 187.650 87.121,184.618 80.375,183.521 77.966 C 182.658 76.072,180.301 70.807,177.028 63.465 C 175.828 60.772,173.881 56.450,172.702 53.861 C 171.523 51.271,169.572 46.949,168.366 44.256 C 167.161 41.563,165.293 37.411,164.216 35.028 C 163.139 32.646,161.277 28.493,160.078 25.800 C 158.878 23.107,156.950 18.806,155.792 16.241 C 154.635 13.677,153.779 11.431,153.891 11.251 C 154.201 10.748,246.328 10.825,246.328 11.328 M302.668 11.211 C 302.893 11.363,304.672 13.707,306.623 16.420 C 308.574 19.133,311.512 23.200,313.153 25.459 C 317.139 30.947,319.245 33.865,321.281 36.722 C 322.213 38.030,324.316 40.938,325.955 43.185 C 327.593 45.431,330.764 49.812,333.000 52.919 C 335.237 56.026,338.970 61.196,341.297 64.407 C 343.624 67.618,347.318 72.725,349.506 75.757 C 362.729 94.078,365.292 97.622,367.044 100.000 C 369.340 103.119,375.005 110.949,377.401 114.317 C 378.333 115.627,379.903 117.805,380.889 119.156 C 381.874 120.508,382.782 121.878,382.906 122.200 C 383.148 122.831,320.833 123.127,319.950 122.499 C 319.736 122.347,311.023 105.188,300.587 84.369 C 290.151 63.550,277.661 38.652,272.833 29.041 C 268.004 19.430,264.143 11.422,264.252 11.245 C 264.494 10.853,302.092 10.820,302.668 11.211 M145.316 19.868 C 145.525 20.438,147.166 24.124,148.962 28.060 C 150.758 31.996,153.046 37.081,154.046 39.360 C 155.047 41.638,156.830 45.621,158.011 48.211 C 159.191 50.800,161.138 55.122,162.338 57.815 C 163.537 60.508,165.404 64.661,166.487 67.043 C 167.569 69.426,169.434 73.578,170.631 76.271 C 174.956 86.001,176.356 89.116,177.401 91.337 C 177.986 92.580,179.218 95.292,180.140 97.363 C 187.363 113.597,189.658 118.692,190.451 120.259 C 190.953 121.251,191.263 122.225,191.140 122.425 C 190.803 122.971,92.655 122.915,92.655 122.369 C 92.655 121.612,144.301 18.832,144.682 18.832 C 144.821 18.832,145.107 19.298,145.316 19.868 M264.446 36.629 C 269.240 46.210,280.853 69.334,290.253 88.016 C 299.653 106.698,307.345 122.164,307.345 122.385 C 307.345 122.668,292.762 122.787,258.192 122.787 C 218.976 122.787,209.040 122.691,209.040 122.314 C 209.040 121.908,211.620 115.892,213.925 110.923 C 214.310 110.094,215.761 106.874,217.151 103.766 C 221.896 93.156,224.572 87.195,226.366 83.239 C 227.352 81.064,229.182 76.996,230.431 74.200 C 236.310 61.046,239.311 54.384,243.327 45.574 C 244.129 43.814,245.956 39.746,247.387 36.535 C 253.640 22.500,255.170 19.209,255.441 19.209 C 255.600 19.209,259.652 27.048,264.446 36.629 M79.902 133.804 C 80.522 134.314,173.409 328.035,173.154 328.289 C 173.029 328.415,136.071 282.500,133.522 279.051 C 133.107 278.490,129.113 273.483,124.645 267.923 C 120.178 262.364,98.245 234.934,75.906 206.968 C 53.568 179.002,34.680 155.369,33.935 154.451 C 25.018 143.469,17.723 134.183,17.714 133.804 C 17.705 133.431,24.110 133.333,48.516 133.333 C 72.609 133.333,79.454 133.436,79.902 133.804 M194.176 133.804 C 194.274 134.063,194.311 181.983,194.258 240.294 L 194.162 346.312 148.238 250.463 C 122.979 197.746,101.006 151.902,99.409 148.588 C 93.909 137.175,92.355 133.759,92.568 133.547 C 93.052 133.062,193.992 133.318,194.176 133.804 M307.456 133.616 C 307.591 133.860,244.677 265.478,220.668 315.179 C 219.037 318.555,217.702 321.375,217.702 321.445 C 217.702 321.581,209.651 338.298,207.170 343.315 L 205.680 346.328 205.665 239.831 L 205.650 133.333 256.475 133.333 C 284.429 133.333,307.370 133.460,307.456 133.616 M382.079 133.661 C 382.251 133.940,377.510 140.116,370.620 148.588 C 369.609 149.831,357.152 165.424,342.938 183.239 C 328.723 201.055,316.539 216.309,315.861 217.137 C 314.411 218.910,311.905 222.048,277.966 264.579 C 263.776 282.361,251.573 297.621,250.847 298.488 C 249.325 300.310,237.088 315.625,235.981 317.094 C 234.817 318.639,227.440 327.829,227.028 328.249 C 226.339 328.949,227.180 326.835,229.575 321.846 C 230.868 319.153,232.980 314.746,234.269 312.053 C 235.559 309.360,237.716 304.868,239.064 302.072 C 242.459 295.026,245.518 288.659,247.751 283.992 C 248.792 281.817,250.864 277.495,252.356 274.388 C 256.737 265.264,261.525 255.258,264.792 248.399 C 265.878 246.121,268.032 241.629,269.580 238.418 C 271.127 235.207,273.329 230.631,274.472 228.249 C 275.615 225.866,277.695 221.544,279.095 218.644 C 280.495 215.744,282.448 211.676,283.434 209.605 C 284.420 207.533,286.325 203.550,287.667 200.753 C 289.009 197.957,291.041 193.719,292.183 191.337 C 293.325 188.955,295.438 184.548,296.879 181.544 C 298.320 178.540,303.998 166.676,309.497 155.179 C 314.995 143.682,319.759 134.063,320.083 133.804 C 320.782 133.245,381.735 133.104,382.079 133.661 " stroke="none" fill="#3c3c4b" fill-rule="evenodd"></path><path id="path1" d="M96.928 12.147 C 96.205 12.958,95.030 14.573,84.929 28.625 C 82.472 32.043,79.591 36.026,78.525 37.476 C 77.460 38.927,74.578 42.910,72.120 46.328 C 67.897 52.203,57.628 66.431,52.548 73.446 C 51.273 75.207,48.392 79.190,46.146 82.298 C 43.900 85.405,41.193 89.134,40.130 90.584 C 39.067 92.034,36.808 95.169,35.110 97.552 C 33.412 99.934,30.723 103.663,29.135 105.838 C 24.072 112.772,17.702 121.705,17.702 121.872 C 17.702 121.961,31.728 122.032,48.870 122.029 L 80.038 122.024 107.627 67.061 C 122.801 36.832,135.217 11.919,135.217 11.699 C 135.217 11.423,129.433 11.299,116.450 11.299 L 97.683 11.299 96.928 12.147 M154.049 11.509 C 154.049 11.625,154.960 13.701,156.073 16.123 C 157.186 18.546,159.156 22.900,160.449 25.800 C 161.743 28.701,163.608 32.853,164.594 35.028 C 165.579 37.203,167.448 41.356,168.746 44.256 C 170.044 47.156,172.099 51.694,173.312 54.340 C 174.525 56.986,175.518 59.222,175.518 59.308 C 175.518 59.395,176.214 60.959,177.066 62.784 C 177.917 64.609,179.291 67.627,180.120 69.492 C 180.948 71.356,182.605 75.085,183.801 77.778 C 184.997 80.471,187.026 84.962,188.310 87.759 C 189.593 90.556,191.463 94.708,192.465 96.987 C 193.466 99.266,195.418 103.588,196.802 106.591 C 198.187 109.595,199.407 112.349,199.515 112.712 C 199.924 114.088,201.166 111.952,204.167 104.708 C 204.639 103.569,205.158 102.459,205.320 102.242 C 205.482 102.025,206.371 100.076,207.295 97.911 C 208.939 94.057,212.523 86.044,213.940 83.051 C 214.838 81.154,218.147 73.778,219.770 70.056 C 220.448 68.503,221.471 66.215,222.045 64.972 C 223.371 62.101,226.202 55.811,228.996 49.529 C 230.194 46.836,232.227 42.345,233.513 39.548 C 234.799 36.751,236.276 33.446,236.795 32.203 C 237.313 30.960,238.553 28.164,239.550 25.989 C 240.547 23.814,242.395 19.784,243.657 17.035 C 244.919 14.285,245.951 11.870,245.951 11.668 C 245.951 11.430,229.673 11.299,200.000 11.299 C 174.727 11.299,154.049 11.394,154.049 11.509 M264.783 11.738 C 264.783 12.126,281.735 46.085,311.145 104.614 L 319.898 122.034 351.129 122.034 C 368.306 122.034,382.304 121.898,382.235 121.733 C 382.166 121.567,379.991 118.502,377.401 114.922 C 374.812 111.341,371.676 107.000,370.433 105.274 C 369.190 103.547,366.309 99.564,364.030 96.420 C 361.751 93.277,358.870 89.294,357.627 87.569 C 356.384 85.844,353.503 81.863,351.224 78.722 C 348.945 75.581,346.318 71.946,345.386 70.644 C 344.454 69.342,342.351 66.432,340.712 64.176 C 339.074 61.921,335.902 57.533,333.664 54.426 C 331.427 51.318,328.545 47.335,327.262 45.574 C 325.978 43.814,323.102 39.831,320.872 36.723 C 318.641 33.616,313.621 26.667,309.717 21.281 L 302.617 11.488 283.700 11.390 C 269.343 11.316,264.783 11.400,264.783 11.738 M121.957 64.313 C 109.599 88.912,98.036 111.921,96.262 115.443 L 93.037 121.846 141.683 121.941 C 168.439 121.994,190.398 121.968,190.482 121.885 C 190.565 121.801,190.128 120.572,189.511 119.153 C 187.886 115.416,184.638 108.156,183.808 106.403 C 182.576 103.800,178.912 95.638,177.214 91.714 C 176.318 89.642,175.213 87.199,174.759 86.285 C 174.305 85.371,173.377 83.337,172.696 81.765 C 172.015 80.194,170.233 76.196,168.737 72.881 C 164.744 64.034,162.901 59.939,160.262 54.049 C 158.963 51.149,157.017 46.827,155.939 44.444 C 152.372 36.567,149.105 29.255,146.979 24.388 C 145.825 21.747,144.779 19.586,144.653 19.586 C 144.528 19.586,134.314 39.713,121.957 64.313 M252.991 24.765 C 250.823 29.748,247.253 37.735,245.878 40.678 C 245.010 42.535,242.561 48.003,240.226 53.296 C 239.403 55.160,238.299 57.618,237.772 58.757 C 236.402 61.720,229.895 76.157,226.737 83.239 C 225.952 85.000,224.129 89.068,222.687 92.279 C 221.244 95.490,218.279 102.100,216.097 106.968 C 213.915 111.836,211.519 117.142,210.773 118.759 C 210.027 120.376,209.416 121.774,209.416 121.866 C 209.416 121.959,231.368 122.034,258.198 122.034 L 306.979 122.034 291.768 91.808 C 283.402 75.184,271.869 52.218,266.139 40.772 C 260.409 29.327,255.577 19.962,255.400 19.962 C 255.224 19.962,254.140 22.123,252.991 24.765 M22.510 139.642 C 36.719 157.358,63.200 190.502,63.842 191.372 C 64.482 192.242,79.477 210.983,95.874 231.409 C 98.351 234.493,100.796 237.544,101.308 238.188 C 101.821 238.833,111.912 251.478,123.734 266.290 C 135.556 281.102,145.645 293.749,146.155 294.395 C 146.664 295.041,150.471 299.780,154.614 304.926 C 158.757 310.073,162.486 314.736,162.900 315.289 C 164.969 318.050,171.906 326.524,172.012 326.419 C 172.078 326.353,170.588 323.093,168.701 319.176 C 166.814 315.258,164.377 310.188,163.284 307.910 C 162.192 305.631,160.196 301.478,158.848 298.682 C 157.500 295.885,155.463 291.648,154.321 289.266 C 153.179 286.883,151.107 282.561,149.716 279.661 C 148.325 276.761,146.293 272.524,145.200 270.245 C 144.107 267.966,142.177 263.941,140.910 261.299 C 139.643 258.658,137.572 254.336,136.309 251.695 C 135.045 249.054,133.116 245.028,132.022 242.750 C 128.452 235.317,125.558 229.281,123.172 224.294 C 117.294 212.010,113.709 204.541,110.064 196.987 C 105.834 188.221,102.633 181.547,98.411 172.693 C 96.238 168.136,93.481 162.373,92.285 159.887 C 91.088 157.401,89.135 153.333,87.945 150.847 C 86.754 148.362,84.454 143.573,82.832 140.207 L 79.884 134.087 48.969 134.087 L 18.054 134.087 22.510 139.642 M93.032 134.244 C 93.032 134.567,94.552 137.862,97.651 144.256 C 99.407 147.881,102.629 154.576,104.808 159.134 C 106.988 163.691,109.984 169.938,111.465 173.016 C 112.947 176.094,115.827 182.111,117.866 186.387 C 121.637 194.297,124.806 200.895,129.796 211.223 C 131.327 214.392,132.580 217.040,132.580 217.107 C 132.580 217.175,134.376 220.938,136.570 225.470 C 138.765 230.002,141.374 235.405,142.368 237.476 C 146.947 247.015,148.835 250.958,150.663 254.802 C 151.746 257.081,153.776 261.318,155.174 264.218 C 157.718 269.498,159.617 273.462,163.652 281.921 C 164.838 284.407,166.993 288.898,168.442 291.902 C 169.890 294.906,171.970 299.228,173.064 301.507 C 174.976 305.490,176.498 308.653,182.214 320.527 C 184.697 325.685,186.115 328.643,191.384 339.654 C 192.601 342.198,193.597 344.454,193.597 344.667 C 193.597 344.880,193.766 344.949,193.974 344.821 C 194.223 344.667,194.350 309.098,194.350 239.337 L 194.350 134.087 143.691 134.087 C 115.829 134.087,93.032 134.157,93.032 134.244 M205.650 239.799 C 205.650 297.941,205.712 345.441,205.788 345.355 C 205.865 345.268,222.204 311.215,242.098 269.680 C 275.952 199.001,280.632 189.239,286.243 177.589 C 287.440 175.104,289.185 171.460,290.120 169.492 C 291.056 167.524,295.157 158.964,299.235 150.471 C 303.312 141.977,306.738 134.816,306.848 134.557 C 307.008 134.182,296.764 134.087,256.349 134.087 L 205.650 134.087 205.650 239.799 M279.486 218.550 C 257.230 265.005,236.420 308.437,233.241 315.066 C 230.063 321.695,227.696 326.864,227.982 326.554 C 228.548 325.939,235.499 317.295,236.723 315.684 C 237.420 314.766,265.748 279.248,269.508 274.576 C 270.425 273.437,273.477 269.623,276.289 266.102 C 279.102 262.580,282.155 258.766,283.074 257.627 C 283.992 256.488,292.414 245.950,301.788 234.209 C 311.162 222.468,322.392 208.422,326.742 202.995 C 335.278 192.346,338.040 188.881,339.648 186.806 C 340.692 185.458,367.091 152.402,375.133 142.373 C 377.542 139.369,379.990 136.276,380.573 135.499 L 381.634 134.087 350.792 134.087 L 319.951 134.087 279.486 218.550 " stroke="none" fill="#f3e34c" fill-rule="evenodd"></path><path id="path2" d="" stroke="none" fill="#948c4c" fill-rule="evenodd"></path><path id="path3" d="M238.856 27.323 C 238.225 28.708,238.345 29.004,239.028 27.744 C 239.346 27.156,239.536 26.605,239.450 26.519 C 239.364 26.433,239.097 26.795,238.856 27.323 M152.946 37.853 C 152.946 38.060,153.188 38.653,153.484 39.171 C 153.780 39.689,154.022 39.944,154.022 39.736 C 154.022 39.529,153.780 38.936,153.484 38.418 C 153.188 37.900,152.946 37.646,152.946 37.853 M114.313 53.484 C 113.991 54.105,113.813 54.614,113.917 54.614 C 114.020 54.614,114.368 54.105,114.689 53.484 C 115.011 52.863,115.189 52.354,115.085 52.354 C 114.982 52.354,114.634 52.863,114.313 53.484 M125.612 56.497 C 125.291 57.119,125.112 57.627,125.216 57.627 C 125.320 57.627,125.667 57.119,125.989 56.497 C 126.310 55.876,126.488 55.367,126.385 55.367 C 126.281 55.367,125.933 55.876,125.612 56.497 M121.846 64.030 C 121.524 64.652,121.346 65.160,121.450 65.160 C 121.553 65.160,121.901 64.652,122.222 64.030 C 122.544 63.409,122.722 62.900,122.618 62.900 C 122.515 62.900,122.167 63.409,121.846 64.030 M286.817 82.109 C 287.139 82.731,287.486 83.239,287.590 83.239 C 287.694 83.239,287.515 82.731,287.194 82.109 C 286.873 81.488,286.525 80.979,286.421 80.979 C 286.318 80.979,286.496 81.488,286.817 82.109 M290.960 90.395 C 291.282 91.017,291.630 91.525,291.733 91.525 C 291.837 91.525,291.658 91.017,291.337 90.395 C 291.016 89.774,290.668 89.266,290.564 89.266 C 290.461 89.266,290.639 89.774,290.960 90.395 M190.234 92.467 C 190.234 92.674,190.476 93.267,190.772 93.785 C 191.068 94.303,191.310 94.557,191.310 94.350 C 191.310 94.143,191.068 93.550,190.772 93.032 C 190.476 92.514,190.234 92.260,190.234 92.467 M208.724 94.366 C 208.093 95.751,208.213 96.047,208.896 94.788 C 209.214 94.200,209.405 93.648,209.319 93.562 C 209.232 93.476,208.965 93.838,208.724 94.366 M306.780 96.422 C 307.101 97.043,307.449 97.552,307.552 97.552 C 307.656 97.552,307.478 97.043,307.156 96.422 C 306.835 95.800,306.487 95.292,306.384 95.292 C 306.280 95.292,306.458 95.800,306.780 96.422 M294.727 97.928 C 295.048 98.550,295.396 99.058,295.500 99.058 C 295.603 99.058,295.425 98.550,295.104 97.928 C 294.782 97.307,294.435 96.798,294.331 96.798 C 294.227 96.798,294.406 97.307,294.727 97.928 M310.546 103.955 C 310.868 104.576,311.215 105.085,311.319 105.085 C 311.422 105.085,311.244 104.576,310.923 103.955 C 310.601 103.333,310.254 102.825,310.150 102.825 C 310.047 102.825,310.225 103.333,310.546 103.955 M17.326 122.128 C 17.326 122.283,31.436 122.371,48.682 122.322 C 65.927 122.274,75.038 122.189,68.927 122.134 C 39.930 121.875,17.326 121.872,17.326 122.128 M141.808 122.034 L 92.844 122.226 141.902 122.319 C 174.418 122.380,190.960 122.284,190.960 122.034 C 190.960 121.827,190.918 121.699,190.866 121.749 C 190.815 121.800,168.738 121.928,141.808 122.034 M351.036 122.034 L 319.586 122.229 351.130 122.320 C 371.969 122.380,382.674 122.283,382.674 122.034 C 382.674 121.827,382.632 121.698,382.580 121.748 C 382.528 121.798,368.333 121.927,351.036 122.034 M233.427 122.316 C 246.944 122.371,269.063 122.371,282.580 122.316 C 296.097 122.262,285.038 122.217,258.004 122.217 C 230.970 122.217,219.911 122.262,233.427 122.316 M28.625 133.986 C 57.621 134.246,80.138 134.248,79.980 133.992 C 79.883 133.837,65.789 133.750,48.660 133.798 C 31.530 133.847,22.514 133.931,28.625 133.986 M92.655 133.992 C 92.655 134.248,127.973 134.246,176.271 133.988 C 186.318 133.935,171.615 133.850,143.597 133.800 C 115.579 133.751,92.655 133.837,92.655 133.992 M230.979 133.992 C 245.014 134.047,267.980 134.047,282.015 133.992 C 296.050 133.938,284.567 133.893,256.497 133.893 C 228.427 133.893,216.944 133.938,230.979 133.992 M350.798 133.992 C 380.063 134.086,381.607 134.125,381.118 134.748 C 380.651 135.343,380.665 135.356,381.262 134.888 C 381.624 134.604,381.921 134.222,381.921 134.041 C 381.921 133.853,368.532 133.750,350.942 133.802 L 319.962 133.894 350.798 133.992 M303.277 141.816 C 302.827 142.744,302.537 143.503,302.634 143.503 C 302.889 143.503,304.411 140.443,304.240 140.273 C 304.161 140.194,303.728 140.889,303.277 141.816 M299.320 150.099 C 298.976 150.821,298.772 151.412,298.866 151.412 C 299.124 151.412,300.268 149.106,300.095 148.934 C 300.014 148.852,299.665 149.376,299.320 150.099 M96.874 169.672 C 97.325 170.599,97.758 171.294,97.837 171.215 C 98.008 171.044,96.486 167.985,96.231 167.985 C 96.134 167.985,96.424 168.744,96.874 169.672 M101.394 179.088 C 101.845 180.015,102.278 180.710,102.357 180.631 C 102.528 180.460,101.006 177.401,100.751 177.401 C 100.654 177.401,100.944 178.160,101.394 179.088 M104.740 185.876 C 104.740 186.083,105.064 186.846,105.461 187.571 C 105.858 188.296,106.183 188.719,106.183 188.512 C 106.183 188.305,105.858 187.542,105.461 186.817 C 105.064 186.092,104.740 185.669,104.740 185.876 M109.259 195.292 C 109.259 195.499,109.584 196.262,109.981 196.987 C 110.378 197.712,110.703 198.136,110.703 197.928 C 110.703 197.721,110.378 196.959,109.981 196.234 C 109.584 195.508,109.259 195.085,109.259 195.292 M114.313 206.026 C 114.634 206.648,114.982 207.156,115.085 207.156 C 115.189 207.156,115.011 206.648,114.689 206.026 C 114.368 205.405,114.020 204.896,113.917 204.896 C 113.813 204.896,113.991 205.405,114.313 206.026 M117.922 213.371 C 117.922 213.578,118.247 214.341,118.644 215.066 C 119.041 215.791,119.366 216.215,119.366 216.008 C 119.366 215.800,119.041 215.038,118.644 214.313 C 118.247 213.588,117.922 213.164,117.922 213.371 M122.411 222.743 C 122.411 223.147,123.531 225.235,123.748 225.235 C 123.852 225.235,123.656 224.685,123.314 224.011 C 122.615 222.637,122.411 222.350,122.411 222.743 M126.554 231.402 C 126.554 231.809,128.050 234.652,128.264 234.652 C 128.367 234.652,128.089 233.931,127.645 233.051 C 126.772 231.319,126.554 230.990,126.554 231.402 M130.697 240.069 C 130.697 240.473,131.817 242.561,132.034 242.561 C 132.138 242.561,131.943 242.010,131.600 241.337 C 130.901 239.962,130.697 239.676,130.697 240.069 M135.217 249.481 C 135.217 249.888,136.713 252.731,136.927 252.731 C 137.030 252.731,136.752 252.010,136.308 251.130 C 135.435 249.399,135.217 249.069,135.217 249.481 M143.879 267.564 C 143.879 267.968,145.000 270.056,145.217 270.056 C 145.321 270.056,145.125 269.506,144.783 268.832 C 144.084 267.458,143.879 267.171,143.879 267.564 M168.814 293.212 C 169.265 294.140,169.698 294.834,169.777 294.755 C 169.948 294.585,168.426 291.525,168.170 291.525 C 168.074 291.525,168.363 292.284,168.814 293.212 M157.062 295.060 C 157.062 295.464,158.183 297.552,158.400 297.552 C 158.503 297.552,158.308 297.001,157.966 296.328 C 157.266 294.953,157.062 294.666,157.062 295.060 M173.446 302.825 C 173.768 303.446,174.115 303.955,174.219 303.955 C 174.323 303.955,174.144 303.446,173.823 302.825 C 173.502 302.203,173.154 301.695,173.050 301.695 C 172.947 301.695,173.125 302.203,173.446 302.825 M177.477 311.291 C 177.928 312.219,178.361 312.913,178.440 312.834 C 178.610 312.664,177.089 309.605,176.833 309.605 C 176.737 309.605,177.026 310.364,177.477 311.291 M181.202 318.832 C 181.202 319.040,181.610 319.972,182.109 320.904 C 182.608 321.836,183.017 322.429,183.017 322.222 C 183.017 322.015,182.608 321.083,182.109 320.151 C 181.610 319.218,181.202 318.625,181.202 318.832 M185.719 328.249 C 185.719 328.456,186.044 329.218,186.441 329.944 C 186.838 330.669,187.162 331.092,187.162 330.885 C 187.162 330.678,186.838 329.915,186.441 329.190 C 186.044 328.465,185.719 328.041,185.719 328.249 M190.660 338.786 C 191.110 339.714,191.544 340.409,191.623 340.330 C 191.793 340.159,190.271 337.100,190.016 337.100 C 189.919 337.100,190.209 337.859,190.660 338.786 " stroke="none" fill="#ac9f4c" fill-rule="evenodd"></path><path id="path4" d="M96.750 11.582 C 96.291 12.168,96.301 12.188,96.845 11.763 C 97.325 11.389,101.604 11.308,116.678 11.387 C 127.249 11.442,135.820 11.361,135.723 11.205 C 135.298 10.517,97.297 10.885,96.750 11.582 M153.923 11.174 C 153.785 11.312,153.675 11.609,153.678 11.833 C 153.682 12.076,153.804 12.051,153.982 11.772 C 154.217 11.402,164.078 11.282,200.398 11.205 L 246.516 11.108 200.345 11.015 C 174.951 10.964,154.062 11.036,153.923 11.174 M264.281 11.174 C 264.143 11.312,264.033 11.609,264.036 11.833 C 264.039 12.078,264.161 12.054,264.338 11.774 C 264.567 11.414,269.013 11.283,283.636 11.205 L 302.637 11.104 283.584 11.013 C 273.106 10.964,264.419 11.036,264.281 11.174 M269.115 21.846 C 269.436 22.467,269.784 22.976,269.888 22.976 C 269.991 22.976,269.813 22.467,269.492 21.846 C 269.170 21.224,268.822 20.716,268.719 20.716 C 268.615 20.716,268.794 21.224,269.115 21.846 M273.070 29.755 C 273.492 30.584,273.923 31.262,274.027 31.262 C 274.130 31.262,273.869 30.584,273.446 29.755 C 273.024 28.927,272.593 28.249,272.489 28.249 C 272.386 28.249,272.647 28.927,273.070 29.755 M100.188 82.109 C 99.766 82.938,99.504 83.616,99.608 83.616 C 99.712 83.616,100.142 82.938,100.565 82.109 C 100.988 81.281,101.249 80.603,101.145 80.603 C 101.042 80.603,100.611 81.281,100.188 82.109 M96.610 113.748 C 96.289 114.369,96.111 114.878,96.214 114.878 C 96.318 114.878,96.665 114.369,96.987 113.748 C 97.308 113.126,97.486 112.618,97.383 112.618 C 97.279 112.618,96.932 113.126,96.610 113.748 M190.780 121.563 L 191.011 122.411 141.739 122.503 L 92.467 122.596 141.599 122.693 C 191.085 122.791,191.830 122.771,190.981 121.411 C 190.590 120.783,190.570 120.798,190.780 121.563 M306.968 122.032 C 306.968 122.279,290.177 122.441,257.910 122.505 L 208.851 122.602 258.098 122.694 C 301.663 122.776,307.345 122.722,307.345 122.222 C 307.345 121.911,307.260 121.657,307.156 121.657 C 307.053 121.657,306.968 121.826,306.968 122.032 M16.949 122.505 C 16.949 122.660,31.144 122.747,48.493 122.699 C 65.843 122.650,74.953 122.566,68.738 122.511 C 39.201 122.251,16.949 122.249,16.949 122.505 M351.412 122.411 L 319.962 122.605 351.507 122.696 C 372.346 122.756,383.051 122.659,383.051 122.411 C 383.051 122.203,383.008 122.075,382.957 122.125 C 382.905 122.175,368.710 122.303,351.412 122.411 M33.051 133.616 C 41.596 133.672,55.579 133.672,64.124 133.616 C 72.669 133.559,65.678 133.513,48.588 133.513 C 31.497 133.513,24.506 133.559,33.051 133.616 M92.525 133.616 C 92.367 133.871,127.597 133.870,175.895 133.612 C 185.942 133.558,171.333 133.474,143.431 133.424 C 115.529 133.374,92.621 133.460,92.525 133.616 M223.729 133.612 C 272.010 133.870,307.633 133.871,307.475 133.616 C 307.379 133.460,284.386 133.374,256.381 133.424 C 228.375 133.474,213.682 133.558,223.729 133.612 M331.450 133.609 C 360.485 133.869,382.209 133.872,382.051 133.616 C 381.955 133.460,368.031 133.373,351.108 133.422 C 334.185 133.470,325.339 133.555,331.450 133.609 M277.760 221.127 C 277.428 221.768,277.224 222.359,277.306 222.441 C 277.388 222.523,277.736 221.998,278.081 221.276 C 278.855 219.652,278.587 219.527,277.760 221.127 M268.988 239.376 C 268.357 240.761,268.477 241.056,269.159 239.797 C 269.478 239.209,269.668 238.658,269.582 238.572 C 269.496 238.485,269.229 238.847,268.988 239.376 M264.595 248.588 C 264.274 249.209,264.096 249.718,264.199 249.718 C 264.303 249.718,264.650 249.209,264.972 248.588 C 265.293 247.966,265.471 247.458,265.368 247.458 C 265.264 247.458,264.916 247.966,264.595 248.588 " stroke="none" fill="#8b844c" fill-rule="evenodd"></path></g></svg>