<svg width="505" height="402" viewBox="0 0 505 402" fill="none" xmlns="http://www.w3.org/2000/svg">
<g filter="url(#filter0_d)">
<path fill-rule="evenodd" clip-rule="evenodd" d="M170.7 62.5536C169.921 62.9669 168.725 64.2604 168.725 64.69C168.725 64.783 168.32 65.3535 167.826 65.9567C167.331 66.5599 166.449 67.7492 165.867 68.6C164.543 70.5321 162.531 73.2894 161.673 74.3478C161.314 74.7899 160.59 75.7886 160.063 76.568C159.536 77.3467 158.602 78.6507 157.987 79.4648C157.373 80.2789 156.772 81.1716 156.652 81.448C156.532 81.725 156.238 82.1134 155.998 82.3118C155.759 82.5096 155.096 83.3932 154.527 84.2747C153.957 85.1569 153.253 86.0895 152.962 86.3482C152.671 86.607 152.433 86.9187 152.433 87.0412C152.433 87.1637 151.783 88.1179 150.988 89.1612C150.194 90.2052 149.135 91.669 148.637 92.4156C148.139 93.1616 147.373 94.2383 146.935 94.8075C145.653 96.4743 144.492 98.0684 143.234 99.8898C142.587 100.826 141.671 102.065 141.198 102.641C140.725 103.218 140.338 103.778 140.338 103.884C140.338 103.99 139.89 104.645 139.342 105.338C138.795 106.032 137.356 107.987 136.146 109.683C134.935 111.379 133.768 112.965 133.553 113.207C133.338 113.449 132.774 114.254 132.299 114.995C131.824 115.737 131.132 116.705 130.759 117.146C130.386 117.586 129.589 118.668 128.986 119.55C128.383 120.432 127.729 121.318 127.533 121.52C127.336 121.721 126.786 122.498 126.311 123.246C125.835 123.995 125.131 124.934 124.746 125.333C124.361 125.732 124.046 126.154 124.046 126.271C124.046 126.387 123.287 127.504 122.359 128.752C121.432 130 120.465 131.354 120.212 131.761C119.959 132.168 119.542 132.708 119.287 132.96C119.032 133.213 118.331 134.157 117.73 135.057C116.563 136.805 114.308 139.937 113.378 141.101C110.21 145.07 110.208 146.905 113.369 150.686C115.783 153.573 119.968 158.803 120.793 159.963C121.244 160.597 121.98 161.505 122.427 161.979C122.875 162.454 123.342 163.035 123.465 163.269C123.588 163.503 124.103 164.169 124.61 164.749C125.116 165.329 126.586 167.135 127.875 168.763C129.163 170.392 130.601 172.168 131.069 172.711C131.537 173.253 132.217 174.139 132.581 174.68C132.945 175.22 133.388 175.775 133.566 175.913C133.744 176.051 134.391 176.83 135.003 177.644C135.615 178.458 137.459 180.789 139.102 182.824C140.744 184.859 142.641 187.265 143.318 188.171C143.993 189.077 144.637 189.854 144.747 189.898C144.857 189.942 145.296 190.462 145.72 191.053C146.146 191.644 146.885 192.587 147.363 193.149C147.842 193.712 149.233 195.448 150.456 197.008C151.679 198.569 153.076 200.302 153.563 200.859C154.048 201.417 154.644 202.195 154.885 202.586C155.127 202.978 155.579 203.521 155.889 203.792C156.2 204.063 156.647 204.598 156.883 204.981C157.118 205.363 157.705 206.14 158.187 206.708C158.669 207.275 160.073 209.016 161.308 210.576C162.543 212.136 163.963 213.896 164.464 214.487C164.965 215.077 165.755 216.104 166.221 216.769C166.687 217.433 167.151 217.976 167.253 217.976C167.356 217.976 167.782 218.504 168.199 219.149C168.617 219.793 169.267 220.654 169.644 221.064C170.021 221.472 170.882 222.527 171.558 223.407C172.233 224.287 172.938 225.164 173.122 225.355C173.307 225.546 173.921 226.323 174.485 227.081C175.049 227.84 175.614 228.535 175.741 228.626C175.973 228.791 177.496 230.721 179.847 233.826C180.54 234.741 181.213 235.491 181.342 235.491C181.471 235.491 181.649 235.685 181.737 235.923C181.897 236.357 185.451 240.894 187.133 242.81C187.629 243.376 188.23 244.153 188.467 244.537C188.705 244.92 189.217 245.568 189.604 245.975C189.992 246.382 190.646 247.175 191.058 247.737C191.957 248.964 194.722 252.439 195.35 253.129C195.597 253.4 196.342 254.344 197.005 255.225C197.669 256.108 198.298 256.866 198.403 256.911C198.509 256.957 198.996 257.598 199.486 258.335C199.976 259.072 200.563 259.813 200.791 259.98C201.019 260.146 201.476 260.671 201.806 261.146C202.136 261.621 203.52 263.376 204.882 265.047C206.243 266.718 207.726 268.605 208.176 269.241C208.627 269.876 209.269 270.654 209.604 270.969C209.938 271.283 210.48 271.967 210.809 272.488C211.138 273.008 211.801 273.816 212.283 274.283C212.764 274.751 213.158 275.21 213.158 275.304C213.158 275.477 216.878 280.164 218.487 282.018C218.971 282.576 219.571 283.369 219.822 283.779C220.072 284.191 220.398 284.601 220.545 284.693C220.693 284.784 221.416 285.656 222.151 286.632C223.67 288.644 227.97 294.015 229.396 295.681C229.918 296.292 230.698 297.309 231.129 297.942C231.56 298.574 232.006 299.129 232.122 299.175C232.237 299.221 232.68 299.742 233.105 300.333C233.53 300.924 234.268 301.868 234.746 302.43C235.224 302.992 236.451 304.504 237.473 305.789C239.676 308.558 239.949 308.735 242.046 308.746C243.741 308.756 244.442 308.457 245.329 307.345C245.577 307.034 245.916 306.641 246.081 306.472C246.247 306.303 246.965 305.404 247.676 304.473C248.388 303.542 249.141 302.61 249.35 302.401C249.56 302.191 250.187 301.399 250.745 300.639C251.302 299.88 251.85 299.221 251.962 299.175C252.074 299.129 252.517 298.574 252.945 297.942C253.373 297.309 254.122 296.337 254.608 295.78C255.794 294.424 260.69 288.302 261.858 286.715C262.372 286.016 262.942 285.331 263.123 285.193C263.304 285.055 263.749 284.501 264.113 283.96C264.477 283.419 265.159 282.533 265.628 281.991C266.097 281.448 267.536 279.672 268.824 278.043C270.114 276.415 271.551 274.639 272.019 274.097C272.487 273.554 273.16 272.678 273.516 272.149C273.872 271.62 274.373 271.01 274.629 270.793C274.885 270.575 275.462 269.876 275.908 269.241C276.355 268.605 277.835 266.718 279.197 265.047C280.558 263.376 281.942 261.621 282.272 261.146C282.602 260.671 283.059 260.146 283.287 259.98C283.515 259.813 284.102 259.072 284.592 258.335C285.082 257.598 285.577 256.957 285.691 256.911C285.805 256.866 286.246 256.345 286.67 255.755C287.096 255.163 287.834 254.219 288.312 253.657C289.606 252.135 292.163 248.909 293.067 247.659C293.504 247.054 294.08 246.372 294.346 246.144C294.612 245.915 295.122 245.284 295.479 244.742C295.837 244.199 296.516 243.311 296.989 242.768C298.841 240.641 302.27 236.254 302.27 236.011C302.27 235.871 302.464 235.65 302.702 235.522C302.94 235.394 303.467 234.82 303.874 234.247C304.282 233.673 305.063 232.691 305.611 232.065C306.159 231.439 306.924 230.455 307.31 229.879C307.698 229.302 308.094 228.831 308.192 228.831C308.29 228.831 308.82 228.192 309.371 227.412C309.922 226.632 310.579 225.772 310.831 225.5C311.083 225.229 311.842 224.294 312.519 223.422C313.195 222.55 314.061 221.496 314.442 221.079C314.824 220.661 315.478 219.799 315.895 219.162C316.311 218.525 316.787 217.953 316.952 217.889C317.117 217.826 317.594 217.258 318.012 216.626C318.431 215.995 319.18 215.014 319.677 214.446C320.174 213.878 321.578 212.136 322.797 210.576C324.015 209.016 325.324 207.397 325.704 206.978C326.085 206.559 326.6 205.893 326.849 205.498C327.097 205.103 327.778 204.257 328.362 203.618C328.946 202.979 329.423 202.368 329.423 202.26C329.423 202.153 329.895 201.543 330.472 200.906C331.05 200.269 331.91 199.223 332.385 198.581C332.86 197.94 333.381 197.282 333.544 197.12C333.706 196.958 334.406 196.075 335.101 195.159C335.795 194.242 336.533 193.322 336.74 193.115C336.946 192.909 337.572 192.119 338.129 191.359C338.687 190.6 339.23 189.942 339.337 189.898C339.444 189.854 340.091 189.077 340.775 188.171C341.458 187.265 342.42 186.025 342.911 185.415C347.137 180.16 348.432 178.526 349.242 177.43C349.757 176.733 350.32 176.053 350.495 175.917C350.67 175.782 351.162 175.187 351.589 174.596C352.015 174.005 352.755 173.061 353.232 172.499C353.709 171.937 355.099 170.2 356.322 168.64C357.543 167.08 358.943 165.347 359.43 164.789C359.918 164.231 360.515 163.454 360.757 163.062C360.998 162.67 361.448 162.127 361.757 161.856C362.066 161.585 362.578 160.954 362.896 160.454C363.214 159.954 363.949 158.996 364.53 158.324C365.111 157.652 366.475 155.967 367.561 154.579C368.647 153.191 370.011 151.506 370.592 150.834C373.761 147.17 373.798 144.509 370.726 141.135C370.479 140.864 369.671 139.753 368.93 138.668C368.189 137.583 367.453 136.583 367.294 136.448C367.134 136.312 366.612 135.577 366.133 134.814C365.654 134.051 365.051 133.218 364.795 132.964C364.538 132.71 364.119 132.168 363.867 131.761C363.613 131.354 362.646 130 361.719 128.752C360.791 127.504 360.033 126.387 360.033 126.271C360.033 126.154 359.716 125.732 359.329 125.333C358.943 124.934 358.313 124.108 357.929 123.497C357.328 122.538 356.186 120.959 353.92 117.947C353.613 117.54 352.824 116.418 352.166 115.454C351.508 114.49 350.782 113.491 350.552 113.234C350.322 112.977 349.143 111.379 347.932 109.683C346.722 107.987 345.283 106.032 344.736 105.338C344.188 104.645 343.74 103.995 343.74 103.894C343.74 103.793 343.381 103.25 342.94 102.688C342.5 102.126 342.054 101.555 341.949 101.419C341.39 100.7 338.935 97.2635 337.985 95.8691C337.384 94.9869 336.656 94.0543 336.367 93.7956C336.078 93.5369 335.841 93.2284 335.841 93.1099C335.841 92.8767 332.134 87.6601 330.965 86.248C330.572 85.7732 329.762 84.6356 329.167 83.72C328.572 82.8044 327.994 82.0545 327.883 82.0545C327.773 82.0545 327.576 81.8049 327.446 81.4997C327.315 81.1945 326.705 80.2789 326.091 79.4648C325.476 78.6507 324.542 77.3467 324.015 76.568C323.488 75.7886 322.764 74.7899 322.405 74.3478C321.547 73.2894 319.535 70.5321 318.211 68.6C317.629 67.7492 316.747 66.5599 316.252 65.9567C315.758 65.3535 315.353 64.7771 315.353 64.6763C315.353 64.1995 314.226 62.999 313.367 62.5615C311.909 61.8181 172.101 61.8102 170.7 62.5536ZM199.905 69.3859C200.049 69.53 164.059 141.46 163.48 142.183C163.195 142.541 122.071 142.648 122.071 142.291C122.071 142.18 122.629 141.32 123.31 140.379C123.992 139.438 125.012 138.002 125.576 137.188C126.141 136.374 126.899 135.319 127.26 134.845C127.619 134.37 128.674 132.927 129.602 131.638C130.529 130.349 131.861 128.517 132.56 127.568C133.26 126.618 134.934 124.303 136.282 122.424C137.63 120.545 139.319 118.214 140.034 117.244C140.749 116.274 141.527 115.196 141.762 114.849C141.997 114.502 143.3 112.685 144.657 110.811C146.015 108.938 147.74 106.558 148.49 105.522C149.24 104.487 151.128 101.881 152.686 99.732C154.244 97.5831 156.019 95.1212 156.63 94.2612C157.745 92.6913 161.435 87.5861 165.273 82.3014C166.406 80.7413 167.785 78.8361 168.337 78.0678C168.89 77.2989 170.546 74.9955 172.017 72.9488L174.692 69.2274H187.219C194.108 69.2274 199.817 69.2988 199.905 69.3859ZM272.402 69.4927C272.402 69.8005 269.923 75.4265 265.184 85.8787C264.507 87.3706 263.258 90.1462 262.407 92.0456C261.557 93.9449 260.28 96.7756 259.571 98.3356C258.861 99.8964 257.637 102.616 256.851 104.379C256.064 106.143 254.119 110.472 252.529 114C250.938 117.527 249.196 121.413 248.657 122.634C248.118 123.855 247.34 125.576 246.928 126.457C246.516 127.34 245.811 128.893 245.363 129.911C243.452 134.244 242.279 136.697 242.086 136.762C241.973 136.799 241.477 135.912 240.984 134.789C240.492 133.666 239.406 131.249 238.572 129.418C237.738 127.586 236.411 124.645 235.622 122.881C233.945 119.133 231.958 114.714 231.239 113.137C230.673 111.896 229.129 108.448 226.984 103.639C226.197 101.876 224.921 99.0449 224.148 97.3493C223.376 95.653 222.097 92.8223 221.307 91.0586C220.517 89.2948 219.293 86.5755 218.587 85.0148C217.881 83.4547 216.661 80.7348 215.875 78.971C215.088 77.2072 213.825 74.3903 213.066 72.7104C212.308 71.0312 211.747 69.5602 211.82 69.4423C212.023 69.1128 272.402 69.1633 272.402 69.4927ZM309.326 69.4161C309.473 69.5156 310.639 71.0508 311.918 72.8277C313.196 74.6045 315.122 77.2682 316.197 78.7477C318.81 82.342 320.19 84.2531 321.524 86.1243C322.135 86.9809 323.513 88.8855 324.588 90.3571C325.661 91.8281 327.739 94.6974 329.205 96.7323C330.671 98.7672 333.117 102.153 334.642 104.256C336.167 106.359 338.588 109.704 340.022 111.69C348.689 123.689 350.368 126.01 351.516 127.568C353.021 129.61 356.734 134.739 358.304 136.944C358.915 137.802 359.944 139.229 360.59 140.114C361.236 140.999 361.831 141.896 361.912 142.107C362.071 142.521 321.231 142.714 320.652 142.303C320.512 142.204 314.801 130.965 307.962 117.33C301.122 103.695 292.937 87.3883 289.772 81.0937C286.608 74.799 284.077 69.5543 284.149 69.4383C284.307 69.1816 308.948 69.16 309.326 69.4161ZM206.2 75.0859C206.337 75.4592 207.413 77.8733 208.59 80.4512C209.767 83.029 211.266 86.3594 211.922 87.852C212.578 89.3439 213.746 91.9526 214.52 93.6489C215.294 95.3445 216.57 98.1752 217.356 99.9389C218.142 101.703 219.365 104.423 220.075 105.983C220.784 107.543 222.007 110.263 222.791 112.027C225.626 118.399 226.543 120.439 227.228 121.894C227.611 122.708 228.419 124.484 229.023 125.841C233.757 136.473 235.261 139.81 235.781 140.836C236.11 141.486 236.313 142.124 236.232 142.255C236.011 142.612 171.687 142.576 171.687 142.218C171.687 141.722 205.535 74.4074 205.785 74.4074C205.876 74.4074 206.063 74.7126 206.2 75.0859ZM284.276 86.0634C287.418 92.3383 295.029 107.483 301.189 119.719C307.35 131.954 312.391 142.084 312.391 142.228C312.391 142.414 302.833 142.492 280.177 142.492C254.476 142.492 247.964 142.429 247.964 142.182C247.964 141.916 249.655 137.976 251.165 134.722C251.418 134.179 252.368 132.07 253.279 130.034C256.389 123.085 258.143 119.181 259.319 116.59C259.965 115.166 261.164 112.501 261.983 110.67C265.836 102.055 267.803 97.6918 270.435 91.9218C270.96 90.7691 272.158 88.1048 273.096 86.0018C277.194 76.8097 278.196 74.6543 278.374 74.6543C278.478 74.6543 281.134 79.7884 284.276 86.0634ZM163.329 149.707C163.735 150.041 224.612 276.917 224.445 277.083C224.363 277.166 200.141 247.094 198.471 244.835C198.199 244.468 195.581 241.189 192.653 237.547C189.725 233.906 175.351 215.941 160.71 197.625C146.07 179.309 133.691 163.831 133.203 163.23C127.359 156.037 122.578 149.955 122.572 149.707C122.566 149.463 126.764 149.399 142.759 149.399C158.549 149.399 163.035 149.466 163.329 149.707ZM238.222 149.707C238.286 149.877 238.311 181.262 238.276 219.452L238.213 288.887L208.115 226.112C191.561 191.585 177.16 161.56 176.114 159.39C172.509 151.915 171.491 149.678 171.63 149.539C171.947 149.221 238.101 149.389 238.222 149.707ZM312.464 149.584C312.552 149.744 271.319 235.946 255.584 268.497C254.516 270.708 253.641 272.555 253.641 272.601C253.641 272.69 248.364 283.639 246.738 286.924L245.762 288.898L245.752 219.149L245.742 149.399H279.052C297.372 149.399 312.407 149.482 312.464 149.584ZM361.37 149.614C361.483 149.796 358.376 153.841 353.86 159.39C353.198 160.204 345.033 170.416 335.718 182.084C326.402 193.753 318.416 203.743 317.972 204.285C317.022 205.447 315.379 207.502 293.136 235.357C283.837 247.003 275.839 256.998 275.363 257.565C274.366 258.759 266.346 268.789 265.62 269.751C264.857 270.763 260.023 276.782 259.753 277.057C259.301 277.516 259.852 276.131 261.422 272.864C262.269 271.1 263.653 268.213 264.498 266.45C265.344 264.686 266.757 261.744 267.641 259.913C269.866 255.298 271.871 251.128 273.334 248.071C274.016 246.647 275.374 243.816 276.352 241.781C279.223 235.806 282.361 229.252 284.502 224.76C285.214 223.268 286.626 220.326 287.64 218.223C288.654 216.12 290.097 213.123 290.847 211.563C291.596 210.002 292.959 207.172 293.876 205.272C294.794 203.373 296.074 200.709 296.72 199.352C297.366 197.995 298.615 195.387 299.494 193.555C300.374 191.724 301.706 188.948 302.454 187.388C303.202 185.828 304.587 182.942 305.532 180.974C306.476 179.007 310.197 171.236 313.801 163.707C317.405 156.177 320.527 149.877 320.739 149.707C321.197 149.341 361.145 149.249 361.37 149.614Z" fill="#3C3C4B"/>
<path fill-rule="evenodd" clip-rule="evenodd" d="M174.488 70.029C174.014 70.5602 173.244 71.6179 166.624 80.8211C165.013 83.0597 163.125 85.6683 162.427 86.618C161.729 87.5683 159.84 90.177 158.229 92.4155C155.461 96.2633 148.731 105.582 145.402 110.176C144.566 111.33 142.678 113.938 141.206 115.974C139.734 118.009 137.96 120.451 137.263 121.401C136.567 122.35 135.086 124.403 133.973 125.964C132.86 127.524 131.098 129.967 130.057 131.391C126.739 135.932 122.564 141.783 122.564 141.892C122.564 141.951 131.757 141.997 142.991 141.995L163.418 141.992L181.5 105.994C191.444 86.1962 199.581 69.8797 199.581 69.7356C199.581 69.5548 195.791 69.4736 187.282 69.4736H174.982L174.488 70.029ZM211.924 69.6112C211.924 69.6871 212.521 71.0468 213.25 72.6331C213.98 74.22 215.271 77.0716 216.118 78.9709C216.966 80.8709 218.188 83.5902 218.835 85.0147C219.48 86.4392 220.705 89.1592 221.556 91.0585C222.406 92.9578 223.753 95.93 224.548 97.6629C225.343 99.3959 225.994 100.86 225.994 100.917C225.994 100.974 226.45 101.998 227.009 103.193C227.566 104.389 228.467 106.365 229.01 107.587C229.553 108.807 230.639 111.25 231.423 113.013C232.206 114.777 233.536 117.719 234.378 119.55C235.218 121.382 236.444 124.102 237.101 125.594C237.757 127.087 239.036 129.917 239.943 131.884C240.851 133.852 241.65 135.655 241.721 135.893C241.989 136.794 242.803 135.395 244.77 130.651C245.079 129.905 245.419 129.178 245.526 129.036C245.632 128.894 246.214 127.617 246.82 126.199C247.897 123.675 250.246 118.427 251.175 116.467C251.764 115.225 253.932 110.394 254.996 107.956C255.44 106.939 256.111 105.44 256.487 104.626C257.356 102.746 259.211 98.6263 261.042 94.512C261.828 92.7483 263.16 89.8069 264.003 87.975C264.846 86.1432 265.814 83.9786 266.154 83.1645C266.493 82.3504 267.306 80.5192 267.959 79.0947C268.613 77.6702 269.824 75.0308 270.651 73.2304C271.478 71.4293 272.154 69.8476 272.154 69.7153C272.154 69.5594 261.486 69.4736 242.039 69.4736C225.476 69.4736 211.924 69.5359 211.924 69.6112ZM284.497 69.7612C284.497 70.0153 295.607 92.2564 314.881 130.589L320.618 141.998H341.086C352.344 141.998 361.518 141.909 361.472 141.801C361.427 141.693 360.002 139.685 358.304 137.341C356.607 134.995 354.552 132.152 353.738 131.022C352.923 129.891 351.035 127.282 349.541 125.223C348.048 123.164 346.159 120.556 345.345 119.426C344.53 118.296 342.642 115.689 341.148 113.632C339.655 111.575 337.933 109.194 337.322 108.341C336.711 107.488 335.333 105.582 334.259 104.105C333.186 102.628 331.107 99.7542 329.64 97.7193C328.174 95.6837 326.285 93.0751 325.444 91.9217C324.603 90.769 322.718 88.1604 321.256 86.1248C319.794 84.0899 316.504 79.5388 313.945 76.0112L309.292 69.5974L296.894 69.5332C287.485 69.4848 284.497 69.5398 284.497 69.7612ZM190.891 104.195C182.792 120.306 175.214 135.375 174.051 137.682L171.938 141.875L203.819 141.938C221.355 141.972 235.746 141.955 235.801 141.901C235.855 141.846 235.569 141.041 235.165 140.112C234.1 137.664 231.971 132.909 231.427 131.761C230.62 130.056 228.218 124.711 227.106 122.141C226.518 120.784 225.794 119.184 225.497 118.585C225.199 117.986 224.591 116.654 224.145 115.625C223.698 114.596 222.53 111.977 221.55 109.806C218.933 104.012 217.725 101.33 215.995 97.4723C215.144 95.573 213.869 92.7424 213.162 91.1816C210.825 86.0227 208.683 81.2337 207.29 78.0462C206.534 76.3165 205.848 74.9011 205.766 74.9011C205.684 74.9011 198.99 88.0831 190.891 104.195ZM276.768 78.2931C275.347 81.5566 273.008 86.7876 272.107 88.7151C271.538 89.9314 269.933 93.5126 268.402 96.9792C267.863 98.2 267.139 99.8098 266.794 100.556C265.896 102.496 261.632 111.952 259.562 116.59C259.047 117.743 257.853 120.408 256.908 122.511C255.962 124.614 254.019 128.943 252.589 132.131C251.159 135.319 249.588 138.795 249.099 139.854C248.611 140.913 248.21 141.828 248.21 141.888C248.21 141.949 262.597 141.998 280.181 141.998H312.151L302.182 122.202C296.699 111.315 289.141 96.2731 285.385 88.7767C281.63 81.2809 278.463 75.1474 278.347 75.1474C278.232 75.1474 277.521 76.5627 276.768 78.2931ZM125.715 153.531C135.028 165.134 152.383 186.841 152.804 187.411C153.223 187.981 163.051 200.255 173.797 213.633C175.42 215.652 177.023 217.651 177.358 218.072C177.694 218.495 184.308 226.777 192.056 236.478C199.804 246.179 206.416 254.462 206.75 254.885C207.084 255.308 209.579 258.412 212.294 261.782C215.009 265.153 217.453 268.207 217.724 268.569C219.08 270.377 223.627 275.927 223.696 275.858C223.739 275.815 222.763 273.68 221.526 271.115C220.29 268.549 218.692 265.228 217.976 263.736C217.26 262.244 215.952 259.524 215.069 257.692C214.185 255.861 212.85 253.086 212.102 251.525C211.353 249.965 209.995 247.134 209.084 245.235C208.172 243.335 206.84 240.56 206.124 239.068C205.408 237.575 204.143 234.939 203.313 233.209C202.482 231.479 201.125 228.648 200.297 226.919C199.469 225.189 198.205 222.552 197.488 221.06C195.148 216.192 193.251 212.239 191.687 208.973C187.835 200.927 185.486 196.036 183.097 191.088C180.324 185.347 178.227 180.976 175.46 175.177C174.035 172.193 172.228 168.418 171.445 166.79C170.66 165.162 169.38 162.497 168.6 160.869C167.82 159.242 166.312 156.105 165.249 153.901L163.317 149.892H143.056H122.795L125.715 153.531ZM171.934 149.995C171.934 150.207 172.93 152.365 174.961 156.553C176.112 158.927 178.224 163.312 179.652 166.297C181.081 169.281 183.044 173.373 184.015 175.389C184.986 177.405 186.874 181.345 188.21 184.146C190.681 189.326 192.758 193.648 196.029 200.412C197.032 202.487 197.853 204.222 197.853 204.266C197.853 204.31 199.03 206.775 200.468 209.743C201.907 212.711 203.617 216.25 204.268 217.606C207.269 223.854 208.506 226.436 209.704 228.954C210.414 230.446 211.745 233.221 212.661 235.121C214.328 238.579 215.573 241.175 218.217 246.715C218.995 248.343 220.407 251.284 221.357 253.252C222.306 255.219 223.669 258.05 224.386 259.543C225.639 262.151 226.636 264.223 230.382 272C232.01 275.378 232.939 277.315 236.392 284.527C237.19 286.193 237.843 287.67 237.843 287.81C237.843 287.949 237.953 287.995 238.09 287.911C238.253 287.81 238.336 264.514 238.336 218.825V149.892H205.135C186.875 149.892 171.934 149.938 171.934 149.995ZM245.742 219.128C245.742 257.207 245.783 288.317 245.832 288.26C245.883 288.203 256.591 265.901 269.629 238.698C291.817 192.407 294.884 186.014 298.561 178.384C299.346 176.756 300.489 174.37 301.102 173.081C301.715 171.792 304.403 166.185 307.076 160.623C309.748 155.06 311.993 150.37 312.065 150.2C312.17 149.955 305.456 149.892 278.969 149.892H245.742V219.128ZM294.133 205.211C279.546 235.636 265.908 264.081 263.825 268.423C261.742 272.765 260.19 276.15 260.378 275.947C260.749 275.544 265.304 269.883 266.107 268.828C266.563 268.226 285.129 244.964 287.593 241.904C288.194 241.158 290.194 238.66 292.037 236.354C293.881 234.048 295.882 231.55 296.484 230.804C297.086 230.058 302.605 223.156 308.749 215.466C314.892 207.777 322.252 198.577 325.103 195.023C330.698 188.049 332.508 185.779 333.562 184.42C334.246 183.537 351.547 161.888 356.818 155.319C358.397 153.352 360.001 151.326 360.383 150.817L361.079 149.892H340.865H320.653L294.133 205.211Z" fill="#FFF16A"/>
<path fill-rule="evenodd" clip-rule="evenodd" d="M267.504 79.9684C267.091 80.8755 267.17 81.0694 267.617 80.2442C267.826 79.8591 267.95 79.4982 267.894 79.4419C267.837 79.3855 267.662 79.6226 267.504 79.9684ZM211.201 86.865C211.201 87.0005 211.359 87.3889 211.553 87.7282C211.747 88.0674 211.906 88.2345 211.906 88.0982C211.906 87.9627 211.747 87.5743 211.553 87.235C211.359 86.8958 211.201 86.7294 211.201 86.865ZM185.881 97.1023C185.67 97.5091 185.554 97.8424 185.622 97.8424C185.689 97.8424 185.917 97.5091 186.128 97.1023C186.339 96.6956 186.455 96.3623 186.387 96.3623C186.32 96.3623 186.092 96.6956 185.881 97.1023ZM193.287 99.0757C193.076 99.4831 192.959 99.8158 193.027 99.8158C193.095 99.8158 193.323 99.4831 193.534 99.0757C193.744 98.669 193.861 98.3356 193.793 98.3356C193.725 98.3356 193.497 98.669 193.287 99.0757ZM190.818 104.009C190.607 104.417 190.491 104.749 190.559 104.749C190.626 104.749 190.854 104.417 191.065 104.009C191.276 103.603 191.392 103.269 191.324 103.269C191.257 103.269 191.029 103.603 190.818 104.009ZM298.937 115.85C299.148 116.257 299.376 116.59 299.444 116.59C299.512 116.59 299.395 116.257 299.184 115.85C298.974 115.443 298.746 115.11 298.678 115.11C298.61 115.11 298.727 115.443 298.937 115.85ZM301.652 121.277C301.864 121.684 302.092 122.017 302.159 122.017C302.227 122.017 302.11 121.684 301.9 121.277C301.689 120.87 301.461 120.537 301.393 120.537C301.325 120.537 301.442 120.87 301.652 121.277ZM235.639 122.634C235.639 122.769 235.797 123.158 235.991 123.497C236.185 123.836 236.344 124.003 236.344 123.867C236.344 123.732 236.185 123.343 235.991 123.004C235.797 122.665 235.639 122.498 235.639 122.634ZM247.757 123.878C247.343 124.785 247.422 124.979 247.869 124.154C248.078 123.769 248.203 123.407 248.147 123.351C248.089 123.295 247.914 123.532 247.757 123.878ZM312.021 125.224C312.231 125.631 312.459 125.964 312.527 125.964C312.595 125.964 312.478 125.631 312.267 125.224C312.057 124.817 311.829 124.484 311.761 124.484C311.693 124.484 311.81 124.817 312.021 125.224ZM304.121 126.211C304.332 126.618 304.56 126.951 304.628 126.951C304.695 126.951 304.579 126.618 304.368 126.211C304.157 125.804 303.93 125.47 303.862 125.47C303.794 125.47 303.911 125.804 304.121 126.211ZM314.489 130.158C314.7 130.565 314.927 130.898 314.995 130.898C315.063 130.898 314.946 130.565 314.736 130.158C314.525 129.75 314.297 129.418 314.229 129.418C314.162 129.418 314.278 129.75 314.489 130.158ZM122.318 142.06C122.318 142.162 131.565 142.219 142.868 142.187C154.17 142.156 160.141 142.1 156.136 142.064C137.132 141.894 122.318 141.892 122.318 142.06ZM203.901 141.999L171.811 142.124L203.963 142.185C225.273 142.225 236.114 142.162 236.114 141.999C236.114 141.863 236.087 141.779 236.053 141.812C236.019 141.845 221.55 141.929 203.901 141.999ZM341.025 141.999L320.413 142.126L341.087 142.186C354.744 142.225 361.76 142.162 361.76 141.999C361.76 141.863 361.733 141.778 361.698 141.811C361.664 141.844 352.361 141.928 341.025 141.999ZM263.946 142.183C272.805 142.219 287.302 142.219 296.16 142.183C305.019 142.148 297.771 142.118 280.054 142.118C262.336 142.118 255.088 142.148 263.946 142.183ZM129.723 149.826C148.727 149.997 163.484 149.998 163.38 149.83C163.317 149.729 154.08 149.672 142.854 149.703C131.627 149.735 125.718 149.79 129.723 149.826ZM171.687 149.83C171.687 149.998 194.834 149.997 226.487 149.828C233.072 149.793 223.436 149.737 205.074 149.705C186.711 149.672 171.687 149.729 171.687 149.83ZM262.342 149.83C271.54 149.866 286.592 149.866 295.79 149.83C304.988 149.795 297.463 149.765 279.066 149.765C260.67 149.765 253.144 149.795 262.342 149.83ZM340.869 149.83C360.049 149.892 361.061 149.917 360.74 150.325C360.434 150.715 360.443 150.724 360.835 150.417C361.072 150.231 361.267 149.981 361.267 149.862C361.267 149.739 352.492 149.672 340.964 149.706L320.66 149.766L340.869 149.83ZM309.725 154.955C309.43 155.562 309.24 156.059 309.303 156.059C309.471 156.059 310.468 154.055 310.356 153.944C310.304 153.892 310.02 154.347 309.725 154.955ZM307.131 160.379C306.906 160.852 306.772 161.239 306.834 161.239C307.003 161.239 307.753 159.729 307.639 159.616C307.586 159.563 307.358 159.906 307.131 160.379ZM174.452 173.199C174.748 173.806 175.032 174.261 175.083 174.209C175.195 174.097 174.198 172.094 174.031 172.094C173.967 172.094 174.157 172.591 174.452 173.199ZM177.415 179.365C177.71 179.973 177.994 180.428 178.046 180.376C178.158 180.264 177.16 178.261 176.993 178.261C176.93 178.261 177.12 178.758 177.415 179.365ZM179.607 183.811C179.607 183.947 179.82 184.447 180.08 184.921C180.34 185.396 180.553 185.673 180.553 185.538C180.553 185.402 180.34 184.902 180.08 184.428C179.82 183.953 179.607 183.676 179.607 183.811ZM182.569 189.978C182.569 190.114 182.782 190.613 183.042 191.088C183.302 191.563 183.515 191.841 183.515 191.705C183.515 191.569 183.302 191.07 183.042 190.595C182.782 190.12 182.569 189.843 182.569 189.978ZM185.881 197.008C186.092 197.416 186.32 197.748 186.387 197.748C186.455 197.748 186.339 197.416 186.128 197.008C185.917 196.602 185.689 196.268 185.622 196.268C185.554 196.268 185.67 196.602 185.881 197.008ZM188.247 201.819C188.247 201.954 188.46 202.454 188.72 202.929C188.98 203.404 189.193 203.681 189.193 203.546C189.193 203.41 188.98 202.911 188.72 202.436C188.46 201.961 188.247 201.683 188.247 201.819ZM191.189 207.957C191.189 208.222 191.923 209.589 192.065 209.589C192.133 209.589 192.005 209.229 191.78 208.787C191.322 207.887 191.189 207.7 191.189 207.957ZM193.904 213.628C193.904 213.895 194.884 215.757 195.025 215.757C195.092 215.757 194.91 215.284 194.619 214.708C194.047 213.574 193.904 213.358 193.904 213.628ZM196.619 219.304C196.619 219.569 197.353 220.937 197.495 220.937C197.564 220.937 197.436 220.576 197.211 220.135C196.753 219.234 196.619 219.047 196.619 219.304ZM199.581 225.469C199.581 225.735 200.562 227.597 200.702 227.597C200.77 227.597 200.587 227.125 200.296 226.549C199.724 225.415 199.581 225.199 199.581 225.469ZM205.258 237.312C205.258 237.577 205.993 238.944 206.135 238.944C206.203 238.944 206.075 238.584 205.851 238.142C205.393 237.243 205.258 237.055 205.258 237.312ZM221.6 254.11C221.896 254.718 222.18 255.172 222.231 255.12C222.343 255.009 221.346 253.005 221.178 253.005C221.115 253.005 221.305 253.502 221.6 254.11ZM213.898 255.32C213.898 255.585 214.633 256.952 214.775 256.952C214.843 256.952 214.715 256.591 214.491 256.151C214.032 255.25 213.898 255.062 213.898 255.32ZM224.636 260.406C224.847 260.813 225.074 261.146 225.143 261.146C225.211 261.146 225.093 260.813 224.883 260.406C224.673 259.999 224.445 259.666 224.376 259.666C224.309 259.666 224.426 259.999 224.636 260.406ZM227.278 265.951C227.573 266.558 227.857 267.013 227.909 266.961C228.02 266.85 227.024 264.846 226.856 264.846C226.793 264.846 226.982 265.343 227.278 265.951ZM229.719 270.889C229.719 271.026 229.987 271.636 230.314 272.247C230.641 272.857 230.909 273.245 230.909 273.11C230.909 272.974 230.641 272.364 230.314 271.753C229.987 271.142 229.719 270.754 229.719 270.889ZM232.68 277.057C232.68 277.193 232.893 277.692 233.153 278.167C233.413 278.642 233.625 278.919 233.625 278.784C233.625 278.648 233.413 278.148 233.153 277.673C232.893 277.199 232.68 276.921 232.68 277.057ZM235.918 283.958C236.213 284.566 236.497 285.021 236.549 284.969C236.66 284.857 235.663 282.854 235.496 282.854C235.432 282.854 235.622 283.351 235.918 283.958Z" fill="#AC9F4C"/>
<path fill-rule="evenodd" clip-rule="evenodd" d="M174.371 69.659C174.07 70.0428 174.077 70.0559 174.433 69.7776C174.748 69.5326 177.552 69.4796 187.431 69.5313C194.359 69.5674 199.977 69.5143 199.913 69.4121C199.635 68.9615 174.729 69.2026 174.371 69.659ZM211.841 69.3918C211.751 69.4822 211.678 69.6767 211.68 69.8234C211.683 69.9826 211.763 69.9662 211.88 69.7835C212.034 69.5412 218.496 69.4626 242.3 69.4121L272.525 69.3486L242.265 69.2877C225.622 69.2543 211.932 69.3014 211.841 69.3918ZM284.168 69.3918C284.077 69.4822 284.005 69.6767 284.007 69.8234C284.009 69.9839 284.089 69.9682 284.205 69.7848C284.355 69.549 287.269 69.4632 296.852 69.4121L309.305 69.346L296.818 69.2864C289.951 69.2543 284.258 69.3014 284.168 69.3918ZM287.336 76.3814C287.546 76.7881 287.774 77.1214 287.842 77.1214C287.91 77.1214 287.793 76.7881 287.583 76.3814C287.372 75.974 287.144 75.6413 287.076 75.6413C287.008 75.6413 287.125 75.974 287.336 76.3814ZM289.928 81.5613C290.204 82.1042 290.487 82.5483 290.555 82.5483C290.622 82.5483 290.451 82.1042 290.174 81.5613C289.898 81.019 289.615 80.5749 289.547 80.5749C289.479 80.5749 289.65 81.019 289.928 81.5613ZM176.624 115.85C176.348 116.393 176.176 116.837 176.244 116.837C176.312 116.837 176.594 116.393 176.871 115.85C177.148 115.308 177.319 114.864 177.251 114.864C177.184 114.864 176.901 115.308 176.624 115.85ZM174.279 136.572C174.069 136.978 173.952 137.312 174.02 137.312C174.088 137.312 174.315 136.978 174.526 136.572C174.737 136.164 174.853 135.832 174.786 135.832C174.718 135.832 174.49 136.164 174.279 136.572ZM235.996 141.69L236.148 142.245L203.856 142.306L171.564 142.367L203.764 142.43C236.196 142.494 236.685 142.481 236.128 141.591C235.872 141.179 235.859 141.189 235.996 141.69ZM312.144 141.997C312.144 142.159 301.139 142.265 279.992 142.307L247.84 142.371L280.115 142.431C308.667 142.485 312.391 142.449 312.391 142.122C312.391 141.918 312.335 141.752 312.267 141.752C312.2 141.752 312.144 141.862 312.144 141.997ZM122.071 142.307C122.071 142.409 131.374 142.466 142.744 142.434C154.115 142.402 160.086 142.347 156.012 142.311C136.654 142.141 122.071 142.139 122.071 142.307ZM341.272 142.245L320.66 142.373L341.334 142.432C354.991 142.471 362.007 142.408 362.007 142.245C362.007 142.109 361.979 142.025 361.946 142.058C361.911 142.091 352.608 142.175 341.272 142.245ZM132.624 149.584C138.224 149.621 147.388 149.621 152.988 149.584C158.589 149.547 154.007 149.517 142.806 149.517C131.605 149.517 127.024 149.547 132.624 149.584ZM171.602 149.584C171.498 149.751 194.587 149.75 226.241 149.581C232.826 149.546 223.251 149.491 204.965 149.458C186.678 149.426 171.665 149.482 171.602 149.584ZM257.591 149.581C289.233 149.75 312.58 149.751 312.476 149.584C312.413 149.482 297.344 149.426 278.99 149.458C260.635 149.491 251.006 149.546 257.591 149.581ZM328.189 149.579C347.218 149.75 361.455 149.752 361.352 149.584C361.289 149.482 352.163 149.425 341.072 149.457C329.981 149.488 324.184 149.544 328.189 149.579ZM293.001 206.899C292.784 207.318 292.65 207.705 292.704 207.759C292.758 207.813 292.986 207.469 293.212 206.996C293.719 205.933 293.543 205.851 293.001 206.899ZM287.252 218.851C286.839 219.758 286.918 219.951 287.365 219.126C287.574 218.741 287.698 218.38 287.642 218.324C287.585 218.267 287.41 218.504 287.252 218.851ZM284.373 224.884C284.163 225.291 284.046 225.624 284.114 225.624C284.182 225.624 284.409 225.291 284.62 224.884C284.831 224.477 284.947 224.144 284.88 224.144C284.812 224.144 284.584 224.477 284.373 224.884Z" fill="#8B844C"/>
</g>
<g clip-path="url(#clip0)" filter="url(#filter1_d)">
<path fill-rule="evenodd" clip-rule="evenodd" d="M365.827 185.114C368.363 185.33 373.21 186.123 373.349 186.343C373.381 186.395 373.728 186.507 374.118 186.591C375.184 186.82 377.703 187.557 378.128 187.764C378.334 187.863 379.191 188.198 380.034 188.507C380.877 188.816 381.596 189.117 381.633 189.176C381.669 189.234 381.993 189.396 382.352 189.536C383.271 189.894 384.331 190.394 384.509 190.554C384.593 190.629 385.221 190.972 385.905 191.318C386.589 191.663 387.175 191.986 387.208 192.035C387.24 192.084 387.694 192.366 388.215 192.662C388.736 192.958 389.189 193.24 389.222 193.288C389.254 193.336 389.734 193.669 390.288 194.027C390.842 194.385 391.323 194.726 391.358 194.784C391.393 194.843 391.739 195.113 392.128 195.383C394.357 196.937 397.705 200.024 399.876 202.528C400.29 203.006 400.888 203.688 401.203 204.045C401.52 204.402 401.779 204.737 401.78 204.79C401.78 204.842 401.98 205.111 402.224 205.387C402.467 205.663 402.815 206.095 402.997 206.346L403.327 206.804L403.801 206.491C404.061 206.319 404.376 206.072 404.5 205.941C404.625 205.811 404.903 205.609 405.118 205.494C405.333 205.378 405.813 205.068 406.184 204.805C406.555 204.542 407.248 204.124 407.724 203.877C408.2 203.629 408.669 203.358 408.767 203.273C408.865 203.188 409.398 202.913 409.952 202.662C410.506 202.411 411.278 202.047 411.669 201.854C412.362 201.511 414.156 200.849 414.866 200.673C415.061 200.625 415.248 200.543 415.281 200.491C415.367 200.354 417.55 199.79 419.428 199.418C422.537 198.802 423.018 198.747 425.943 198.663C428.561 198.588 431.479 198.736 432.689 199.006C432.986 199.073 433.814 199.237 434.531 199.373C436.323 199.712 438.855 200.372 438.855 200.5C438.855 200.559 438.925 200.606 439.011 200.606C439.281 200.606 441.731 201.467 442.349 201.78C442.675 201.945 443.394 202.282 443.948 202.53C444.502 202.777 445.087 203.069 445.247 203.178C445.408 203.286 445.993 203.626 446.547 203.932C447.102 204.238 447.629 204.566 447.719 204.661C447.81 204.755 448.131 204.966 448.433 205.13C448.995 205.433 450.798 206.753 451.514 207.385C451.733 207.579 452.186 207.961 452.521 208.234C453.122 208.723 454.805 210.348 455.497 211.104C456.839 212.571 457.216 213.007 457.217 213.095C457.217 213.15 457.471 213.482 457.779 213.833C458.088 214.184 458.527 214.742 458.755 215.073C458.983 215.404 459.199 215.703 459.237 215.737C459.383 215.868 460.295 217.342 460.295 217.445C460.295 217.505 460.415 217.674 460.562 217.82C460.708 217.966 461.068 218.573 461.361 219.169C461.655 219.764 461.98 220.354 462.085 220.48C462.19 220.605 462.479 221.194 462.728 221.788C462.976 222.382 463.297 223.092 463.44 223.365C463.582 223.638 463.903 224.475 464.152 225.226C464.401 225.976 464.64 226.618 464.682 226.652C464.785 226.736 465.33 228.801 465.63 230.249C465.764 230.897 465.922 231.519 465.981 231.633C466.04 231.746 466.18 232.481 466.292 233.267L466.496 234.695L467.512 234.768C470.077 234.953 473.55 235.458 473.854 235.69C473.922 235.741 474.377 235.884 474.865 236.007C476.324 236.375 477.697 236.827 478.282 237.131C478.586 237.289 479.1 237.51 479.426 237.622C480.697 238.06 483.98 239.932 485.575 241.127C485.829 241.317 486.144 241.538 486.274 241.618C487.476 242.356 491.17 245.894 492.66 247.737C493.544 248.83 494.173 249.686 494.177 249.801C494.179 249.86 494.331 250.062 494.515 250.251C494.699 250.44 494.971 250.842 495.12 251.145C495.268 251.447 495.489 251.805 495.609 251.941C495.837 252.197 496.111 252.678 496.636 253.745C496.806 254.09 496.982 254.401 497.028 254.435C497.121 254.504 498.02 256.512 498.149 256.938C498.195 257.09 498.293 257.277 498.367 257.355C498.441 257.432 498.759 258.328 499.073 259.345C499.388 260.362 499.716 261.362 499.802 261.566C500.005 262.049 500.498 264.512 500.769 266.403C501.077 268.553 501.077 275.293 500.769 277.442C500.498 279.33 500.005 281.795 499.803 282.279C499.716 282.484 499.446 283.321 499.202 284.14C498.772 285.582 498.529 286.194 497.503 288.419C496.958 289.599 496.116 291.206 495.805 291.657C495.693 291.82 495.377 292.316 495.105 292.76C494.831 293.203 494.489 293.705 494.344 293.876C494.199 294.047 493.938 294.409 493.765 294.682C492.905 296.038 488.658 300.485 487.362 301.385C487.102 301.566 486.755 301.84 486.593 301.992C486.43 302.144 485.95 302.503 485.527 302.788C485.103 303.074 484.629 303.404 484.473 303.522C483.822 304.013 482.097 304.959 479.722 306.126C478.845 306.557 476.176 307.519 475.859 307.519C475.769 307.519 475.695 307.565 475.695 307.622C475.695 307.843 472.35 308.533 469.89 308.819C467.464 309.101 310.624 309.101 308.198 308.819C305.829 308.543 303.337 308.05 302.571 307.704C302.376 307.616 301.577 307.334 300.794 307.079C299.456 306.642 298.725 306.321 296.589 305.239C295.548 304.71 294.019 303.827 293.615 303.521C293.459 303.402 292.906 303.015 292.384 302.661C291.863 302.306 291.383 301.948 291.318 301.864C291.253 301.78 290.986 301.564 290.726 301.384C289.437 300.492 285.176 296.032 284.325 294.682C284.153 294.409 283.948 294.13 283.868 294.062C283.426 293.682 281.478 290.347 280.644 288.542C279.609 286.307 279.304 285.54 278.886 284.14C278.642 283.321 278.372 282.484 278.286 282.279C278.083 281.797 277.591 279.334 277.319 277.442C276.988 275.137 277.014 268.415 277.364 266.092C277.682 263.983 278.218 261.455 278.358 261.401C278.417 261.378 278.465 261.29 278.465 261.205C278.465 260.941 279.515 257.643 279.687 257.364C279.777 257.219 280.079 256.553 280.359 255.883C280.639 255.214 280.927 254.6 280.999 254.519C281.072 254.439 281.371 253.88 281.664 253.278C281.957 252.677 282.291 252.078 282.407 251.948C282.521 251.818 282.797 251.389 283.019 250.996C283.24 250.602 283.519 250.168 283.639 250.031C283.758 249.895 284.092 249.448 284.381 249.039C286.06 246.665 290.746 241.999 291.923 241.53C292.079 241.468 292.207 241.371 292.207 241.314C292.207 241.257 292.646 240.937 293.184 240.604C293.721 240.27 294.224 239.932 294.301 239.853C294.378 239.774 294.911 239.467 295.485 239.172C296.06 238.876 296.561 238.587 296.599 238.53C296.637 238.473 297.33 238.146 298.139 237.805C298.948 237.463 299.77 237.107 299.965 237.013C300.393 236.807 302.992 236.01 303.645 235.884C303.902 235.834 304.138 235.752 304.171 235.7C304.234 235.6 307.667 234.962 308.141 234.962C308.451 234.962 308.489 234.835 308.617 233.412C308.74 232.036 309.252 228.74 309.366 228.588C309.423 228.512 309.507 228.227 309.552 227.954C309.706 227.016 310.569 223.523 310.742 223.134C310.838 222.92 311.136 222.048 311.404 221.194C311.673 220.342 311.965 219.525 312.053 219.38C312.14 219.234 312.398 218.62 312.625 218.016C313.03 216.935 314.641 213.516 314.807 213.385C314.853 213.349 315.104 212.886 315.364 212.356C315.625 211.828 315.964 211.241 316.116 211.054C316.269 210.867 316.503 210.491 316.635 210.218C316.767 209.945 317.215 209.235 317.63 208.641C318.046 208.047 318.385 207.512 318.385 207.453C318.385 207.395 318.524 207.211 318.694 207.046C318.864 206.881 319.166 206.494 319.366 206.187C319.565 205.88 319.936 205.378 320.189 205.071C320.444 204.764 320.927 204.179 321.266 203.772C322.328 202.489 324.319 200.379 325.611 199.165C327.576 197.32 327.891 197.039 328.395 196.689C328.655 196.507 328.887 196.309 328.909 196.249C328.93 196.188 329.349 195.857 329.838 195.513C330.328 195.169 330.825 194.792 330.945 194.677C331.063 194.561 331.472 194.272 331.851 194.034C332.23 193.796 332.771 193.419 333.053 193.196C333.335 192.974 333.618 192.792 333.681 192.792C333.744 192.792 334.1 192.588 334.472 192.339C335.835 191.423 339.956 189.319 340.385 189.319C340.468 189.319 340.536 189.27 340.536 189.209C340.536 189.104 343.069 188.076 343.322 188.078C343.388 188.078 343.628 187.976 343.855 187.851C344.297 187.607 346.271 187.004 347.821 186.638C348.343 186.515 348.796 186.376 348.828 186.329C348.984 186.103 353.673 185.353 356.469 185.106C358.115 184.961 364.09 184.966 365.827 185.114ZM355.652 188.507C333.621 191.304 315.903 208.569 312.241 230.807C311.655 234.362 311.603 234.917 311.529 238.435C311.439 242.745 311.373 242.933 309.94 242.933C308.819 242.933 308.435 242.174 308.435 239.957V238.317L308.109 238.376C307.93 238.409 307.277 238.522 306.658 238.63C296.046 240.467 286.563 248.542 282.492 259.21C274.599 279.892 287.372 302.659 308.494 305.558C310.641 305.853 468.211 305.792 470.009 305.496C496.828 301.079 507.442 267.148 488.101 247.659C481.397 240.903 474.697 238.279 463.65 238.081C459.332 238.005 459.112 237.989 458.793 237.745C457.694 236.902 457.994 235.273 459.307 234.954C459.557 234.893 460.528 234.842 461.464 234.841L463.166 234.838L463.082 234.125C462.681 230.697 461.119 225.88 459.189 222.125C448.988 202.269 424.621 195.99 406.635 208.583C405.503 209.375 403.557 210.939 402.211 212.138C400.23 213.902 399.858 214.067 398.958 213.579C397.708 212.902 397.973 211.697 399.7 210.207C401.035 209.054 400.997 209.224 400.156 208.123C389.311 193.953 372.193 186.407 355.652 188.507Z" fill="#3C3C4C"/>
<path fill-rule="evenodd" clip-rule="evenodd" d="M363.517 188.4C363.81 188.426 364.743 188.507 365.59 188.579C377.023 189.545 388.452 195.247 396.566 204.033C398.209 205.812 400.249 208.302 400.635 209C400.685 209.09 400.264 209.554 399.547 210.2C397.988 211.606 397.763 212.29 398.518 213.326C399.266 214.354 400.993 213.821 402.37 212.139C402.503 211.977 404.859 210.033 405.687 209.402C417.035 200.763 432.511 199.784 444.718 206.935C454.123 212.444 460.578 221.7 462.73 232.763C463.153 234.937 463.326 234.714 461.221 234.714C458.731 234.714 458.044 235.094 458.045 236.469C458.046 238.077 458.294 238.15 464.026 238.223C468.043 238.274 468.999 238.322 470.305 238.539C492.462 242.223 504.473 267.148 494.037 287.79C489.196 297.368 480.328 303.795 469.772 305.375C467.469 305.72 310.644 305.72 308.28 305.375C298.152 303.898 289.414 297.749 284.474 288.623C274.853 270.851 282.329 248.29 300.38 240.623C302.406 239.762 305.822 238.778 307.74 238.503L308.289 238.424L308.336 240.135C308.397 242.414 308.745 243.024 309.979 243.024C311.399 243.024 311.633 242.471 311.633 239.12C311.633 221.556 321.172 204.539 336.154 195.373C337.564 194.511 339.438 193.487 340.333 193.09C340.71 192.922 341.372 192.616 341.804 192.408C347.485 189.684 357.438 187.846 363.517 188.4Z" fill="#F3F3E3"/>
<path fill-rule="evenodd" clip-rule="evenodd" d="M364.139 188.416C363.927 188.444 363.58 188.444 363.369 188.416C363.157 188.389 363.33 188.367 363.754 188.367C364.177 188.367 364.35 188.389 364.139 188.416ZM358.808 188.416C358.596 188.444 358.25 188.444 358.038 188.416C357.826 188.389 358 188.367 358.423 188.367C358.847 188.367 359.02 188.389 358.808 188.416ZM365.501 188.537C365.387 188.568 365.2 188.568 365.086 188.537C364.973 188.505 365.065 188.48 365.294 188.48C365.522 188.48 365.615 188.505 365.501 188.537ZM356.972 188.537C356.858 188.568 356.672 188.568 356.557 188.537C356.444 188.505 356.537 188.48 356.765 188.48C356.993 188.48 357.086 188.505 356.972 188.537ZM339.233 193.592C339.233 193.626 339.074 193.74 338.878 193.846C338.683 193.952 338.523 194.011 338.523 193.977C338.523 193.942 338.683 193.828 338.878 193.722C339.074 193.616 339.233 193.558 339.233 193.592ZM429.055 202.184C428.845 202.211 428.472 202.211 428.226 202.184C427.98 202.157 428.152 202.135 428.608 202.135C429.065 202.134 429.266 202.156 429.055 202.184ZM426.206 202.185C425.928 202.211 425.501 202.211 425.259 202.184C425.016 202.157 425.244 202.136 425.766 202.136C426.286 202.137 426.485 202.159 426.206 202.185ZM430.591 202.306C430.444 202.336 430.23 202.335 430.117 202.304C430.004 202.272 430.125 202.248 430.385 202.25C430.646 202.251 430.738 202.276 430.591 202.306ZM423.957 202.306C423.81 202.336 423.597 202.335 423.484 202.304C423.37 202.272 423.491 202.248 423.752 202.25C424.012 202.251 424.105 202.276 423.957 202.306ZM326.203 203.396C325.587 204.044 325.056 204.574 325.023 204.574C324.991 204.574 325.468 204.044 326.085 203.396C326.701 202.749 327.232 202.218 327.265 202.218C327.297 202.218 326.82 202.749 326.203 203.396ZM431.718 202.428C431.604 202.459 431.417 202.459 431.303 202.428C431.189 202.397 431.283 202.371 431.511 202.371C431.739 202.371 431.832 202.397 431.718 202.428ZM422.833 202.428C422.72 202.459 422.533 202.459 422.419 202.428C422.305 202.397 422.398 202.371 422.626 202.371C422.854 202.371 422.948 202.397 422.833 202.428ZM396.391 203.738L397.217 204.637L396.359 203.772C395.886 203.296 395.5 202.892 395.5 202.873C395.5 202.781 395.624 202.902 396.391 203.738ZM398.054 205.598L398.402 206.001L398.017 205.637C397.805 205.436 397.632 205.255 397.632 205.233C397.632 205.138 397.73 205.222 398.054 205.598ZM400.76 209.022C400.795 209.08 400.678 209.262 400.501 209.425L400.179 209.722L400.447 209.402C400.594 209.227 400.678 209.046 400.634 209C400.59 208.953 400.586 208.916 400.626 208.916C400.666 208.916 400.726 208.963 400.76 209.022ZM451.654 212.11L452.063 212.575L451.619 212.147C451.374 211.912 451.174 211.703 451.174 211.682C451.174 211.587 451.275 211.676 451.654 212.11ZM398.195 212.202C398.193 212.475 398.169 212.572 398.141 212.418C398.112 212.264 398.113 212.04 398.143 211.922C398.173 211.804 398.196 211.93 398.195 212.202ZM463.1 234.528C463.077 234.764 462.987 234.776 461.242 234.781L459.407 234.785L461.205 234.746C462.786 234.712 463.011 234.682 463.064 234.493C463.11 234.332 463.119 234.341 463.1 234.528ZM467.965 238.272C467.851 238.304 467.665 238.304 467.551 238.272C467.437 238.241 467.53 238.216 467.758 238.216C467.986 238.216 468.079 238.241 467.965 238.272ZM308.389 239.923C308.389 240.776 308.371 241.124 308.347 240.698C308.324 240.272 308.324 239.574 308.347 239.148C308.371 238.722 308.389 239.07 308.389 239.923ZM290.252 247.489C289.865 247.898 289.522 248.233 289.49 248.233C289.457 248.233 289.747 247.898 290.134 247.489C290.521 247.079 290.863 246.745 290.896 246.745C290.929 246.745 290.639 247.079 290.252 247.489ZM489.739 249.505L490.087 249.907L489.702 249.543C489.343 249.204 489.262 249.101 489.354 249.101C489.374 249.101 489.548 249.282 489.739 249.505ZM280.327 269.504C280.326 269.845 280.303 269.97 280.276 269.782C280.248 269.593 280.25 269.314 280.278 269.161C280.306 269.009 280.328 269.163 280.327 269.504ZM497.812 269.628C497.811 269.969 497.788 270.094 497.761 269.905C497.733 269.717 497.735 269.438 497.763 269.285C497.791 269.133 497.813 269.287 497.812 269.628ZM280.209 272.109C280.208 272.45 280.185 272.574 280.157 272.386C280.13 272.197 280.131 271.918 280.159 271.766C280.187 271.613 280.209 271.768 280.209 272.109ZM497.812 274.217C497.811 274.558 497.788 274.683 497.761 274.495C497.733 274.306 497.735 274.027 497.763 273.874C497.791 273.722 497.813 273.876 497.812 274.217ZM280.327 274.341C280.326 274.682 280.303 274.807 280.276 274.618C280.248 274.43 280.25 274.151 280.278 273.999C280.306 273.846 280.328 274 280.327 274.341ZM289.723 295.829L290.37 296.543L289.689 295.865C289.057 295.234 288.954 295.116 289.042 295.116C289.061 295.116 289.367 295.437 289.723 295.829ZM488.547 295.736C488.292 296.009 488.058 296.232 488.025 296.232C487.993 296.232 488.174 296.009 488.428 295.736C488.683 295.463 488.918 295.24 488.95 295.24C488.983 295.24 488.801 295.463 488.547 295.736ZM468.201 305.623C468.02 305.652 467.754 305.652 467.608 305.622C467.463 305.592 467.61 305.569 467.936 305.57C468.262 305.571 468.38 305.595 468.201 305.623ZM310.417 305.623C310.238 305.652 309.971 305.652 309.825 305.622C309.679 305.592 309.827 305.569 310.152 305.57C310.478 305.571 310.598 305.595 310.417 305.623ZM427.572 305.752C406.349 305.769 371.621 305.769 350.398 305.752C329.175 305.734 346.539 305.72 388.985 305.72C431.431 305.72 448.795 305.734 427.572 305.752Z" fill="#ACAEA9"/>
<path fill-rule="evenodd" clip-rule="evenodd" d="M361.474 188.294C361.164 188.32 360.658 188.32 360.348 188.294C360.039 188.269 360.292 188.248 360.911 188.248C361.53 188.248 361.783 188.269 361.474 188.294ZM311.584 239.241C311.584 240.537 311.566 241.051 311.545 240.382C311.523 239.713 311.523 238.652 311.545 238.025C311.566 237.398 311.584 237.945 311.584 239.241ZM463.339 238.155C462.635 238.177 461.516 238.177 460.852 238.155C460.187 238.133 460.763 238.115 462.131 238.115C463.499 238.115 464.043 238.134 463.339 238.155ZM280.215 271.178C280.215 271.417 280.191 271.515 280.161 271.395C280.131 271.276 280.131 271.081 280.161 270.961C280.191 270.842 280.215 270.94 280.215 271.178ZM497.923 271.922C497.923 272.502 497.903 272.74 497.877 272.45C497.853 272.16 497.853 271.686 497.877 271.395C497.903 271.106 497.923 271.343 497.923 271.922ZM466.662 305.744C466.548 305.775 466.362 305.775 466.248 305.744C466.134 305.713 466.227 305.687 466.455 305.687C466.683 305.687 466.777 305.713 466.662 305.744Z" fill="#949494"/>
<path fill-rule="evenodd" clip-rule="evenodd" d="M363.194 188.292C362.983 188.32 362.61 188.32 362.365 188.293C362.119 188.266 362.291 188.244 362.747 188.243C363.203 188.243 363.404 188.265 363.194 188.292ZM359.578 188.291C359.399 188.32 359.106 188.32 358.927 188.291C358.748 188.263 358.894 188.24 359.253 188.24C359.611 188.24 359.757 188.263 359.578 188.291ZM365.264 188.412C365.15 188.443 364.964 188.443 364.849 188.412C364.736 188.381 364.829 188.355 365.057 188.355C365.285 188.355 365.378 188.381 365.264 188.412ZM357.327 188.412C357.214 188.443 357.027 188.443 356.913 188.412C356.799 188.381 356.892 188.355 357.12 188.355C357.348 188.355 357.442 188.381 357.327 188.412ZM356.143 188.537C356.029 188.568 355.842 188.568 355.729 188.537C355.614 188.505 355.708 188.48 355.936 188.48C356.164 188.48 356.257 188.505 356.143 188.537ZM397.757 205.164L398.165 205.629L397.721 205.201C397.307 204.804 397.222 204.699 397.313 204.699C397.333 204.699 397.533 204.908 397.757 205.164ZM452.245 212.606L452.892 213.319L452.21 212.641C451.578 212.011 451.475 211.893 451.563 211.893C451.582 211.893 451.888 212.213 452.245 212.606ZM311.598 236.326C311.598 236.702 311.575 236.855 311.549 236.667C311.521 236.479 311.521 236.173 311.549 235.985C311.575 235.797 311.598 235.951 311.598 236.326ZM466.544 238.152C466.364 238.18 466.072 238.18 465.892 238.152C465.713 238.123 465.86 238.099 466.218 238.099C466.577 238.099 466.723 238.123 466.544 238.152ZM465.122 238.148C465.008 238.179 464.822 238.179 464.708 238.148C464.594 238.117 464.687 238.091 464.915 238.091C465.143 238.091 465.237 238.117 465.122 238.148ZM289.897 247.737C289.642 248.01 289.407 248.233 289.375 248.233C289.342 248.233 289.524 248.01 289.778 247.737C290.033 247.464 290.267 247.241 290.3 247.241C290.332 247.241 290.151 247.464 289.897 247.737ZM489.442 249.07L489.85 249.535L489.406 249.108C488.992 248.71 488.907 248.605 488.997 248.605C489.018 248.605 489.217 248.814 489.442 249.07ZM497.931 270.372C497.929 270.713 497.906 270.838 497.879 270.649C497.852 270.461 497.853 270.182 497.881 270.03C497.909 269.877 497.931 270.031 497.931 270.372ZM280.21 270.31C280.21 270.617 280.187 270.743 280.159 270.589C280.131 270.436 280.131 270.184 280.159 270.031C280.187 269.878 280.21 270.003 280.21 270.31ZM497.931 273.473C497.929 273.814 497.906 273.939 497.879 273.75C497.852 273.562 497.853 273.283 497.881 273.13C497.909 272.978 497.931 273.132 497.931 273.473ZM280.213 273.597C280.211 273.87 280.187 273.967 280.159 273.813C280.13 273.659 280.131 273.435 280.161 273.317C280.191 273.198 280.214 273.324 280.213 273.597ZM489.554 294.682C489.333 294.921 489.126 295.116 489.093 295.116C489.06 295.116 489.215 294.921 489.435 294.682C489.657 294.443 489.864 294.248 489.897 294.248C489.929 294.248 489.775 294.443 489.554 294.682ZM487.422 296.914C487.201 297.153 486.993 297.349 486.961 297.349C486.928 297.349 487.082 297.153 487.303 296.914C487.524 296.676 487.732 296.48 487.764 296.48C487.797 296.48 487.643 296.676 487.422 296.914ZM467.431 305.746C467.283 305.776 467.071 305.775 466.957 305.744C466.844 305.712 466.964 305.688 467.225 305.69C467.486 305.691 467.579 305.717 467.431 305.746ZM311.069 305.746C310.922 305.776 310.709 305.775 310.595 305.744C310.482 305.712 310.603 305.688 310.863 305.69C311.124 305.691 311.216 305.717 311.069 305.746Z" fill="#8C9494"/>
</g>
<g clip-path="url(#clip1)" filter="url(#filter2_d)">
<path fill-rule="evenodd" clip-rule="evenodd" d="M222.036 236.145C218.638 236.421 212.148 237.43 211.961 237.711C211.918 237.778 211.454 237.92 210.931 238.027C209.503 238.32 206.13 239.259 205.561 239.522C205.285 239.649 204.137 240.074 203.008 240.468C201.88 240.862 200.916 241.245 200.866 241.321C200.818 241.395 200.384 241.602 199.904 241.779C198.673 242.236 197.254 242.872 197.014 243.076C196.903 243.172 196.061 243.61 195.145 244.05C194.23 244.49 193.444 244.902 193.4 244.964C193.357 245.026 192.749 245.386 192.052 245.763C191.353 246.14 190.747 246.499 190.703 246.56C190.66 246.622 190.017 247.046 189.275 247.502C188.533 247.958 187.888 248.392 187.842 248.467C187.795 248.542 187.331 248.885 186.811 249.23C183.825 251.21 179.341 255.144 176.434 258.334C175.879 258.943 175.079 259.813 174.656 260.267C174.232 260.722 173.886 261.149 173.884 261.216C173.884 261.282 173.616 261.625 173.29 261.976C172.963 262.328 172.498 262.879 172.254 263.199L171.811 263.782L171.178 263.384C170.829 263.165 170.407 262.85 170.241 262.683C170.074 262.517 169.702 262.26 169.413 262.113C169.125 261.965 168.482 261.57 167.986 261.235C167.488 260.9 166.561 260.368 165.923 260.053C165.286 259.737 164.657 259.391 164.527 259.283C164.395 259.175 163.681 258.825 162.94 258.504C162.198 258.185 161.163 257.722 160.639 257.475C159.712 257.039 157.309 256.195 156.358 255.971C156.097 255.91 155.847 255.805 155.803 255.738C155.687 255.565 152.763 254.845 150.248 254.371C146.084 253.587 145.441 253.516 141.523 253.409C138.017 253.313 134.109 253.503 132.488 253.847C132.091 253.931 130.981 254.141 130.021 254.314C127.621 254.746 124.23 255.587 124.23 255.751C124.23 255.825 124.136 255.885 124.021 255.885C123.659 255.885 120.378 256.983 119.55 257.381C119.114 257.591 118.15 258.021 117.409 258.336C116.667 258.652 115.884 259.023 115.669 259.162C115.453 259.3 114.67 259.733 113.928 260.123C113.185 260.513 112.479 260.93 112.358 261.051C112.237 261.172 111.807 261.441 111.402 261.649C110.649 262.035 108.235 263.718 107.276 264.523C106.982 264.77 106.375 265.256 105.928 265.604C105.123 266.228 102.868 268.299 101.941 269.262C100.144 271.131 99.6397 271.687 99.6382 271.799C99.6374 271.868 99.2984 272.291 98.8852 272.739C98.4712 273.186 97.8832 273.897 97.5787 274.319C97.2734 274.741 96.9832 275.122 96.9322 275.165C96.7372 275.332 95.5154 277.209 95.5154 277.342C95.5154 277.418 95.3549 277.633 95.1584 277.819C94.9619 278.005 94.4804 278.778 94.0874 279.537C93.6944 280.297 93.2587 281.048 93.1184 281.208C92.9782 281.368 92.5904 282.118 92.2574 282.876C91.9244 283.632 91.4954 284.537 91.3042 284.885C91.1129 285.232 90.6832 286.299 90.3494 287.255C90.0164 288.212 89.6969 289.029 89.6407 289.073C89.5019 289.18 88.7722 291.811 88.3709 293.656C88.1909 294.481 87.9794 295.275 87.9007 295.419C87.8219 295.563 87.6344 296.5 87.4837 297.501L87.2107 299.321L85.8502 299.415C82.4152 299.65 77.7629 300.293 77.3557 300.588C77.2657 300.653 76.6559 300.836 76.0019 300.993C74.0482 301.462 72.2099 302.037 71.4254 302.426C71.0189 302.626 70.3304 302.907 69.8939 303.051C68.1922 303.609 63.7949 305.994 61.6589 307.516C61.3177 307.759 60.8962 308.041 60.7222 308.143C59.1119 309.082 54.1657 313.591 52.1699 315.939C50.9857 317.331 50.1427 318.423 50.1382 318.569C50.1359 318.644 49.9319 318.902 49.6852 319.142C49.4392 319.383 49.0747 319.895 48.8752 320.281C48.6764 320.667 48.3809 321.123 48.2197 321.296C47.9152 321.622 47.5477 322.235 46.8442 323.594C46.6169 324.035 46.3807 324.43 46.3199 324.473C46.1954 324.562 44.9917 327.12 44.8184 327.663C44.7569 327.856 44.6257 328.095 44.5259 328.194C44.4269 328.292 44.0017 329.434 43.5802 330.73C43.1594 332.026 42.7199 333.3 42.6044 333.56C42.3322 334.175 41.6729 337.313 41.3099 339.723C40.8967 342.462 40.8967 351.05 41.3099 353.789C41.6722 356.195 42.3322 359.336 42.6037 359.952C42.7192 360.213 43.0807 361.28 43.4084 362.323C43.9844 364.161 44.3099 364.941 45.6839 367.776C46.4137 369.279 47.5417 371.327 47.9572 371.901C48.1079 372.109 48.5302 372.742 48.8954 373.306C49.2614 373.871 49.7197 374.512 49.9147 374.729C50.1089 374.946 50.4584 375.408 50.6902 375.756C51.8422 377.484 57.5294 383.15 59.2649 384.297C59.6137 384.528 60.0779 384.876 60.2954 385.071C60.5137 385.264 61.1564 385.721 61.7234 386.085C62.2904 386.449 62.9257 386.87 63.1342 387.02C64.0057 387.646 66.3172 388.851 69.4972 390.338C70.6717 390.887 74.2462 392.113 74.6714 392.113C74.7922 392.113 74.8912 392.172 74.8912 392.245C74.8912 392.526 79.3709 393.405 82.6649 393.769C85.9139 394.129 295.968 394.129 299.217 393.769C302.39 393.418 305.727 392.789 306.753 392.348C307.015 392.236 308.085 391.878 309.133 391.552C310.924 390.995 311.905 390.587 314.764 389.207C316.159 388.534 318.206 387.409 318.748 387.018C318.956 386.867 319.698 386.374 320.396 385.922C321.094 385.471 321.737 385.014 321.824 384.907C321.911 384.8 322.268 384.525 322.617 384.295C324.343 383.16 330.049 377.476 331.189 375.756C331.42 375.408 331.695 375.052 331.801 374.966C332.393 374.482 335.002 370.233 336.12 367.933C337.505 365.085 337.915 364.108 338.474 362.323C338.801 361.28 339.163 360.213 339.278 359.952C339.55 359.338 340.209 356.2 340.573 353.789C341.017 350.852 340.981 342.287 340.512 339.327C340.087 336.639 339.369 333.418 339.181 333.35C339.102 333.321 339.037 333.208 339.037 333.099C339.037 332.763 337.632 328.561 337.401 328.206C337.281 328.021 336.876 327.172 336.502 326.319C336.127 325.466 335.741 324.684 335.644 324.581C335.547 324.478 335.146 323.766 334.753 323C334.361 322.233 333.913 321.47 333.759 321.305C333.605 321.139 333.236 320.593 332.939 320.091C332.643 319.589 332.269 319.036 332.109 318.862C331.949 318.689 331.501 318.12 331.114 317.598C328.867 314.573 322.59 308.627 321.013 308.03C320.805 307.951 320.634 307.827 320.634 307.755C320.634 307.682 320.045 307.275 319.325 306.85C318.605 306.425 317.932 305.995 317.829 305.894C317.725 305.793 317.011 305.402 316.243 305.026C315.473 304.649 314.802 304.281 314.752 304.207C314.701 304.135 313.773 303.719 312.689 303.284C311.605 302.848 310.504 302.394 310.243 302.275C309.67 302.012 306.19 300.997 305.314 300.836C304.971 300.773 304.654 300.668 304.61 300.601C304.526 300.474 299.929 299.661 299.293 299.661C298.879 299.661 298.827 299.5 298.656 297.686C298.492 295.933 297.805 291.733 297.652 291.54C297.576 291.443 297.464 291.08 297.404 290.732C297.197 289.537 296.042 285.086 295.81 284.59C295.681 284.318 295.282 283.206 294.923 282.119C294.563 281.032 294.172 279.992 294.055 279.806C293.937 279.621 293.592 278.839 293.288 278.069C292.745 276.691 290.588 272.334 290.366 272.169C290.305 272.122 289.968 271.532 289.619 270.857C289.27 270.184 288.817 269.436 288.612 269.198C288.407 268.96 288.094 268.48 287.917 268.133C287.74 267.785 287.14 266.88 286.585 266.123C286.028 265.366 285.574 264.685 285.574 264.61C285.574 264.535 285.388 264.301 285.16 264.091C284.932 263.88 284.528 263.388 284.26 262.996C283.993 262.605 283.497 261.965 283.157 261.574C282.817 261.183 282.169 260.438 281.716 259.919C280.293 258.285 277.626 255.595 275.896 254.049C273.265 251.698 272.842 251.34 272.167 250.894C271.819 250.662 271.509 250.41 271.48 250.333C271.45 250.256 270.89 249.834 270.235 249.396C269.579 248.957 268.912 248.477 268.753 248.33C268.594 248.182 268.047 247.814 267.539 247.511C267.031 247.207 266.306 246.728 265.929 246.444C265.551 246.161 265.173 245.928 265.088 245.928C265.003 245.928 264.527 245.668 264.029 245.351C262.204 244.184 256.684 241.503 256.11 241.503C255.998 241.503 255.907 241.44 255.907 241.363C255.907 241.229 252.515 239.919 252.176 239.921C252.088 239.922 251.766 239.792 251.462 239.633C250.87 239.322 248.227 238.553 246.15 238.087C245.452 237.931 244.845 237.753 244.801 237.693C244.593 237.406 238.312 236.45 234.568 236.135C232.364 235.95 224.362 235.956 222.036 236.145ZM235.662 240.468C265.168 244.032 288.898 266.031 293.803 294.367C294.586 298.897 294.656 299.604 294.755 304.086C294.876 309.578 294.965 309.818 296.884 309.818C298.385 309.818 298.899 308.851 298.9 306.026V303.936L299.336 304.011C299.576 304.053 300.451 304.198 301.279 304.334C315.492 306.675 328.192 316.965 333.645 330.558C344.215 356.911 327.109 385.921 298.82 389.615C295.945 389.99 84.9134 389.913 82.5059 389.535C46.5877 383.907 32.3729 340.673 58.2757 315.84C67.2547 307.232 76.2277 303.888 91.0222 303.636C96.8054 303.538 97.0994 303.519 97.5269 303.207C98.9992 302.133 98.5979 300.058 96.8392 299.651C96.5039 299.574 95.2034 299.509 93.9502 299.507L91.6709 299.503L91.7827 298.594C92.3197 294.227 94.4122 288.089 96.9967 283.304C110.659 258.004 143.293 250.004 167.382 266.049C168.898 267.059 171.505 269.052 173.307 270.579C175.96 272.827 176.458 273.037 177.664 272.415C179.337 271.553 178.982 270.018 176.67 268.118C174.882 266.65 174.932 266.866 176.059 265.463C190.584 247.407 213.51 237.793 235.662 240.468Z" fill="#3C3C4C"/>
<path fill-rule="evenodd" clip-rule="evenodd" d="M225.129 240.332C224.737 240.366 223.487 240.468 222.353 240.56C207.04 241.791 191.734 249.056 180.867 260.252C178.666 262.519 175.935 265.691 175.417 266.581C175.351 266.695 175.914 267.286 176.874 268.109C178.963 269.901 179.264 270.772 178.252 272.093C177.25 273.402 174.937 272.724 173.093 270.58C172.915 270.374 169.76 267.897 168.651 267.093C153.453 256.085 132.727 254.838 116.377 263.95C103.781 270.969 95.1359 282.764 92.2544 296.859C91.6874 299.63 91.4557 299.345 94.2749 299.345C97.6102 299.345 98.5304 299.829 98.5289 301.582C98.5274 303.631 98.1952 303.723 90.5182 303.816C85.1392 303.881 83.8582 303.942 82.1099 304.219C52.4347 308.913 36.3487 340.672 50.3249 366.975C56.8094 379.179 68.6857 387.367 82.8232 389.381C85.9072 389.82 295.942 389.821 299.107 389.382C312.671 387.499 324.374 379.664 330.991 368.036C343.876 345.39 333.863 316.643 309.688 306.874C306.974 305.777 302.398 304.523 299.83 304.173L299.095 304.072L299.032 306.252C298.95 309.156 298.485 309.933 296.831 309.933C294.93 309.933 294.616 309.23 294.616 304.959C294.616 282.579 281.842 260.896 261.776 249.218C259.888 248.119 257.378 246.814 256.179 246.308C255.674 246.094 254.788 245.704 254.209 245.44C246.6 241.968 233.27 239.627 225.129 240.332Z" fill="#F3F3E3"/>
<path fill-rule="evenodd" clip-rule="evenodd" d="M224.296 240.353C224.58 240.388 225.044 240.388 225.328 240.353C225.611 240.318 225.379 240.29 224.812 240.29C224.245 240.29 224.013 240.318 224.296 240.353ZM231.436 240.353C231.719 240.388 232.183 240.388 232.467 240.353C232.75 240.318 232.518 240.29 231.951 240.29C231.384 240.29 231.151 240.318 231.436 240.353ZM222.472 240.506C222.625 240.546 222.874 240.546 223.027 240.506C223.18 240.466 223.055 240.434 222.749 240.434C222.444 240.434 222.319 240.466 222.472 240.506ZM233.894 240.506C234.047 240.546 234.297 240.546 234.45 240.506C234.602 240.466 234.478 240.434 234.172 240.434C233.866 240.434 233.742 240.466 233.894 240.506ZM257.652 246.947C257.652 246.991 257.866 247.137 258.127 247.272C258.389 247.407 258.604 247.481 258.604 247.438C258.604 247.394 258.389 247.248 258.127 247.114C257.866 246.979 257.652 246.904 257.652 246.947ZM137.355 257.896C137.636 257.93 138.136 257.931 138.465 257.896C138.794 257.862 138.564 257.834 137.953 257.833C137.342 257.832 137.073 257.86 137.355 257.896ZM141.17 257.897C141.543 257.931 142.114 257.93 142.439 257.896C142.764 257.862 142.459 257.835 141.76 257.835C141.063 257.836 140.797 257.863 141.17 257.897ZM135.298 258.051C135.495 258.089 135.781 258.088 135.932 258.048C136.084 258.008 135.922 257.977 135.574 257.979C135.224 257.981 135.1 258.013 135.298 258.051ZM144.182 258.051C144.379 258.089 144.664 258.088 144.817 258.048C144.968 258.008 144.807 257.977 144.457 257.979C144.109 257.981 143.984 258.013 144.182 258.051ZM275.103 259.441C275.928 260.266 276.64 260.942 276.683 260.942C276.727 260.942 276.087 260.266 275.261 259.441C274.436 258.615 273.725 257.939 273.681 257.939C273.637 257.939 274.277 258.615 275.103 259.441ZM133.789 258.206C133.942 258.246 134.191 258.246 134.344 258.206C134.497 258.167 134.371 258.134 134.066 258.134C133.761 258.134 133.636 258.167 133.789 258.206ZM145.687 258.206C145.84 258.246 146.089 258.246 146.242 258.206C146.395 258.167 146.27 258.134 145.965 258.134C145.66 258.134 145.534 258.167 145.687 258.206ZM181.101 259.875L179.995 261.021L181.144 259.919C181.777 259.313 182.295 258.797 182.295 258.773C182.295 258.657 182.128 258.811 181.101 259.875ZM178.874 262.246L178.408 262.759L178.924 262.295C179.207 262.04 179.439 261.809 179.439 261.781C179.439 261.66 179.308 261.767 178.874 262.246ZM175.249 266.609C175.203 266.682 175.36 266.914 175.597 267.122L176.028 267.501L175.669 267.093C175.473 266.87 175.36 266.639 175.419 266.58C175.477 266.521 175.483 266.473 175.429 266.473C175.376 266.473 175.295 266.534 175.249 266.609ZM107.088 270.543L106.541 271.135L107.136 270.591C107.463 270.291 107.731 270.024 107.731 269.998C107.731 269.877 107.596 269.991 107.088 270.543ZM178.686 270.661C178.687 271.009 178.72 271.132 178.758 270.936C178.796 270.739 178.795 270.455 178.755 270.304C178.715 270.153 178.684 270.314 178.686 270.661ZM91.7587 299.108C91.7894 299.409 91.9102 299.424 94.2479 299.43L96.7049 299.436L94.2967 299.386C92.1794 299.343 91.8779 299.304 91.8067 299.064C91.7459 298.859 91.7339 298.87 91.7587 299.108ZM85.2427 303.879C85.3957 303.919 85.6454 303.919 85.7984 303.879C85.9507 303.839 85.8262 303.807 85.5202 303.807C85.2149 303.807 85.0904 303.839 85.2427 303.879ZM298.961 305.983C298.961 307.069 298.986 307.513 299.017 306.97C299.048 306.427 299.048 305.538 299.017 304.995C298.986 304.452 298.961 304.896 298.961 305.983ZM323.252 315.623C323.77 316.144 324.229 316.571 324.273 316.571C324.316 316.571 323.929 316.144 323.41 315.623C322.892 315.101 322.433 314.675 322.389 314.675C322.345 314.675 322.734 315.101 323.252 315.623ZM56.0819 318.191L55.6154 318.705L56.1314 318.241C56.6122 317.808 56.7202 317.677 56.5972 317.677C56.5702 317.677 56.3377 317.908 56.0819 318.191ZM336.544 343.675C336.545 344.109 336.576 344.268 336.613 344.028C336.649 343.788 336.648 343.432 336.61 343.238C336.573 343.044 336.543 343.24 336.544 343.675ZM45.2699 343.833C45.2707 344.267 45.3014 344.426 45.3382 344.186C45.3749 343.946 45.3734 343.59 45.3359 343.395C45.2984 343.201 45.2684 343.398 45.2699 343.833ZM336.703 346.994C336.704 347.428 336.735 347.587 336.772 347.347C336.808 347.106 336.807 346.751 336.769 346.557C336.731 346.362 336.702 346.559 336.703 346.994ZM45.2699 349.68C45.2707 350.114 45.3014 350.273 45.3382 350.034C45.3749 349.793 45.3734 349.437 45.3359 349.243C45.2984 349.049 45.2684 349.245 45.2699 349.68ZM336.544 349.838C336.545 350.273 336.576 350.432 336.613 350.191C336.649 349.951 336.648 349.596 336.61 349.402C336.573 349.207 336.543 349.403 336.544 349.838ZM323.96 377.218L323.093 378.127L324.005 377.263C324.853 376.46 324.991 376.309 324.873 376.309C324.847 376.309 324.437 376.718 323.96 377.218ZM57.6779 377.1C58.0192 377.447 58.3334 377.732 58.3769 377.732C58.4204 377.732 58.1774 377.447 57.8369 377.1C57.4957 376.751 57.1814 376.468 57.1379 376.468C57.0944 376.468 57.3374 376.751 57.6779 377.1ZM84.9277 389.698C85.1692 389.734 85.5262 389.733 85.7212 389.695C85.9162 389.658 85.7189 389.628 85.2824 389.63C84.8459 389.631 84.6869 389.662 84.9277 389.698ZM296.245 389.698C296.485 389.734 296.842 389.733 297.037 389.695C297.233 389.658 297.036 389.628 296.599 389.63C296.163 389.631 296.003 389.662 296.245 389.698ZM139.341 389.861C167.764 389.883 214.276 389.883 242.699 389.861C271.123 389.839 247.867 389.821 191.02 389.821C134.173 389.821 110.917 389.839 139.341 389.861Z" fill="#ACAEA9"/>
<path fill-rule="evenodd" clip-rule="evenodd" d="M227.866 240.197C228.28 240.23 228.958 240.23 229.373 240.197C229.787 240.165 229.448 240.138 228.619 240.138C227.791 240.138 227.452 240.165 227.866 240.197ZM294.682 305.114C294.682 306.765 294.706 307.419 294.735 306.567C294.763 305.715 294.763 304.364 294.734 303.564C294.706 302.765 294.682 303.462 294.682 305.114ZM91.4384 303.73C92.3812 303.758 93.8804 303.758 94.7699 303.73C95.6602 303.702 94.8884 303.679 93.0562 303.679C91.2239 303.679 90.4957 303.702 91.4384 303.73ZM336.694 345.808C336.694 346.112 336.727 346.237 336.767 346.084C336.807 345.933 336.807 345.684 336.767 345.532C336.727 345.379 336.694 345.504 336.694 345.808ZM45.1214 346.756C45.1214 347.495 45.1484 347.798 45.1822 347.428C45.2152 347.059 45.2152 346.454 45.1822 346.084C45.1484 345.715 45.1214 346.017 45.1214 346.756ZM86.9879 389.852C87.1409 389.891 87.3907 389.891 87.5429 389.852C87.6959 389.812 87.5707 389.779 87.2654 389.779C86.9602 389.779 86.8349 389.812 86.9879 389.852Z" fill="#949494"/>
<path fill-rule="evenodd" clip-rule="evenodd" d="M225.562 240.195C225.844 240.23 226.343 240.231 226.672 240.196C227.002 240.162 226.771 240.134 226.16 240.133C225.55 240.132 225.28 240.16 225.562 240.195ZM230.404 240.194C230.644 240.231 231.037 240.231 231.277 240.194C231.517 240.158 231.32 240.128 230.84 240.128C230.36 240.128 230.164 240.158 230.404 240.194ZM222.789 240.348C222.942 240.388 223.192 240.388 223.345 240.348C223.497 240.308 223.372 240.275 223.066 240.275C222.761 240.275 222.637 240.308 222.789 240.348ZM233.419 240.348C233.571 240.388 233.821 240.388 233.974 240.348C234.127 240.308 234.001 240.275 233.696 240.275C233.391 240.275 233.266 240.308 233.419 240.348ZM235.005 240.506C235.158 240.546 235.408 240.546 235.56 240.506C235.713 240.466 235.588 240.434 235.282 240.434C234.977 240.434 234.852 240.466 235.005 240.506ZM179.272 261.692L178.725 262.285L179.32 261.74C179.874 261.234 179.988 261.1 179.867 261.1C179.84 261.1 179.572 261.367 179.272 261.692ZM106.297 271.175L105.43 272.083L106.343 271.22C107.191 270.417 107.328 270.266 107.21 270.266C107.185 270.266 106.774 270.675 106.297 271.175ZM294.664 301.4C294.664 301.878 294.694 302.073 294.73 301.834C294.766 301.595 294.766 301.204 294.73 300.965C294.694 300.726 294.664 300.922 294.664 301.4ZM87.1469 303.726C87.3869 303.761 87.7792 303.761 88.0192 303.726C88.2592 303.689 88.0627 303.659 87.5827 303.659C87.1027 303.659 86.9069 303.689 87.1469 303.726ZM89.0504 303.721C89.2034 303.761 89.4532 303.761 89.6054 303.721C89.7584 303.681 89.6332 303.649 89.3279 303.649C89.0227 303.649 88.8974 303.681 89.0504 303.721ZM323.728 315.939C324.069 316.287 324.383 316.571 324.427 316.571C324.47 316.571 324.227 316.287 323.887 315.939C323.545 315.591 323.231 315.307 323.188 315.307C323.144 315.307 323.387 315.591 323.728 315.939ZM56.4794 317.638L55.9327 318.23L56.5282 317.686C57.0817 317.179 57.1957 317.045 57.0749 317.045C57.0479 317.045 56.7802 317.312 56.4794 317.638ZM45.1109 344.781C45.1124 345.215 45.1432 345.375 45.1799 345.134C45.2159 344.894 45.2152 344.539 45.1777 344.344C45.1394 344.149 45.1102 344.347 45.1109 344.781ZM336.7 344.701C336.7 345.093 336.732 345.253 336.769 345.057C336.807 344.862 336.807 344.542 336.769 344.347C336.732 344.151 336.7 344.311 336.7 344.701ZM45.1109 348.731C45.1124 349.166 45.1432 349.325 45.1799 349.085C45.2159 348.845 45.2152 348.489 45.1777 348.295C45.1394 348.101 45.1102 348.297 45.1109 348.731ZM336.697 348.89C336.699 349.237 336.732 349.361 336.769 349.165C336.808 348.968 336.806 348.684 336.766 348.533C336.727 348.381 336.696 348.542 336.697 348.89ZM56.3294 375.756C56.6257 376.06 56.9032 376.309 56.9474 376.309C56.9909 376.309 56.7839 376.06 56.4884 375.756C56.1922 375.452 55.9147 375.203 55.8704 375.203C55.8269 375.203 56.0339 375.452 56.3294 375.756ZM59.1854 378.601C59.4809 378.905 59.7592 379.154 59.8027 379.154C59.8462 379.154 59.6399 378.905 59.3437 378.601C59.0482 378.297 58.7699 378.048 58.7264 378.048C58.6829 378.048 58.8892 378.297 59.1854 378.601ZM85.9589 389.854C86.1562 389.892 86.4412 389.89 86.5934 389.851C86.7449 389.811 86.5837 389.781 86.2342 389.782C85.8854 389.784 85.7609 389.816 85.9589 389.854ZM295.372 389.854C295.569 389.892 295.855 389.89 296.006 389.851C296.158 389.811 295.996 389.781 295.648 389.782C295.298 389.784 295.174 389.816 295.372 389.854Z" fill="#8C9494"/>
</g>
<g clip-path="url(#clip2)" filter="url(#filter3_d)">
<path fill-rule="evenodd" clip-rule="evenodd" d="M78.2247 0.06349C76.8318 0.183885 74.1707 0.624682 74.0941 0.747362C74.0762 0.7764 73.8862 0.838392 73.6716 0.88505C73.0864 1.01295 71.7033 1.42308 71.4699 1.53793C71.357 1.59339 70.8862 1.77937 70.4235 1.95132C69.9607 2.12326 69.5655 2.29064 69.5452 2.32359C69.5253 2.35622 69.3475 2.44627 69.1507 2.52393C68.6461 2.72328 68.064 3.00127 67.9659 3.09034C67.9201 3.1321 67.5751 3.3233 67.1996 3.51548C66.8242 3.70765 66.5022 3.88743 66.4841 3.91451C66.4662 3.94192 66.2172 4.09886 65.9312 4.26362C65.6449 4.42807 65.3961 4.585 65.3783 4.61176C65.3605 4.63884 65.0969 4.82384 64.7928 5.02287C64.4887 5.22222 64.2243 5.41178 64.2052 5.44441C64.1861 5.47704 63.9958 5.62713 63.7824 5.77786C62.5582 6.64249 60.72 8.36033 59.5278 9.75352C59.3006 10.0194 58.9725 10.3992 58.799 10.5976C58.6253 10.7963 58.4832 10.9826 58.4826 11.012C58.4823 11.041 58.3725 11.1908 58.2388 11.3441C58.105 11.4978 57.9141 11.7382 57.8141 11.8782L57.6327 12.1327L57.3729 11.9588C57.2299 11.8632 57.057 11.7255 56.9888 11.6528C56.9202 11.5803 56.7677 11.4681 56.6493 11.4038C56.5312 11.3392 56.2677 11.1666 56.0641 11.0204C55.8603 10.8739 55.4799 10.6416 55.2185 10.504C54.9571 10.3663 54.6994 10.2152 54.6459 10.1679C54.5921 10.1206 54.2994 9.96788 53.9953 9.82791C53.6912 9.68827 53.2668 9.48598 53.0522 9.37831C52.6718 9.18776 51.6869 8.8194 51.2967 8.72151C51.1896 8.69476 51.0872 8.64908 51.0691 8.61972C51.0217 8.54402 49.8228 8.22982 48.7918 8.02296C47.0845 7.68037 46.8207 7.64938 45.2143 7.60272C43.777 7.56096 42.1747 7.6435 41.5102 7.79392C41.3472 7.83078 40.8921 7.92247 40.4985 7.99784C39.5148 8.18642 38.1243 8.55381 38.1243 8.62526C38.1243 8.65757 38.0858 8.68399 38.0388 8.68399C37.8903 8.68399 36.545 9.16329 36.2055 9.3372C36.0268 9.42888 35.6317 9.61681 35.3276 9.7545C35.0234 9.89219 34.7024 10.0543 34.6142 10.115C34.5259 10.1754 34.2049 10.3643 33.9005 10.5346C33.596 10.7049 33.3064 10.8873 33.2569 10.9402C33.207 10.9927 33.0308 11.1102 32.8648 11.2012C32.5561 11.3699 31.5665 12.1047 31.1732 12.4564C31.0527 12.5641 30.8039 12.7765 30.6204 12.9285C30.2904 13.2009 29.3658 14.105 28.986 14.5256C28.2492 15.342 28.0423 15.5847 28.0417 15.6336C28.0413 15.664 27.9024 15.8487 27.7329 16.0441C27.5632 16.2395 27.3221 16.5501 27.1973 16.7342C27.0721 16.9185 26.9531 17.0849 26.9322 17.1038C26.8522 17.1766 26.3513 17.9965 26.3513 18.0543C26.3513 18.0876 26.2855 18.1815 26.205 18.2628C26.1244 18.344 25.927 18.6817 25.7659 19.0132C25.6047 19.3447 25.4261 19.6729 25.3686 19.7427C25.3111 19.8126 25.1521 20.1401 25.0155 20.471C24.879 20.8015 24.7031 21.1966 24.6247 21.3483C24.5463 21.5001 24.3701 21.966 24.2333 22.3836C24.0967 22.8012 23.9657 23.1582 23.9427 23.1774C23.8858 23.2241 23.5866 24.3732 23.4221 25.1788C23.3483 25.5393 23.2616 25.8858 23.2293 25.9488C23.197 26.0118 23.1201 26.4209 23.0583 26.8581L22.9464 27.653L22.3886 27.6937C20.9802 27.7965 19.0728 28.0774 18.9058 28.2063C18.8689 28.2347 18.6189 28.3143 18.3508 28.3828C17.5498 28.5877 16.7961 28.839 16.4744 29.0086C16.3078 29.0961 16.0255 29.2191 15.8465 29.2817C15.1488 29.5254 13.3459 30.5669 12.4702 31.2319C12.3303 31.3379 12.1574 31.4609 12.0861 31.5053C11.4259 31.9157 9.39793 33.8848 8.57967 34.91C8.09413 35.5181 7.7485 35.9948 7.74666 36.0588C7.74573 36.0914 7.66209 36.204 7.56093 36.309C7.46007 36.4141 7.31062 36.6379 7.22883 36.8063C7.14734 36.9746 7.02618 37.174 6.96007 37.2493C6.83523 37.3919 6.68455 37.6598 6.39612 38.2533C6.30294 38.4455 6.20608 38.6181 6.18117 38.637C6.13013 38.6758 5.63659 39.793 5.56556 40.0299C5.54034 40.1144 5.48653 40.2188 5.44563 40.2618C5.40504 40.3049 5.23069 40.8035 5.05788 41.3692C4.88537 41.9353 4.70517 42.4916 4.65782 42.6055C4.5462 42.874 4.2759 44.2443 4.12707 45.2969C3.95764 46.493 3.95764 50.2436 4.12707 51.4394C4.2756 52.4903 4.5462 53.8619 4.65751 54.1311C4.70487 54.245 4.85308 54.7109 4.98746 55.1664C5.22362 55.969 5.35707 56.3097 5.92041 57.5475C6.21961 58.2043 6.68209 59.0983 6.85245 59.3492C6.91425 59.4399 7.08738 59.7163 7.23713 59.9629C7.38719 60.2096 7.57507 60.4892 7.65502 60.5842C7.73466 60.6791 7.87796 60.8808 7.97298 61.0328C8.4453 61.7875 10.7771 64.2616 11.4886 64.7628C11.6316 64.8636 11.822 65.0156 11.9111 65.1005C12.0006 65.185 12.2641 65.3847 12.4966 65.5435C12.7291 65.7024 12.9895 65.8861 13.075 65.9517C13.4323 66.2251 14.38 66.7514 15.6838 67.4007C16.1654 67.6405 17.6309 68.1759 17.8053 68.1759C17.8548 68.1759 17.8954 68.2017 17.8954 68.2334C17.8954 68.3564 19.7321 68.7401 21.0826 68.8993C22.4147 69.0562 108.537 69.0562 109.869 68.8993C111.17 68.7459 112.538 68.4712 112.959 68.2787C113.066 68.2298 113.505 68.0732 113.934 67.9309C114.669 67.6878 115.071 67.5094 116.243 66.9071C116.815 66.6128 117.655 66.1217 117.877 65.9511C117.962 65.8852 118.266 65.6698 118.552 65.4724C118.839 65.2754 119.102 65.0757 119.138 65.029C119.174 64.9824 119.32 64.862 119.463 64.7618C120.171 64.2659 122.51 61.7839 122.978 61.0328C123.072 60.8808 123.185 60.7255 123.229 60.6876C123.471 60.4762 124.541 58.6207 124.999 57.6164C125.567 56.3726 125.735 55.9459 125.964 55.1664C126.098 54.7109 126.247 54.245 126.294 54.1311C126.405 53.8626 126.676 52.4926 126.825 51.4394C127.007 50.1568 126.992 46.4164 126.8 45.1237C126.626 43.95 126.331 42.5435 126.254 42.5135C126.222 42.5007 126.195 42.4515 126.195 42.4042C126.195 42.2573 125.619 40.422 125.524 40.2671C125.475 40.1865 125.309 39.8158 125.156 39.4432C125.002 39.0706 124.844 38.729 124.804 38.684C124.764 38.6393 124.6 38.3283 124.439 37.9936C124.278 37.6588 124.095 37.3257 124.031 37.2533C123.968 37.1808 123.817 36.9423 123.695 36.7234C123.574 36.5041 123.42 36.2627 123.355 36.1867C123.289 36.111 123.106 35.8623 122.947 35.6346C122.025 34.3135 119.452 31.717 118.806 31.4563C118.72 31.4217 118.65 31.3676 118.65 31.3359C118.65 31.3043 118.409 31.1265 118.113 30.9408C117.818 30.7552 117.542 30.5672 117.5 30.5232C117.457 30.4791 117.165 30.3085 116.85 30.1441C116.534 29.9796 116.259 29.8188 116.238 29.7868C116.217 29.7551 115.837 29.5734 115.393 29.3835C114.948 29.1933 114.497 28.9949 114.39 28.9427C114.155 28.8282 112.728 28.3848 112.369 28.3146C112.228 28.2869 112.098 28.2409 112.08 28.2119C112.046 28.1564 110.161 27.8014 109.9 27.8014C109.73 27.8014 109.709 27.7309 109.639 26.9387C109.572 26.1733 109.29 24.339 109.228 24.2548C109.196 24.2124 109.15 24.0538 109.126 23.9021C109.041 23.3801 108.567 21.4361 108.472 21.2198C108.419 21.1007 108.256 20.6152 108.109 20.1405C107.961 19.6661 107.801 19.2116 107.752 19.1307C107.704 19.0497 107.563 18.7081 107.438 18.3717C107.216 17.7701 106.331 15.8676 106.24 15.7951C106.215 15.7746 106.077 15.5172 105.934 15.2225C105.791 14.9282 105.605 14.602 105.521 14.4979C105.437 14.3938 105.309 14.1843 105.236 14.0326C105.164 13.8809 104.918 13.4858 104.69 13.1549C104.462 12.8244 104.275 12.5269 104.275 12.4942C104.275 12.4616 104.199 12.3595 104.105 12.2675C104.012 12.1755 103.847 11.9604 103.737 11.7895C103.627 11.6188 103.424 11.3392 103.284 11.1686C103.145 10.9976 102.879 10.6723 102.693 10.4455C102.11 9.73199 101.017 8.5574 100.307 7.88234C99.2285 6.85555 99.0554 6.69926 98.7787 6.50415C98.6357 6.40301 98.5087 6.29305 98.4967 6.25945C98.4847 6.22584 98.255 6.04149 97.9862 5.84997C97.7175 5.65845 97.4441 5.44898 97.3786 5.3847C97.3134 5.3201 97.0893 5.15925 96.8811 5.02678C96.6726 4.89431 96.3755 4.68484 96.2209 4.56086C96.0659 4.4372 95.9109 4.33573 95.8762 4.33573C95.8414 4.33573 95.6461 4.22219 95.442 4.08352C94.6935 3.57421 92.4303 2.40321 92.1951 2.40321C92.1493 2.40321 92.1117 2.3758 92.1117 2.34187C92.1117 2.28346 90.7212 1.7115 90.5822 1.71248C90.546 1.71281 90.414 1.65604 90.2895 1.58654C90.0469 1.45081 88.9629 1.11507 88.1115 0.911478C87.8252 0.843287 87.5764 0.765633 87.5586 0.739531C87.4731 0.613915 84.8981 0.19661 83.3631 0.0589222C82.4593 -0.0216677 79.1783 -0.0190575 78.2247 0.06349ZM83.8114 1.95132C95.9091 3.50765 105.638 13.1148 107.649 25.4894C107.97 27.4676 107.999 27.7763 108.04 29.7339C108.089 32.1324 108.126 32.2371 108.913 32.2371C109.528 32.2371 109.739 31.8146 109.739 30.5809V29.6684L109.918 29.701C110.016 29.7192 110.375 29.7825 110.715 29.8423C116.542 30.8645 121.749 35.3583 123.984 41.2942C128.318 52.8029 121.305 65.4718 109.706 67.0849C108.528 67.2487 22.0045 67.215 21.0174 67.0503C6.29095 64.5921 0.462905 45.7116 11.083 34.8669C14.7644 31.1075 18.4434 29.6471 24.5091 29.5372C26.8802 29.4944 27.0008 29.486 27.176 29.3499C27.7797 28.881 27.6152 27.9747 26.8941 27.7972C26.7566 27.7632 26.2234 27.7348 25.7096 27.7339L24.7751 27.7322L24.8209 27.3355C25.0411 25.4281 25.899 22.7477 26.9586 20.6583C32.5604 9.60931 45.94 6.11556 55.8166 13.1226C56.4384 13.5638 57.5069 14.4339 58.2458 15.1008C59.3335 16.0826 59.5377 16.1743 60.0321 15.9028C60.7181 15.5263 60.5727 14.8558 59.6247 14.0264C58.8916 13.385 58.9122 13.4793 59.3744 12.8668C65.3294 4.98175 74.7291 0.782926 83.8114 1.95132Z" fill="#3C3C4C"/>
<path fill-rule="evenodd" clip-rule="evenodd" d="M79.4929 1.89188C79.332 1.90657 78.8197 1.95127 78.3548 1.9914C72.0766 2.5291 65.8011 5.70179 61.3454 10.591C60.4432 11.5809 59.3233 12.9663 59.1111 13.3549C59.0838 13.4048 59.3147 13.6629 59.7083 14.0224C60.5647 14.8049 60.6883 15.1853 60.2735 15.7621C59.8627 16.3338 58.9143 16.0375 58.1582 15.1014C58.0853 15.0114 56.7917 13.9298 56.3369 13.5787C50.1057 8.77106 41.6079 8.22651 34.9047 12.2058C29.7403 15.2714 26.1957 20.422 25.0143 26.5775C24.7818 27.7877 24.6868 27.6633 25.8427 27.6633C27.2102 27.6633 27.5875 27.8748 27.5869 28.6402C27.5862 29.5349 27.45 29.5753 24.3025 29.6158C22.0971 29.6442 21.5719 29.6709 20.8551 29.7916C8.68822 31.8416 2.09296 45.7112 7.82322 57.1977C10.4819 62.5274 15.3511 66.1034 21.1475 66.9827C22.4119 67.1745 108.526 67.1749 109.824 66.983C115.385 66.1608 120.183 62.7395 122.896 57.661C128.179 47.7716 124.074 35.2176 114.162 30.9512C113.049 30.4722 111.173 29.9248 110.12 29.7717L109.819 29.7277L109.793 30.6798C109.759 31.948 109.569 32.2873 108.891 32.2873C108.111 32.2873 107.983 31.98 107.983 30.115C107.983 20.3414 102.745 10.8723 94.5182 5.77227C93.7439 5.29232 92.7151 4.72264 92.2234 4.50143C92.0164 4.40811 91.653 4.2378 91.4156 4.1223C88.296 2.60643 82.8308 1.58388 79.4929 1.89188Z" fill="#F3F3E3"/>
<path fill-rule="evenodd" clip-rule="evenodd" d="M79.1515 1.90102C79.2678 1.91636 79.4581 1.91636 79.5743 1.90102C79.6906 1.88569 79.5956 1.87329 79.3628 1.87329C79.1303 1.87329 79.0353 1.88569 79.1515 1.90102ZM82.0786 1.90102C82.1949 1.91636 82.3849 1.91636 82.5014 1.90102C82.6177 1.88569 82.5223 1.87329 82.2899 1.87329C82.0574 1.87329 81.9621 1.88569 82.0786 1.90102ZM78.4034 1.96791C78.4661 1.9852 78.5685 1.9852 78.6312 1.96791C78.6937 1.95029 78.6426 1.93626 78.5172 1.93626C78.392 1.93626 78.341 1.95029 78.4034 1.96791ZM83.0866 1.96791C83.1493 1.9852 83.2517 1.9852 83.3145 1.96791C83.3769 1.95029 83.3258 1.93626 83.2004 1.93626C83.0752 1.93626 83.0242 1.95029 83.0866 1.96791ZM92.8273 4.78072C92.8273 4.79998 92.9149 4.8636 93.0222 4.92233C93.1296 4.98138 93.2175 5.01401 93.2175 4.99509C93.2175 4.97584 93.1296 4.91221 93.0222 4.85348C92.9149 4.79443 92.8273 4.7618 92.8273 4.78072ZM43.5055 9.56195C43.6208 9.57696 43.8256 9.57729 43.9606 9.56228C44.0956 9.54727 44.0012 9.53487 43.7509 9.53455C43.5003 9.53422 43.3899 9.54662 43.5055 9.56195ZM45.0698 9.56261C45.2226 9.57729 45.4569 9.57696 45.5901 9.56228C45.7232 9.54727 45.5981 9.53553 45.3118 9.53553C45.0258 9.53585 44.9166 9.54793 45.0698 9.56261ZM42.662 9.62982C42.7429 9.64646 42.8601 9.64581 42.9222 9.62852C42.9843 9.61122 42.9182 9.59752 42.7752 9.5985C42.6319 9.59915 42.5812 9.61318 42.662 9.62982ZM46.3047 9.62982C46.3856 9.64646 46.5024 9.64581 46.5648 9.62852C46.627 9.61122 46.5608 9.59752 46.4175 9.5985C46.2746 9.59915 46.2235 9.61318 46.3047 9.62982ZM99.9822 10.2367C100.32 10.5972 100.612 10.8922 100.63 10.8922C100.648 10.8922 100.386 10.5972 100.047 10.2367C99.7088 9.87616 99.4173 9.58088 99.3992 9.58088C99.3813 9.58088 99.6436 9.87616 99.9822 10.2367ZM42.0434 9.69769C42.1061 9.71498 42.2085 9.71498 42.2709 9.69769C42.3336 9.68039 42.2823 9.66604 42.1571 9.66604C42.032 9.66604 41.9806 9.68039 42.0434 9.69769ZM46.9218 9.69769C46.9843 9.71498 47.0867 9.71498 47.1494 9.69769C47.2118 9.68039 47.1608 9.66604 47.0356 9.66604C46.9105 9.66604 46.8591 9.68039 46.9218 9.69769ZM61.4414 10.4266L60.9878 10.9268L61.4592 10.4455C61.7187 10.1809 61.9309 9.95577 61.9309 9.94533C61.9309 9.89443 61.8627 9.96164 61.4414 10.4266ZM60.5284 11.4619L60.3371 11.686L60.5487 11.4834C60.6649 11.3718 60.76 11.271 60.76 11.2589C60.76 11.2057 60.7065 11.2527 60.5284 11.4619ZM59.0423 13.367C59.0232 13.3993 59.0875 13.5004 59.1846 13.5911L59.3615 13.7565L59.2145 13.5787C59.1339 13.4812 59.0875 13.3803 59.1118 13.3546C59.1357 13.3288 59.1379 13.3079 59.1161 13.3079C59.0942 13.3079 59.061 13.3343 59.0423 13.367ZM31.0961 15.0851L30.8719 15.3439L31.1157 15.106C31.2498 14.9752 31.3596 14.8587 31.3596 14.8473C31.3596 14.7944 31.3045 14.844 31.0961 15.0851ZM60.4512 15.1367C60.4518 15.2887 60.4654 15.3426 60.4808 15.2568C60.4964 15.1709 60.4958 15.0466 60.4795 14.9807C60.4632 14.9148 60.4506 14.985 60.4512 15.1367ZM24.8111 27.5599C24.8237 27.6911 24.8732 27.6979 25.8317 27.7005L26.839 27.7032L25.8516 27.6813C24.9836 27.6624 24.86 27.6454 24.8307 27.5407C24.8058 27.4509 24.8009 27.4558 24.8111 27.5599ZM22.1395 29.6432C22.2022 29.6608 22.3046 29.6608 22.3674 29.6432C22.4298 29.6259 22.3787 29.6119 22.2533 29.6119C22.1281 29.6119 22.0771 29.6259 22.1395 29.6432ZM109.764 30.562C109.764 31.0364 109.774 31.2305 109.787 30.9933C109.8 30.7561 109.8 30.3678 109.787 30.1306C109.774 29.8934 109.764 30.0876 109.764 30.562ZM119.723 34.7719C119.936 34.9996 120.124 35.1859 120.142 35.1859C120.16 35.1859 120.001 34.9996 119.788 34.7719C119.576 34.5442 119.388 34.3579 119.369 34.3579C119.352 34.3579 119.511 34.5442 119.723 34.7719ZM10.1836 35.8936L9.99233 36.1178L10.2039 35.9152C10.401 35.7262 10.4453 35.6692 10.3948 35.6692C10.3838 35.6692 10.2885 35.77 10.1836 35.8936ZM125.173 47.0225C125.174 47.2121 125.186 47.2816 125.201 47.1769C125.216 47.0718 125.216 46.9165 125.2 46.8317C125.185 46.7468 125.173 46.8326 125.173 47.0225ZM5.75067 47.0914C5.75098 47.2813 5.76359 47.3508 5.77866 47.2457C5.79372 47.141 5.79311 46.9857 5.77773 46.9005C5.76236 46.8157 5.75006 46.9015 5.75067 47.0914ZM125.238 48.4718C125.239 48.6614 125.251 48.7309 125.266 48.6262C125.281 48.5211 125.281 48.3658 125.265 48.281C125.25 48.1961 125.238 48.282 125.238 48.4718ZM5.75067 49.6451C5.75098 49.8347 5.76359 49.9042 5.77866 49.7995C5.79372 49.6944 5.79311 49.5391 5.77773 49.4543C5.76236 49.3694 5.75006 49.4552 5.75067 49.6451ZM125.173 49.714C125.174 49.9039 125.186 49.9734 125.201 49.8683C125.216 49.7636 125.216 49.6083 125.2 49.5234C125.185 49.4383 125.173 49.5241 125.173 49.714ZM120.014 61.671L119.658 62.068L120.032 61.6909C120.38 61.3401 120.436 61.2742 120.388 61.2742C120.377 61.2742 120.209 61.4527 120.014 61.671ZM10.838 61.6194C10.9779 61.7711 11.1067 61.8954 11.1245 61.8954C11.1424 61.8954 11.0427 61.7711 10.9031 61.6194C10.7632 61.4674 10.6344 61.3434 10.6166 61.3434C10.5987 61.3434 10.6983 61.4674 10.838 61.6194ZM22.0104 67.1211C22.1094 67.137 22.2557 67.1367 22.3357 67.1201C22.4156 67.1038 22.3348 67.0907 22.1558 67.0914C21.9768 67.092 21.9116 67.1054 22.0104 67.1211ZM108.65 67.1211C108.749 67.137 108.895 67.1367 108.975 67.1201C109.056 67.1038 108.975 67.0907 108.796 67.0914C108.617 67.092 108.551 67.1054 108.65 67.1211ZM44.3198 67.1925C55.9734 67.202 75.043 67.202 86.6967 67.1925C98.3503 67.1827 88.8156 67.1749 65.5084 67.1749C42.2011 67.1749 32.6661 67.1827 44.3198 67.1925Z" fill="#ACAEA9"/>
<path fill-rule="evenodd" clip-rule="evenodd" d="M80.6149 1.8329C80.785 1.84726 81.063 1.84726 81.233 1.8329C81.4027 1.81887 81.2638 1.80713 80.924 1.80713C80.5842 1.80713 80.4452 1.81887 80.6149 1.8329ZM108.01 30.1826C108.01 30.9037 108.019 31.1895 108.031 30.8172C108.043 30.4452 108.043 29.855 108.031 29.5059C108.019 29.1568 108.01 29.4612 108.01 30.1826ZM24.6798 29.5783C25.0663 29.5907 25.681 29.5904 26.0457 29.5783C26.4107 29.5659 26.0943 29.5558 25.343 29.5561C24.5918 29.5561 24.2932 29.5663 24.6798 29.5783ZM125.235 47.9541C125.235 48.0869 125.248 48.1414 125.265 48.0748C125.281 48.0086 125.281 47.9 125.265 47.8334C125.248 47.7668 125.235 47.8213 125.235 47.9541ZM5.68979 48.3682C5.68979 48.6908 5.70086 48.823 5.7147 48.6615C5.72823 48.5003 5.72823 48.2363 5.7147 48.0748C5.70086 47.9137 5.68979 48.0455 5.68979 48.3682ZM22.8551 67.1883C22.9178 67.2056 23.0202 67.2056 23.0826 67.1883C23.1453 67.171 23.094 67.1567 22.9688 67.1567C22.8437 67.1567 22.7923 67.171 22.8551 67.1883Z" fill="#949494"/>
<path fill-rule="evenodd" clip-rule="evenodd" d="M79.6703 1.83189C79.7859 1.84723 79.9907 1.84756 80.1257 1.83255C80.2607 1.81754 80.1663 1.80514 79.9157 1.80481C79.6654 1.80449 79.555 1.81689 79.6703 1.83189ZM81.6558 1.83157C81.7542 1.84756 81.915 1.84756 82.0134 1.83157C82.1118 1.81591 82.0313 1.80286 81.8345 1.80286C81.6377 1.80286 81.5574 1.81591 81.6558 1.83157ZM78.5335 1.89878C78.5962 1.91607 78.6986 1.91607 78.7613 1.89878C78.8237 1.88149 78.7727 1.86713 78.6472 1.86713C78.5221 1.86713 78.471 1.88149 78.5335 1.89878ZM82.8917 1.89878C82.9541 1.91607 83.0565 1.91607 83.1192 1.89878C83.1819 1.88149 83.1306 1.86713 83.0054 1.86713C82.8803 1.86713 82.8289 1.88149 82.8917 1.89878ZM83.542 1.96795C83.6047 1.98524 83.7071 1.98524 83.7696 1.96795C83.8323 1.95033 83.7809 1.9363 83.6558 1.9363C83.5306 1.9363 83.4793 1.95033 83.542 1.96795ZM60.6914 11.2201L60.4672 11.4789L60.7114 11.241C60.9383 11.0198 60.985 10.9614 60.9355 10.9614C60.9245 10.9614 60.8147 11.0779 60.6914 11.2201ZM30.7719 15.3612L30.4165 15.7579L30.7907 15.3808C31.1382 15.0304 31.1945 14.9644 31.1462 14.9644C31.136 14.9644 30.9675 15.1429 30.7719 15.3612ZM108.002 28.5606C108.002 28.7695 108.014 28.8546 108.029 28.7502C108.044 28.6458 108.044 28.4752 108.029 28.3707C108.014 28.2663 108.002 28.3518 108.002 28.5606ZM22.9202 29.5763C23.0186 29.592 23.1795 29.592 23.2779 29.5763C23.3763 29.5603 23.2957 29.5473 23.0989 29.5473C22.9021 29.5473 22.8218 29.5603 22.9202 29.5763ZM23.7007 29.5744C23.7634 29.5917 23.8658 29.5917 23.9282 29.5744C23.991 29.5571 23.9396 29.5427 23.8145 29.5427C23.6893 29.5427 23.638 29.5571 23.7007 29.5744ZM119.918 34.9099C120.058 35.062 120.187 35.186 120.205 35.186C120.223 35.186 120.123 35.062 119.984 34.9099C119.844 34.7582 119.715 34.6339 119.697 34.6339C119.679 34.6339 119.779 34.7582 119.918 34.9099ZM10.3466 35.6519L10.1224 35.9106L10.3666 35.6731C10.5935 35.4516 10.6402 35.3932 10.5907 35.3932C10.5797 35.3932 10.4699 35.5096 10.3466 35.6519ZM5.68549 47.5055C5.6861 47.6953 5.69871 47.7648 5.71378 47.6598C5.72854 47.555 5.72823 47.3997 5.71286 47.3149C5.69717 47.2297 5.68518 47.3159 5.68549 47.5055ZM125.237 47.4709C125.237 47.6418 125.25 47.7117 125.265 47.6262C125.281 47.541 125.281 47.401 125.265 47.3159C125.25 47.2304 125.237 47.3002 125.237 47.4709ZM5.68549 49.2308C5.6861 49.4207 5.69871 49.4902 5.71378 49.3851C5.72854 49.2804 5.72823 49.1251 5.71286 49.0402C5.69717 48.9554 5.68518 49.0412 5.68549 49.2308ZM125.236 49.3C125.237 49.4517 125.25 49.5058 125.265 49.42C125.281 49.3342 125.281 49.2099 125.264 49.144C125.248 49.0778 125.235 49.1482 125.236 49.3ZM10.2851 61.0328C10.4065 61.1656 10.5203 61.2742 10.5385 61.2742C10.5563 61.2742 10.4714 61.1656 10.3503 61.0328C10.2288 60.9 10.115 60.791 10.0969 60.791C10.079 60.791 10.1639 60.9 10.2851 61.0328ZM11.456 62.2749C11.5772 62.4077 11.6913 62.5167 11.7091 62.5167C11.7269 62.5167 11.6424 62.4077 11.5209 62.2749C11.3998 62.1421 11.2857 62.0335 11.2678 62.0335C11.25 62.0335 11.3346 62.1421 11.456 62.2749ZM22.4332 67.1896C22.514 67.2059 22.6309 67.2053 22.6933 67.188C22.7554 67.1707 22.6893 67.1573 22.546 67.158C22.403 67.1589 22.352 67.173 22.4332 67.1896ZM108.292 67.1896C108.373 67.2059 108.49 67.2053 108.553 67.188C108.615 67.1707 108.549 67.1573 108.406 67.158C108.262 67.1589 108.212 67.173 108.292 67.1896Z" fill="#8C9494"/>
</g>
<defs>
<filter id="filter0_d" x="107" y="62" width="270" height="254.747" filterUnits="userSpaceOnUse" color-interpolation-filters="sRGB">
<feFlood flood-opacity="0" result="BackgroundImageFix"/>
<feColorMatrix in="SourceAlpha" type="matrix" values="0 0 0 0 0 0 0 0 0 0 0 0 0 0 0 0 0 0 127 0"/>
<feOffset dy="4"/>
<feGaussianBlur stdDeviation="2"/>
<feColorMatrix type="matrix" values="0 0 0 0 0 0 0 0 0 0 0 0 0 0 0 0 0 0 0.25 0"/>
<feBlend mode="normal" in2="BackgroundImageFix" result="effect1_dropShadow"/>
<feBlend mode="normal" in="SourceGraphic" in2="effect1_dropShadow" result="shape"/>
</filter>
<filter id="filter1_d" x="273" y="185" width="232" height="132" filterUnits="userSpaceOnUse" color-interpolation-filters="sRGB">
<feFlood flood-opacity="0" result="BackgroundImageFix"/>
<feColorMatrix in="SourceAlpha" type="matrix" values="0 0 0 0 0 0 0 0 0 0 0 0 0 0 0 0 0 0 127 0"/>
<feOffset dy="4"/>
<feGaussianBlur stdDeviation="2"/>
<feColorMatrix type="matrix" values="0 0 0 0 0 0 0 0 0 0 0 0 0 0 0 0 0 0 0.25 0"/>
<feBlend mode="normal" in2="BackgroundImageFix" result="effect1_dropShadow"/>
<feBlend mode="normal" in="SourceGraphic" in2="effect1_dropShadow" result="shape"/>
</filter>
<filter id="filter2_d" x="37" y="236" width="308" height="166" filterUnits="userSpaceOnUse" color-interpolation-filters="sRGB">
<feFlood flood-opacity="0" result="BackgroundImageFix"/>
<feColorMatrix in="SourceAlpha" type="matrix" values="0 0 0 0 0 0 0 0 0 0 0 0 0 0 0 0 0 0 127 0"/>
<feOffset dy="4"/>
<feGaussianBlur stdDeviation="2"/>
<feColorMatrix type="matrix" values="0 0 0 0 0 0 0 0 0 0 0 0 0 0 0 0 0 0 0.25 0"/>
<feBlend mode="normal" in2="BackgroundImageFix" result="effect1_dropShadow"/>
<feBlend mode="normal" in="SourceGraphic" in2="effect1_dropShadow" result="shape"/>
</filter>
<filter id="filter3_d" x="0" y="0" width="131" height="77" filterUnits="userSpaceOnUse" color-interpolation-filters="sRGB">
<feFlood flood-opacity="0" result="BackgroundImageFix"/>
<feColorMatrix in="SourceAlpha" type="matrix" values="0 0 0 0 0 0 0 0 0 0 0 0 0 0 0 0 0 0 127 0"/>
<feOffset dy="4"/>
<feGaussianBlur stdDeviation="2"/>
<feColorMatrix type="matrix" values="0 0 0 0 0 0 0 0 0 0 0 0 0 0 0 0 0 0 0.25 0"/>
<feBlend mode="normal" in2="BackgroundImageFix" result="effect1_dropShadow"/>
<feBlend mode="normal" in="SourceGraphic" in2="effect1_dropShadow" result="shape"/>
</filter>
<clipPath id="clip0">
<rect width="224" height="124" fill="white" transform="matrix(-1 0 0 1 501 185)"/>
</clipPath>
<clipPath id="clip1">
<rect width="300" height="158" fill="white" transform="translate(41 236)"/>
</clipPath>
<clipPath id="clip2">
<rect width="123" height="69" fill="white" transform="translate(4)"/>
</clipPath>
</defs>
</svg>
