<svg id="svg" version="1.1" xmlns="http://www.w3.org/2000/svg" xmlns:xlink="http://www.w3.org/1999/xlink" width="400" height="265.1162790697674" viewBox="0, 0, 400,265.1162790697674"><g id="svgg"><path id="path0" d="M111.273 0.253 C 103.273 1.173,100.528 9.867,106.107 16.618 C 106.687 17.320,107.162 18.002,107.162 18.132 C 107.162 18.263,107.744 19.161,108.456 20.127 C 109.168 21.093,110.197 22.599,110.743 23.475 C 111.289 24.350,111.876 25.186,112.048 25.332 C 112.220 25.477,112.810 26.341,113.359 27.252 C 113.909 28.162,114.596 29.176,114.887 29.506 C 115.179 29.836,116.009 31.001,116.733 32.095 C 117.457 33.190,118.682 35.040,119.456 36.207 C 120.230 37.374,121.063 38.493,121.307 38.693 C 121.551 38.893,121.751 39.177,121.751 39.324 C 121.751 39.471,122.168 40.173,122.679 40.884 C 123.190 41.595,123.607 42.289,123.607 42.428 C 123.607 42.566,123.771 42.775,123.970 42.891 C 124.170 43.008,124.879 43.960,125.547 45.006 C 126.215 46.053,126.942 47.127,127.163 47.394 C 127.545 47.853,128.412 49.124,131.656 53.979 C 132.436 55.146,133.272 56.265,133.513 56.465 C 133.755 56.665,133.952 56.940,133.952 57.076 C 133.952 57.335,136.032 60.513,136.352 60.743 C 136.453 60.816,137.113 61.771,137.818 62.865 C 138.523 63.959,139.374 65.151,139.709 65.515 C 140.044 65.878,140.318 66.285,140.318 66.419 C 140.318 66.553,141.214 67.897,142.308 69.406 C 143.402 70.915,144.297 72.251,144.297 72.375 C 144.297 72.500,144.590 72.917,144.947 73.303 C 145.304 73.688,146.137 74.810,146.797 75.795 C 147.457 76.780,148.420 78.183,148.936 78.912 L 149.875 80.239 135.348 80.409 C 127.359 80.503,107.931 80.622,92.175 80.674 L 63.528 80.769 61.859 80.136 C 60.941 79.788,59.867 79.179,59.472 78.783 C 57.901 77.209,56.992 76.078,56.327 74.871 C 55.944 74.176,55.282 73.084,54.856 72.445 C 54.431 71.806,53.617 70.358,53.049 69.228 C 52.481 68.098,51.861 67.009,51.671 66.809 C 51.481 66.609,50.739 65.312,50.021 63.926 C 49.302 62.540,48.636 61.346,48.539 61.273 C 48.443 61.200,47.737 59.947,46.972 58.488 C 46.206 57.029,45.430 55.656,45.247 55.438 C 45.063 55.219,44.459 54.145,43.903 53.050 C 43.347 51.956,42.627 50.703,42.304 50.265 C 41.981 49.828,41.268 48.604,40.719 47.546 C 40.171 46.489,39.618 45.623,39.490 45.623 C 39.362 45.623,39.257 45.520,39.257 45.393 C 39.257 45.140,37.330 41.645,36.595 40.567 C 36.340 40.193,35.573 38.820,34.889 37.516 C 32.430 32.822,29.853 29.820,26.790 28.079 C 25.988 27.622,25.272 27.162,25.199 27.055 C 25.126 26.948,24.437 26.543,23.668 26.155 C 13.277 20.913,2.966 23.044,0.475 30.948 L -0.096 32.759 0.228 52.387 C 0.407 63.183,0.724 83.141,0.932 96.738 C 1.152 111.034,1.432 122.220,1.597 123.263 C 1.930 125.365,2.614 128.133,2.896 128.515 C 3.004 128.660,3.309 129.377,3.574 130.106 C 4.292 132.079,5.805 135.013,6.104 135.013 C 6.248 135.013,6.366 135.152,6.366 135.321 C 6.366 136.524,13.773 144.032,14.960 144.032 C 15.065 144.032,15.591 144.384,16.130 144.815 C 16.668 145.246,18.243 146.026,19.629 146.550 C 21.015 147.074,22.387 147.621,22.679 147.765 C 25.640 149.233,30.764 149.347,102.864 149.553 L 166.338 149.735 165.077 151.724 C 164.383 152.818,163.736 153.773,163.639 153.846 C 163.542 153.919,162.793 154.993,161.976 156.233 C 161.158 157.473,159.899 159.383,159.179 160.477 C 158.458 161.572,157.764 162.586,157.636 162.732 C 157.150 163.289,155.703 165.489,155.703 165.670 C 155.703 165.775,155.311 166.350,154.832 166.949 C 154.352 167.547,153.430 168.873,152.782 169.894 C 152.133 170.915,151.533 171.810,151.447 171.883 C 151.133 172.150,149.602 174.505,149.602 174.721 C 149.602 174.843,149.155 175.505,148.607 176.190 C 148.060 176.876,147.136 178.187,146.553 179.103 C 145.970 180.020,145.092 181.302,144.601 181.954 C 144.111 182.606,143.611 183.398,143.491 183.715 C 143.370 184.032,142.928 184.692,142.508 185.183 C 142.088 185.673,141.432 186.618,141.050 187.282 C 140.669 187.947,139.824 189.200,139.174 190.068 C 138.524 190.935,137.725 192.122,137.398 192.706 C 137.072 193.289,136.516 194.125,136.162 194.562 C 135.455 195.437,133.246 198.706,131.898 200.872 C 131.425 201.632,130.675 202.732,130.233 203.316 C 129.476 204.313,128.174 206.249,121.561 216.211 C 120.071 218.455,118.579 220.637,118.246 221.058 C 117.912 221.479,117.401 222.216,117.109 222.696 C 116.144 224.280,112.760 229.296,112.110 230.106 C 111.758 230.544,111.203 231.379,110.877 231.963 C 110.249 233.085,109.352 234.418,108.895 234.910 C 108.744 235.072,108.203 235.881,107.692 236.707 C 107.182 237.533,106.316 238.771,105.769 239.457 C 105.222 240.144,104.775 240.807,104.775 240.929 C 104.775 241.145,103.243 243.500,102.929 243.767 C 102.844 243.840,102.242 244.735,101.593 245.756 C 100.944 246.777,100.094 248.031,99.703 248.541 C 99.091 249.343,97.862 251.533,96.245 254.708 C 93.847 259.417,95.861 264.275,100.466 264.886 C 103.794 265.327,119.858 265.154,122.332 264.650 C 124.970 264.112,130.035 262.649,130.236 262.367 C 130.311 262.263,131.386 261.783,132.626 261.301 C 134.764 260.470,136.845 259.468,137.135 259.129 C 137.208 259.044,138.103 258.523,139.125 257.971 C 140.146 257.419,141.220 256.754,141.512 256.494 C 141.804 256.233,142.878 255.454,143.899 254.762 C 144.920 254.070,145.816 253.423,145.889 253.324 C 145.962 253.225,146.678 252.614,147.480 251.965 C 148.886 250.828,150.218 249.651,152.197 247.797 C 152.712 247.315,153.788 246.360,154.590 245.676 C 155.391 244.991,156.442 244.073,156.926 243.635 C 157.409 243.197,158.455 242.261,159.251 241.555 C 160.046 240.850,161.274 239.732,161.980 239.070 C 162.685 238.409,163.453 237.733,163.686 237.568 C 163.919 237.403,165.043 236.432,166.185 235.411 C 167.327 234.390,168.934 232.958,169.756 232.228 C 170.579 231.499,171.782 230.431,172.430 229.855 C 173.078 229.280,174.741 227.816,176.127 226.603 C 180.083 223.140,181.373 222.005,183.394 220.208 C 184.431 219.287,185.915 217.974,186.693 217.291 C 187.471 216.607,188.665 215.551,189.345 214.944 C 190.026 214.336,192.732 211.956,195.358 209.654 C 197.984 207.352,200.746 204.925,201.497 204.260 C 202.247 203.595,203.548 202.454,204.388 201.724 C 205.228 200.995,206.320 200.017,206.815 199.551 C 207.310 199.085,208.335 198.190,209.093 197.562 C 209.851 196.933,210.916 196.001,211.459 195.491 C 212.521 194.492,214.266 192.956,216.183 191.332 C 216.841 190.774,217.631 190.080,217.940 189.788 C 218.248 189.496,219.201 188.646,220.059 187.899 C 220.916 187.152,222.812 185.500,224.271 184.228 C 225.729 182.955,227.630 181.298,228.493 180.546 C 229.903 179.317,231.065 178.296,235.013 174.813 C 236.412 173.579,239.029 171.287,241.389 169.231 C 242.309 168.428,243.609 167.274,244.277 166.667 C 244.944 166.059,246.684 164.525,248.143 163.258 C 249.602 161.991,251.626 160.221,252.640 159.323 C 254.673 157.526,256.984 155.494,259.019 153.716 C 259.748 153.079,261.300 151.702,262.467 150.657 L 264.589 148.758 304.244 148.981 C 381.900 149.418,384.802 149.378,386.343 147.837 C 386.550 147.630,387.159 147.277,387.698 147.052 C 390.349 145.944,394.406 142.001,395.999 138.984 C 396.498 138.040,396.987 137.208,397.087 137.135 C 397.694 136.691,399.067 132.510,399.594 129.502 C 400.648 123.477,399.509 115.113,397.313 112.756 C 397.045 112.469,396.573 111.784,396.265 111.235 C 395.956 110.686,395.029 109.357,394.205 108.282 C 393.380 107.208,392.527 106.058,392.308 105.727 C 391.567 104.608,385.295 98.145,384.946 98.141 C 384.837 98.139,384.138 97.572,383.392 96.881 C 381.933 95.528,376.844 91.939,375.822 91.542 C 375.479 91.409,374.781 91.019,374.270 90.676 C 373.758 90.334,372.505 89.674,371.484 89.211 C 370.464 88.748,368.733 87.960,367.639 87.460 C 366.545 86.960,364.277 86.092,362.599 85.532 C 360.922 84.972,359.489 84.429,359.416 84.325 C 359.272 84.119,353.353 82.486,350.796 81.946 C 349.920 81.761,349.079 81.516,348.926 81.400 C 348.157 80.821,338.587 79.531,332.361 79.168 C 329.397 78.996,255.060 79.424,238.639 79.709 L 230.461 79.851 229.488 78.865 C 228.952 78.323,227.858 77.343,227.056 76.687 C 226.253 76.032,225.283 75.190,224.899 74.816 C 224.098 74.038,222.635 72.741,217.241 68.027 C 215.126 66.179,212.514 63.873,211.436 62.903 C 210.359 61.934,209.298 61.036,209.079 60.908 C 208.859 60.780,208.163 60.183,207.532 59.582 C 205.821 57.951,204.808 57.042,203.101 55.603 C 202.254 54.889,201.217 53.993,200.797 53.611 C 200.376 53.230,199.399 52.362,198.624 51.682 C 197.849 51.003,196.433 49.749,195.478 48.897 C 194.522 48.045,192.496 46.273,190.976 44.960 C 189.456 43.647,187.492 41.937,186.613 41.159 C 185.733 40.381,184.357 39.168,183.554 38.464 C 182.008 37.105,179.168 34.608,177.188 32.864 C 176.532 32.286,175.212 31.131,174.255 30.297 C 173.298 29.462,171.746 28.101,170.806 27.271 C 169.867 26.442,167.905 24.731,166.446 23.470 C 164.987 22.209,163.308 20.739,162.716 20.204 C 158.685 16.563,155.474 13.818,153.976 12.732 C 152.129 11.393,148.726 9.309,148.364 9.296 C 148.194 9.289,148.015 9.183,147.966 9.060 C 147.918 8.936,146.625 8.179,145.093 7.377 C 143.561 6.575,141.711 5.602,140.981 5.215 C 133.117 1.037,129.942 0.272,119.894 0.133 C 116.174 0.081,112.294 0.135,111.273 0.253 M126.337 7.292 C 130.142 7.956,133.975 9.495,140.222 12.869 C 148.703 17.449,148.693 17.442,158.217 25.862 C 160.527 27.905,162.906 29.989,163.503 30.495 C 164.100 31.000,165.663 32.378,166.976 33.558 C 168.289 34.737,169.850 36.114,170.444 36.618 C 171.631 37.623,179.007 44.092,187.666 51.718 C 190.729 54.417,193.594 56.937,194.032 57.318 C 194.469 57.700,195.962 59.018,197.347 60.247 C 198.733 61.476,200.354 62.896,200.949 63.403 C 201.545 63.909,204.469 66.469,207.448 69.092 C 210.427 71.714,214.357 75.165,216.180 76.762 C 218.004 78.358,219.532 79.751,219.575 79.858 C 219.731 80.238,213.310 80.365,186.207 80.517 L 158.753 80.672 157.910 79.394 C 157.446 78.692,156.261 76.983,155.277 75.597 C 150.601 69.015,130.815 40.345,119.894 24.327 C 117.633 21.010,114.500 16.418,112.932 14.122 C 109.726 9.427,109.429 8.507,110.778 7.446 C 111.689 6.730,122.499 6.623,126.337 7.292 M15.595 30.922 C 20.013 31.826,25.298 35.331,27.166 38.594 C 27.584 39.324,28.608 41.114,29.443 42.573 C 30.277 44.032,31.767 46.598,32.753 48.276 C 36.045 53.874,37.162 55.806,39.582 60.080 C 40.904 62.414,42.668 65.517,43.502 66.976 C 44.336 68.435,45.588 70.643,46.286 71.883 C 52.330 82.631,54.233 84.818,59.345 86.882 C 62.328 88.087,62.624 88.095,96.635 87.813 C 114.315 87.667,138.568 87.485,150.531 87.409 C 198.027 87.106,214.013 86.994,228.382 86.863 C 338.874 85.855,333.440 85.840,340.745 87.164 L 341.570 87.313 341.892 91.336 C 342.618 100.397,343.873 104.730,347.205 109.667 C 351.563 116.126,356.858 119.910,365.119 122.470 L 367.507 123.210 380.172 123.153 L 392.838 123.096 392.838 124.522 C 392.838 132.449,387.513 140.437,381.141 142.070 C 379.475 142.497,317.778 142.319,274.637 141.763 C 260.288 141.578,262.522 140.932,255.172 147.391 C 252.036 150.147,247.381 154.239,244.828 156.483 C 233.132 166.764,225.548 173.418,224.556 174.271 C 223.632 175.064,219.309 178.867,209.663 187.370 C 208.486 188.408,206.696 189.973,205.685 190.849 C 204.674 191.724,203.250 192.985,202.520 193.650 C 201.791 194.316,199.821 196.058,198.143 197.522 C 196.466 198.986,191.928 202.978,188.060 206.392 C 184.192 209.806,180.544 213.017,179.953 213.528 C 176.841 216.218,153.218 237.110,148.160 241.646 C 142.484 246.735,140.014 248.762,137.122 250.701 C 132.038 254.112,124.378 257.344,119.629 258.084 C 117.553 258.407,103.116 258.379,102.789 258.051 C 102.322 257.583,106.652 250.855,121.883 228.382 C 123.218 226.412,126.804 221.101,129.851 216.578 C 136.821 206.235,143.866 195.795,149.182 187.931 C 153.517 181.517,161.578 169.573,171.021 155.569 C 177.245 146.340,177.442 145.896,176.083 144.168 C 174.875 142.633,176.697 142.706,139.597 142.703 C 94.432 142.699,31.781 142.243,28.962 141.896 C 18.288 140.585,9.789 132.046,8.514 121.353 C 8.357 120.040,8.109 111.923,7.963 103.316 C 7.817 94.708,7.574 80.265,7.422 71.220 C 7.270 62.175,7.038 50.287,6.907 44.803 C 6.745 38.067,6.755 34.482,6.940 33.756 C 7.658 30.924,10.714 29.923,15.595 30.922 M352.520 90.289 C 369.588 95.831,382.667 104.735,387.939 114.403 C 388.480 115.395,388.873 116.255,388.813 116.316 C 388.752 116.376,384.172 116.459,378.635 116.500 L 368.568 116.575 366.197 115.834 C 354.922 112.309,348.541 102.982,348.541 90.025 C 348.541 88.918,348.232 88.897,352.520 90.289 M124.697 107.979 C 115.803 109.726,111.386 120.522,116.394 128.271 C 120.805 135.095,130.615 136.285,136.509 130.711 C 146.269 121.480,137.906 105.385,124.697 107.979 M164.230 108.222 C 155.498 110.285,151.296 120.749,156.182 128.260 C 162.586 138.105,177.228 135.788,180.122 124.472 C 182.582 114.854,173.868 105.944,164.230 108.222 M204.314 108.359 C 196.649 110.024,191.938 118.534,194.676 125.768 C 198.957 137.076,214.726 137.621,219.374 126.622 C 223.583 116.663,214.848 106.071,204.314 108.359 M244.297 108.511 C 237.940 109.734,232.940 116.872,233.961 123.265 C 236.162 137.044,254.766 139.073,259.686 126.071 C 263.296 116.535,254.537 106.540,244.297 108.511 M285.279 108.408 C 274.907 109.787,270.137 122.878,277.198 130.584 C 285.396 139.530,300.265 133.751,300.265 121.618 C 300.265 113.599,293.183 107.357,285.279 108.408 M130.239 115.025 C 135.488 117.208,135.181 125.279,129.775 127.208 C 126.421 128.405,122.304 126.463,121.345 123.232 C 119.636 117.478,124.762 112.748,130.239 115.025 M170.402 115.398 C 171.207 115.799,172.039 116.505,172.575 117.241 C 177.348 123.799,168.581 131.533,162.772 125.887 C 157.397 120.663,163.668 112.041,170.402 115.398 M209.947 115.349 C 214.061 117.222,215.092 122.798,211.913 125.977 C 207.720 130.170,200.614 127.157,200.692 121.220 C 200.752 116.641,205.781 113.452,209.947 115.349 M248.717 115.205 C 254.841 116.794,255.392 125.261,249.530 127.711 C 248.303 128.223,245.887 128.234,244.687 127.732 C 237.155 124.586,240.832 113.160,248.717 115.205 M288.919 115.397 C 292.333 116.345,294.307 120.094,293.270 123.661 C 291.786 128.766,284.678 129.928,281.671 125.558 C 278.104 120.374,282.856 113.713,288.919 115.397 " stroke="none" fill="#3c3d4c" fill-rule="evenodd"></path><path id="path1" d="M111.273 7.479 C 109.387 8.548,109.438 8.656,117.239 20.027 C 118.941 22.507,121.349 26.028,122.592 27.851 C 123.835 29.675,125.594 32.241,126.502 33.554 C 127.410 34.867,129.286 37.613,130.671 39.655 C 132.879 42.910,135.304 46.440,141.332 55.172 C 142.188 56.412,144.655 59.993,146.814 63.130 C 148.973 66.267,151.297 69.609,151.979 70.557 C 152.661 71.505,154.097 73.534,155.172 75.066 C 156.246 76.598,157.551 78.426,158.072 79.128 L 159.019 80.405 184.483 80.220 C 198.488 80.118,212.036 79.961,214.589 79.871 L 219.231 79.708 217.222 77.984 C 216.117 77.036,211.899 73.336,207.849 69.761 C 203.799 66.187,199.857 62.725,199.087 62.069 C 198.318 61.412,195.374 58.835,192.545 56.340 C 187.396 51.802,182.397 47.411,177.208 42.871 C 175.687 41.540,173.228 39.377,171.745 38.064 C 169.174 35.788,167.431 34.256,156.762 24.896 C 149.436 18.470,149.088 18.192,146.286 16.525 C 137.038 11.021,131.277 8.458,126.159 7.570 C 123.261 7.068,112.119 6.999,111.273 7.479 M10.153 31.027 C 8.926 31.318,8.035 31.972,7.520 32.960 C 7.008 33.942,7.010 33.543,7.427 54.377 C 7.571 61.598,7.872 79.443,8.095 94.032 C 8.414 114.883,8.584 121.015,8.892 122.700 C 10.634 132.230,18.571 140.034,28.154 141.641 C 30.372 142.013,85.513 142.418,135.619 142.431 C 167.726 142.439,174.167 142.501,174.902 142.808 C 176.007 143.269,176.995 144.830,176.995 146.113 C 176.995 147.232,177.427 146.552,166.024 163.395 C 163.605 166.969,159.493 173.057,156.887 176.923 C 154.281 180.789,150.092 186.996,147.578 190.716 C 145.064 194.436,141.037 200.405,138.628 203.979 C 136.220 207.553,132.316 213.342,129.954 216.844 C 124.678 224.665,117.236 235.710,110.027 246.419 C 107.031 250.869,104.199 255.225,103.732 256.101 L 102.884 257.692 104.161 257.868 C 106.891 258.244,117.886 258.108,120.196 257.670 C 126.794 256.419,133.973 253.009,140.186 248.175 C 142.375 246.472,144.187 244.893,153.448 236.621 C 155.199 235.058,159.257 231.470,162.467 228.649 C 165.676 225.828,168.904 222.972,169.640 222.303 C 170.376 221.635,172.703 219.576,174.812 217.727 C 176.922 215.879,181.930 211.475,185.942 207.939 C 189.954 204.403,195.082 199.888,197.337 197.904 C 204.076 191.978,207.682 188.803,210.353 186.447 C 211.743 185.221,215.682 181.759,219.106 178.755 C 228.133 170.835,231.841 167.577,237.784 162.348 C 240.694 159.787,244.693 156.283,246.670 154.561 C 250.134 151.545,256.408 146.031,259.309 143.454 C 260.077 142.772,260.977 142.068,261.309 141.891 C 261.783 141.637,274.570 141.642,320.943 141.912 C 386.991 142.297,381.312 142.435,384.495 140.373 C 389.149 137.359,392.573 130.556,392.573 124.325 L 392.573 123.256 381.754 123.429 C 367.385 123.659,364.956 123.334,359.061 120.396 C 348.464 115.114,343.331 106.941,341.841 92.974 L 341.247 87.407 339.920 87.217 C 333.415 86.287,328.005 86.266,249.735 86.870 C 221.724 87.086,180.723 87.380,158.621 87.523 C 136.519 87.666,106.347 87.928,91.574 88.104 C 62.537 88.450,63.239 88.473,59.284 87.066 C 54.857 85.491,52.023 82.542,47.881 75.199 C 46.893 73.448,45.578 71.121,44.957 70.027 C 44.337 68.932,43.023 66.605,42.038 64.854 C 37.745 57.229,34.531 51.669,29.846 43.767 C 29.370 42.964,28.479 41.385,27.865 40.257 C 24.450 33.985,16.074 29.620,10.153 31.027 M130.575 107.843 C 143.043 111.074,144.802 127.482,133.291 133.186 C 122.526 138.520,110.647 127.640,114.870 116.313 C 117.279 109.854,124.112 106.169,130.575 107.843 M170.080 107.987 C 179.541 109.974,183.878 120.710,178.481 128.780 C 172.307 138.009,158.279 136.124,154.632 125.576 C 151.228 115.729,159.905 105.851,170.080 107.987 M210.894 108.381 C 221.873 111.606,224.243 125.989,214.854 132.417 C 203.224 140.379,188.856 127.558,195.257 114.928 C 197.952 109.609,205.011 106.653,210.894 108.381 M251.582 108.790 C 265.664 113.494,262.586 134.196,247.694 134.945 C 236.527 135.506,229.741 123.120,236.091 113.768 C 239.361 108.953,245.838 106.871,251.582 108.790 M290.518 108.615 C 301.781 111.548,304.135 126.742,294.301 133.033 C 282.765 140.412,268.890 127.926,274.987 115.650 C 277.809 109.966,284.343 107.006,290.518 108.615 " stroke="none" fill="#f3f3e3" fill-rule="evenodd"></path><path id="path2" d="M118.775 7.092 C 119.546 7.146,120.740 7.146,121.428 7.091 C 122.116 7.037,121.485 6.993,120.027 6.993 C 118.568 6.994,118.005 7.039,118.775 7.092 M6.991 38.329 C 6.990 39.642,7.035 40.212,7.090 39.597 C 7.146 38.981,7.147 37.907,7.092 37.210 C 7.037 36.512,6.992 37.016,6.991 38.329 M7.260 49.867 C 7.260 51.399,7.304 52.026,7.357 51.260 C 7.411 50.494,7.411 49.241,7.357 48.475 C 7.304 47.709,7.260 48.336,7.260 49.867 M7.524 63.793 C 7.525 65.252,7.569 65.815,7.623 65.044 C 7.677 64.273,7.676 63.080,7.622 62.392 C 7.567 61.704,7.523 62.334,7.524 63.793 M7.786 78.647 C 7.786 79.960,7.831 80.531,7.886 79.915 C 7.942 79.300,7.942 78.225,7.888 77.528 C 7.833 76.831,7.787 77.334,7.786 78.647 M218.936 79.527 C 219.068 79.742,218.089 79.849,215.462 79.908 L 211.804 79.990 215.584 80.048 C 219.090 80.102,219.920 79.951,219.057 79.418 C 218.870 79.302,218.823 79.345,218.936 79.527 M183.355 80.304 C 185.361 80.349,188.644 80.349,190.650 80.304 C 192.656 80.259,191.015 80.222,187.003 80.222 C 182.991 80.222,181.349 80.259,183.355 80.304 M160.809 80.568 C 161.794 80.619,163.405 80.619,164.390 80.568 C 165.375 80.517,164.569 80.475,162.599 80.475 C 160.630 80.475,159.824 80.517,160.809 80.568 M316.395 86.405 C 318.190 86.451,321.055 86.451,322.761 86.405 C 324.466 86.359,322.997 86.321,319.496 86.321 C 315.995 86.321,314.599 86.359,316.395 86.405 M328.586 86.399 C 329.062 86.458,329.779 86.457,330.177 86.396 C 330.576 86.336,330.186 86.288,329.310 86.289 C 328.435 86.291,328.109 86.340,328.586 86.399 M278.581 86.670 C 279.857 86.718,281.946 86.718,283.223 86.670 C 284.499 86.621,283.455 86.581,280.902 86.581 C 278.349 86.581,277.304 86.621,278.581 86.670 M246.088 86.933 C 246.853 86.987,248.107 86.987,248.873 86.933 C 249.639 86.879,249.012 86.836,247.480 86.836 C 245.948 86.836,245.322 86.879,246.088 86.933 M210.146 87.199 C 211.131 87.250,212.742 87.250,213.727 87.199 C 214.712 87.148,213.906 87.107,211.936 87.107 C 209.967 87.107,209.161 87.148,210.146 87.199 M173.806 87.465 C 174.791 87.516,176.403 87.516,177.387 87.465 C 178.372 87.414,177.566 87.372,175.597 87.372 C 173.627 87.372,172.822 87.414,173.806 87.465 M131.773 87.729 C 132.544 87.783,133.737 87.782,134.425 87.728 C 135.113 87.673,134.483 87.629,133.024 87.630 C 131.565 87.631,131.002 87.675,131.773 87.729 M99.524 87.995 C 100.503 88.046,102.174 88.046,103.238 87.996 C 104.302 87.945,103.501 87.903,101.459 87.903 C 99.416 87.903,98.546 87.944,99.524 87.995 M63.859 88.251 C 64.188 88.314,64.725 88.314,65.053 88.251 C 65.381 88.188,65.113 88.136,64.456 88.136 C 63.800 88.136,63.531 88.188,63.859 88.251 M71.684 88.262 C 73.982 88.306,77.742 88.306,80.040 88.262 C 82.338 88.218,80.458 88.182,75.862 88.182 C 71.267 88.182,69.387 88.218,71.684 88.262 M348.641 90.119 C 348.720 90.521,348.921 92.221,349.088 93.899 C 350.073 103.752,354.520 110.399,362.763 114.337 C 366.662 116.200,368.719 116.399,382.553 116.247 L 388.581 116.180 388.305 115.454 C 384.909 106.521,367.534 94.718,350.664 89.884 C 348.467 89.254,348.472 89.253,348.641 90.119 M8.050 96.021 C 8.050 97.261,8.096 97.769,8.152 97.149 C 8.208 96.529,8.208 95.514,8.152 94.894 C 8.096 94.274,8.050 94.781,8.050 96.021 M246.489 108.148 C 246.892 108.209,247.489 108.207,247.815 108.144 C 248.142 108.081,247.812 108.031,247.082 108.033 C 246.353 108.035,246.086 108.087,246.489 108.148 M8.312 112.997 C 8.312 114.092,8.359 114.539,8.416 113.992 C 8.473 113.445,8.473 112.550,8.416 112.003 C 8.359 111.456,8.312 111.903,8.312 112.997 M237.386 112.135 L 236.472 113.130 237.467 112.216 C 238.393 111.365,238.583 111.141,238.381 111.141 C 238.337 111.141,237.889 111.588,237.386 112.135 M125.066 115.160 C 118.854 118.369,120.528 127.288,127.348 127.315 C 131.823 127.333,134.673 123.796,133.697 119.437 C 132.885 115.807,128.255 113.513,125.066 115.160 M164.521 115.548 C 159.891 117.788,159.911 124.786,164.554 126.947 C 169.112 129.069,174.169 125.502,173.659 120.525 C 173.211 116.149,168.538 113.604,164.521 115.548 M206.064 115.036 C 202.853 115.555,200.394 119.311,201.101 122.617 C 202.697 130.069,213.516 128.967,213.516 121.353 C 213.516 117.419,209.962 114.406,206.064 115.036 M245.623 115.353 C 238.332 117.741,239.582 127.862,247.166 127.849 C 255.170 127.835,255.510 115.952,247.526 115.245 C 246.844 115.185,245.988 115.233,245.623 115.353 M284.814 115.763 C 278.860 117.888,279.447 126.464,285.643 127.894 C 290.798 129.084,294.972 123.781,292.685 118.947 C 291.320 116.061,287.879 114.669,284.814 115.763 M113.855 120.955 C 113.855 121.466,113.909 121.674,113.976 121.419 C 114.043 121.164,114.043 120.746,113.976 120.491 C 113.909 120.235,113.855 120.444,113.855 120.955 M390.389 123.269 C 390.866 123.328,391.582 123.327,391.981 123.266 C 392.379 123.206,391.989 123.158,391.114 123.159 C 390.239 123.161,389.913 123.210,390.389 123.269 M375.928 123.532 C 376.330 123.593,376.986 123.593,377.387 123.532 C 377.788 123.471,377.460 123.422,376.658 123.422 C 375.855 123.422,375.527 123.471,375.928 123.532 M136.986 130.570 L 136.207 131.432 137.069 130.653 C 137.543 130.225,137.931 129.837,137.931 129.791 C 137.931 129.586,137.712 129.767,136.986 130.570 M386.853 138.528 L 386.074 139.390 386.936 138.611 C 387.740 137.885,387.920 137.666,387.715 137.666 C 387.670 137.666,387.282 138.054,386.853 138.528 M292.507 141.842 C 293.710 141.891,295.680 141.891,296.883 141.842 C 298.087 141.793,297.102 141.753,294.695 141.753 C 292.288 141.753,291.303 141.793,292.507 141.842 M38.395 142.104 C 39.015 142.160,40.030 142.160,40.650 142.104 C 41.270 142.048,40.763 142.002,39.523 142.002 C 38.282 142.002,37.775 142.048,38.395 142.104 M336.008 142.106 C 336.920 142.158,338.412 142.158,339.324 142.106 C 340.235 142.054,339.489 142.012,337.666 142.012 C 335.842 142.012,335.096 142.054,336.008 142.106 M72.762 142.374 C 75.215 142.417,79.154 142.417,81.516 142.373 C 83.877 142.330,81.870 142.294,77.056 142.294 C 72.241 142.294,70.309 142.330,72.762 142.374 M374.735 142.371 C 375.501 142.424,376.754 142.424,377.520 142.371 C 378.286 142.317,377.659 142.273,376.127 142.273 C 374.595 142.273,373.969 142.317,374.735 142.371 M169.877 222.082 L 169.098 222.944 169.960 222.165 C 170.434 221.737,170.822 221.349,170.822 221.303 C 170.822 221.098,170.603 221.279,169.877 222.082 M103.382 258.012 C 103.710 258.075,104.247 258.075,104.576 258.012 C 104.904 257.949,104.635 257.897,103.979 257.897 C 103.322 257.897,103.054 257.949,103.382 258.012 M114.394 258.281 C 114.797 258.341,115.394 258.340,115.720 258.277 C 116.046 258.214,115.716 258.164,114.987 258.166 C 114.257 258.168,113.990 258.220,114.394 258.281 " stroke="none" fill="#abc1f4" fill-rule="evenodd"></path><path id="path3" d="M348.868 93.369 C 348.868 93.879,348.922 94.088,348.989 93.833 C 349.056 93.578,349.056 93.160,348.989 92.905 C 348.922 92.649,348.868 92.858,348.868 93.369 M362.334 94.297 C 362.699 94.506,363.117 94.676,363.263 94.676 C 363.408 94.676,363.229 94.506,362.865 94.297 C 362.500 94.089,362.082 93.918,361.936 93.918 C 361.790 93.918,361.969 94.089,362.334 94.297 M349.133 96.021 C 349.133 96.532,349.188 96.741,349.254 96.485 C 349.321 96.230,349.321 95.812,349.254 95.557 C 349.188 95.302,349.133 95.511,349.133 96.021 M368.435 97.201 C 368.435 97.274,368.793 97.519,369.231 97.745 C 369.668 97.972,370.027 98.097,370.027 98.024 C 370.027 97.951,369.668 97.706,369.231 97.480 C 368.793 97.254,368.435 97.128,368.435 97.201 M373.475 100.097 C 373.475 100.169,373.833 100.484,374.271 100.796 C 374.708 101.107,375.066 101.303,375.066 101.230 C 375.066 101.157,374.708 100.842,374.271 100.531 C 373.833 100.219,373.475 100.024,373.475 100.097 M351.955 104.642 C 352.099 104.934,352.410 105.411,352.648 105.703 L 353.080 106.233 352.819 105.703 C 352.676 105.411,352.364 104.934,352.127 104.642 L 351.695 104.111 351.955 104.642 M382.095 107.162 C 383.256 108.329,384.265 109.284,384.338 109.284 C 384.411 109.284,383.521 108.329,382.361 107.162 C 381.200 105.995,380.191 105.040,380.119 105.040 C 380.046 105.040,380.935 105.995,382.095 107.162 M166.910 114.772 C 167.165 114.838,167.583 114.838,167.838 114.772 C 168.094 114.705,167.885 114.650,167.374 114.650 C 166.863 114.650,166.655 114.705,166.910 114.772 M124.271 115.352 C 123.833 115.625,123.117 116.251,122.681 116.744 L 121.887 117.639 122.946 116.675 C 123.529 116.145,124.363 115.523,124.801 115.293 C 125.239 115.063,125.477 114.871,125.332 114.866 C 125.186 114.860,124.708 115.079,124.271 115.352 M286.406 115.307 C 286.734 115.370,287.271 115.370,287.599 115.307 C 287.928 115.243,287.659 115.192,287.003 115.192 C 286.346 115.192,286.078 115.243,286.406 115.307 M243.966 115.802 C 242.937 116.360,243.054 116.552,244.098 116.021 C 245.098 115.512,245.275 115.381,244.938 115.395 C 244.804 115.401,244.367 115.584,243.966 115.802 M249.094 115.484 C 249.367 115.728,250.928 116.445,250.928 116.327 C 250.928 116.174,249.458 115.385,249.173 115.385 C 249.069 115.385,249.033 115.429,249.094 115.484 M210.477 115.818 C 210.623 115.947,211.160 116.409,211.670 116.846 L 212.598 117.639 211.935 116.885 C 211.571 116.471,211.034 116.009,210.743 115.858 C 210.451 115.708,210.332 115.690,210.477 115.818 M369.168 116.368 C 369.497 116.431,369.975 116.429,370.229 116.363 C 370.482 116.296,370.212 116.244,369.629 116.247 C 369.045 116.250,368.838 116.305,369.168 116.368 M379.657 116.379 C 381.379 116.425,384.125 116.425,385.758 116.378 C 387.391 116.332,385.981 116.294,382.626 116.294 C 379.271 116.294,377.934 116.332,379.657 116.379 M200.961 119.506 C 200.870 119.743,200.808 120.196,200.823 120.512 C 200.840 120.876,200.930 120.747,201.068 120.161 C 201.300 119.175,201.237 118.789,200.961 119.506 M253.228 120.292 C 253.429 121.603,253.582 121.826,253.577 120.800 C 253.575 120.375,253.459 119.847,253.319 119.629 C 253.146 119.358,253.117 119.569,253.228 120.292 M121.022 121.088 C 121.025 121.671,121.079 121.879,121.143 121.549 C 121.206 121.219,121.204 120.741,121.137 120.488 C 121.071 120.234,121.019 120.504,121.022 121.088 M213.607 121.485 C 213.607 122.288,213.657 122.616,213.718 122.215 C 213.779 121.814,213.779 121.157,213.718 120.756 C 213.657 120.355,213.607 120.683,213.607 121.485 M240.666 121.618 C 240.667 122.493,240.717 122.819,240.776 122.343 C 240.835 121.866,240.834 121.150,240.773 120.751 C 240.713 120.353,240.664 120.743,240.666 121.618 M160.804 121.220 C 160.804 121.731,160.859 121.940,160.926 121.684 C 160.992 121.429,160.992 121.011,160.926 120.756 C 160.859 120.501,160.804 120.710,160.804 121.220 M200.822 122.223 C 200.794 122.864,201.457 124.668,201.720 124.668 C 201.805 124.668,201.751 124.437,201.600 124.154 C 201.449 123.871,201.218 123.184,201.087 122.629 C 200.935 121.982,200.839 121.836,200.822 122.223 M253.355 122.326 C 253.334 122.715,253.247 123.252,253.163 123.519 C 253.019 123.979,253.027 123.980,253.313 123.534 C 253.479 123.275,253.565 122.738,253.505 122.341 L 253.395 121.618 253.355 122.326 M292.391 124.955 C 292.076 125.530,291.929 125.932,292.065 125.848 C 292.359 125.667,293.181 124.127,293.053 123.999 C 293.004 123.950,292.706 124.380,292.391 124.955 M171.738 125.796 L 170.690 126.923 171.817 125.875 C 172.865 124.899,173.066 124.668,172.866 124.668 C 172.822 124.668,172.315 125.176,171.738 125.796 M126.992 127.509 C 127.322 127.572,127.800 127.570,128.053 127.503 C 128.307 127.437,128.037 127.385,127.454 127.388 C 126.870 127.391,126.663 127.445,126.992 127.509 M246.489 128.042 C 246.892 128.103,247.489 128.101,247.815 128.038 C 248.142 127.975,247.812 127.925,247.082 127.927 C 246.353 127.929,246.086 127.981,246.489 128.042 " stroke="none" fill="#8b9fc7" fill-rule="evenodd"></path><path id="path4" d="M110.778 7.446 C 110.394 7.749,110.080 8.120,110.080 8.271 C 110.080 8.423,110.307 8.265,110.586 7.921 C 111.054 7.341,111.336 7.283,114.366 7.146 L 117.639 6.997 114.558 6.947 C 111.799 6.902,111.404 6.954,110.778 7.446 M123.011 7.084 C 123.339 7.147,123.876 7.147,124.204 7.084 C 124.532 7.021,124.264 6.969,123.607 6.969 C 122.951 6.969,122.682 7.021,123.011 7.084 M127.321 7.692 C 127.686 7.809,128.223 7.905,128.515 7.905 C 128.935 7.905,128.907 7.860,128.382 7.692 C 128.017 7.576,127.480 7.480,127.188 7.480 C 126.768 7.480,126.796 7.524,127.321 7.692 M110.080 9.672 C 110.080 9.950,111.145 11.671,111.316 11.671 C 111.389 11.671,111.180 11.223,110.851 10.676 C 110.118 9.458,110.080 9.408,110.080 9.672 M133.709 9.650 C 133.979 9.898,137.135 11.400,137.135 11.281 C 137.135 11.132,134.071 9.549,133.783 9.549 C 133.682 9.549,133.648 9.595,133.709 9.650 M141.379 13.647 C 141.379 13.720,141.737 13.965,142.175 14.191 C 142.613 14.417,142.971 14.543,142.971 14.470 C 142.971 14.397,142.613 14.152,142.175 13.926 C 141.737 13.699,141.379 13.574,141.379 13.647 M116.099 18.853 C 116.363 19.302,116.748 19.809,116.955 19.981 C 117.162 20.152,116.997 19.784,116.588 19.164 C 115.729 17.863,115.391 17.647,116.099 18.853 M149.072 18.096 C 149.072 18.148,149.639 18.656,150.332 19.226 C 151.025 19.795,151.353 19.987,151.061 19.651 C 150.545 19.058,149.072 17.906,149.072 18.096 M151.724 20.242 C 151.724 20.288,152.112 20.676,152.586 21.104 L 153.448 21.883 152.669 21.021 C 151.943 20.218,151.724 20.037,151.724 20.242 M154.509 22.812 C 155.079 23.395,155.605 23.873,155.678 23.873 C 155.751 23.873,155.344 23.395,154.775 22.812 C 154.205 22.228,153.679 21.751,153.606 21.751 C 153.533 21.751,153.939 22.228,154.509 22.812 M119.629 24.005 C 120.080 24.662,120.510 25.199,120.583 25.199 C 120.655 25.199,120.346 24.662,119.894 24.005 C 119.442 23.349,119.013 22.812,118.940 22.812 C 118.867 22.812,119.177 23.349,119.629 24.005 M156.233 24.216 C 156.233 24.289,157.069 25.089,158.090 25.995 C 159.111 26.900,159.947 27.581,159.947 27.508 C 159.947 27.435,159.111 26.635,158.090 25.729 C 157.069 24.824,156.233 24.143,156.233 24.216 M122.812 28.647 C 123.123 29.085,123.438 29.443,123.511 29.443 C 123.584 29.443,123.389 29.085,123.077 28.647 C 122.765 28.210,122.451 27.851,122.378 27.851 C 122.305 27.851,122.500 28.210,122.812 28.647 M160.477 27.934 C 160.477 27.980,160.865 28.368,161.340 28.797 L 162.202 29.576 161.423 28.714 C 160.696 27.910,160.477 27.730,160.477 27.934 M162.865 30.047 C 162.865 30.117,163.665 30.875,164.643 31.732 C 165.621 32.588,166.338 33.152,166.236 32.985 C 166.007 32.610,162.865 29.872,162.865 30.047 M11.334 30.695 C 11.804 30.754,12.640 30.755,13.190 30.698 C 13.741 30.640,13.355 30.592,12.334 30.591 C 11.313 30.590,10.863 30.637,11.334 30.695 M7.961 31.959 C 7.469 32.467,7.117 32.916,7.180 32.956 C 7.243 32.996,7.730 32.580,8.262 32.032 C 8.794 31.483,9.145 31.034,9.043 31.034 C 8.941 31.034,8.454 31.450,7.961 31.959 M16.998 31.389 C 17.254 31.596,19.363 32.346,19.363 32.230 C 19.363 32.071,17.540 31.300,17.165 31.300 C 17.012 31.300,16.937 31.340,16.998 31.389 M125.995 33.289 C 126.446 33.946,126.876 34.483,126.949 34.483 C 127.022 34.483,126.712 33.946,126.260 33.289 C 125.808 32.633,125.379 32.095,125.306 32.095 C 125.233 32.095,125.543 32.633,125.995 33.289 M22.016 33.765 C 22.016 33.819,22.583 34.250,23.276 34.724 C 24.229 35.377,24.342 35.417,23.740 34.889 C 22.939 34.187,22.016 33.585,22.016 33.765 M167.109 33.770 C 167.109 33.816,167.497 34.204,167.971 34.632 L 168.833 35.411 168.054 34.549 C 167.328 33.746,167.109 33.565,167.109 33.770 M6.718 36.207 C 6.720 37.228,6.767 37.613,6.825 37.063 C 6.882 36.513,6.881 35.677,6.823 35.206 C 6.764 34.735,6.717 35.186,6.718 36.207 M25.753 36.870 C 26.814 38.332,27.212 38.768,26.841 38.064 C 26.688 37.772,26.185 37.115,25.724 36.605 L 24.886 35.676 25.753 36.870 M129.178 37.931 C 129.489 38.369,129.804 38.727,129.877 38.727 C 129.950 38.727,129.755 38.369,129.443 37.931 C 129.131 37.493,128.817 37.135,128.744 37.135 C 128.671 37.135,128.866 37.493,129.178 37.931 M171.883 38.064 C 172.378 38.574,172.843 38.992,172.916 38.992 C 172.989 38.992,172.643 38.574,172.149 38.064 C 171.654 37.553,171.189 37.135,171.116 37.135 C 171.043 37.135,171.388 37.553,171.883 38.064 M173.740 39.606 C 173.740 39.651,174.128 40.039,174.602 40.468 L 175.464 41.247 174.685 40.385 C 173.959 39.581,173.740 39.401,173.740 39.606 M28.249 40.849 C 28.476 41.286,28.721 41.645,28.793 41.645 C 28.866 41.645,28.741 41.286,28.515 40.849 C 28.288 40.411,28.043 40.053,27.970 40.053 C 27.898 40.053,28.023 40.411,28.249 40.849 M7.006 45.093 C 7.006 47.646,7.045 48.690,7.094 47.414 C 7.143 46.137,7.143 44.048,7.094 42.772 C 7.045 41.495,7.006 42.540,7.006 45.093 M175.862 41.462 C 175.862 41.508,176.250 41.896,176.724 42.324 L 177.586 43.103 176.807 42.241 C 176.081 41.438,175.862 41.257,175.862 41.462 M178.647 44.032 C 179.217 44.615,179.743 45.093,179.816 45.093 C 179.889 45.093,179.482 44.615,178.912 44.032 C 178.343 43.448,177.817 42.971,177.744 42.971 C 177.671 42.971,178.077 43.448,178.647 44.032 M180.106 45.171 C 180.106 45.244,180.942 46.044,181.963 46.950 C 182.984 47.855,183.820 48.536,183.820 48.463 C 183.820 48.390,182.984 47.590,181.963 46.684 C 180.942 45.779,180.106 45.098,180.106 45.171 M185.146 49.735 C 185.641 50.245,186.105 50.663,186.178 50.663 C 186.251 50.663,185.906 50.245,185.411 49.735 C 184.916 49.224,184.452 48.806,184.379 48.806 C 184.306 48.806,184.651 49.224,185.146 49.735 M138.462 51.459 C 138.773 51.897,139.088 52.255,139.161 52.255 C 139.234 52.255,139.038 51.897,138.727 51.459 C 138.415 51.021,138.100 50.663,138.028 50.663 C 137.955 50.663,138.150 51.021,138.462 51.459 M187.268 51.592 C 187.763 52.102,188.227 52.520,188.300 52.520 C 188.373 52.520,188.028 52.102,187.533 51.592 C 187.038 51.081,186.574 50.663,186.501 50.663 C 186.428 50.663,186.773 51.081,187.268 51.592 M7.275 58.223 C 7.275 61.432,7.313 62.709,7.360 61.060 C 7.407 59.410,7.406 56.784,7.360 55.224 C 7.313 53.664,7.275 55.013,7.275 58.223 M188.594 52.603 C 188.594 52.649,188.982 53.036,189.456 53.465 L 190.318 54.244 189.539 53.382 C 188.813 52.578,188.594 52.398,188.594 52.603 M140.849 54.907 C 141.160 55.345,141.475 55.703,141.548 55.703 C 141.621 55.703,141.426 55.345,141.114 54.907 C 140.802 54.469,140.488 54.111,140.415 54.111 C 140.342 54.111,140.537 54.469,140.849 54.907 M191.777 55.570 C 192.272 56.081,192.737 56.499,192.810 56.499 C 192.883 56.499,192.537 56.081,192.042 55.570 C 191.548 55.060,191.083 54.642,191.010 54.642 C 190.937 54.642,191.282 55.060,191.777 55.570 M37.798 57.294 C 38.025 57.732,38.270 58.090,38.343 58.090 C 38.415 58.090,38.290 57.732,38.064 57.294 C 37.837 56.857,37.592 56.499,37.520 56.499 C 37.447 56.499,37.572 56.857,37.798 57.294 M143.767 59.151 C 144.078 59.589,144.393 59.947,144.466 59.947 C 144.539 59.947,144.343 59.589,144.032 59.151 C 143.720 58.714,143.406 58.355,143.333 58.355 C 143.260 58.355,143.455 58.714,143.767 59.151 M195.225 58.438 C 195.225 58.484,195.613 58.872,196.088 59.301 L 196.950 60.080 196.171 59.218 C 195.444 58.414,195.225 58.234,195.225 58.438 M197.613 60.560 C 197.613 60.606,198.001 60.994,198.475 61.423 L 199.337 62.202 198.558 61.340 C 197.832 60.536,197.613 60.356,197.613 60.560 M40.981 62.865 C 41.208 63.302,41.453 63.660,41.526 63.660 C 41.599 63.660,41.473 63.302,41.247 62.865 C 41.020 62.427,40.776 62.069,40.703 62.069 C 40.630 62.069,40.755 62.427,40.981 62.865 M146.684 63.395 C 146.996 63.833,147.311 64.191,147.384 64.191 C 147.457 64.191,147.261 63.833,146.950 63.395 C 146.638 62.958,146.323 62.599,146.250 62.599 C 146.177 62.599,146.373 62.958,146.684 63.395 M200.000 62.667 C 200.000 62.733,200.865 63.549,201.923 64.480 C 202.981 65.412,203.680 65.963,203.477 65.706 C 203.035 65.148,200.000 62.495,200.000 62.667 M7.543 73.077 C 7.543 76.870,7.580 78.385,7.625 76.443 C 7.671 74.502,7.671 71.398,7.625 69.547 C 7.580 67.695,7.542 69.284,7.543 73.077 M204.244 66.396 C 204.244 66.442,204.632 66.830,205.106 67.258 L 205.968 68.037 205.189 67.175 C 204.463 66.371,204.244 66.191,204.244 66.396 M43.583 67.507 C 43.808 67.944,44.190 68.541,44.432 68.833 C 44.675 69.125,44.605 68.886,44.277 68.302 C 43.555 67.015,43.013 66.394,43.583 67.507 M209.151 70.822 C 209.721 71.406,210.247 71.883,210.320 71.883 C 210.393 71.883,209.986 71.406,209.416 70.822 C 208.847 70.239,208.321 69.761,208.248 69.761 C 208.175 69.761,208.581 70.239,209.151 70.822 M152.785 72.149 C 153.097 72.586,153.411 72.944,153.484 72.944 C 153.557 72.944,153.362 72.586,153.050 72.149 C 152.739 71.711,152.424 71.353,152.351 71.353 C 152.278 71.353,152.474 71.711,152.785 72.149 M210.610 71.966 C 210.610 72.012,210.998 72.400,211.472 72.828 L 212.334 73.607 211.555 72.745 C 210.829 71.942,210.610 71.761,210.610 71.966 M46.817 73.210 C 47.043 73.647,47.288 74.005,47.361 74.005 C 47.434 74.005,47.309 73.647,47.082 73.210 C 46.856 72.772,46.611 72.414,46.538 72.414 C 46.465 72.414,46.591 72.772,46.817 73.210 M212.732 73.823 C 212.732 73.869,213.120 74.257,213.594 74.685 L 214.456 75.464 213.677 74.602 C 212.951 73.799,212.732 73.618,212.732 73.823 M155.968 76.658 C 156.280 77.095,156.594 77.454,156.667 77.454 C 156.740 77.454,156.545 77.095,156.233 76.658 C 155.922 76.220,155.607 75.862,155.534 75.862 C 155.461 75.862,155.657 76.220,155.968 76.658 M215.119 75.945 C 215.119 75.991,215.507 76.379,215.981 76.807 L 216.844 77.586 216.064 76.724 C 215.338 75.921,215.119 75.740,215.119 75.945 M217.772 78.382 C 218.267 78.893,218.731 79.310,218.804 79.310 C 218.877 79.310,218.532 78.893,218.037 78.382 C 217.542 77.871,217.078 77.454,217.005 77.454 C 216.932 77.454,217.277 77.871,217.772 78.382 M50.051 78.800 C 50.315 79.249,50.700 79.756,50.907 79.928 C 51.114 80.099,50.949 79.731,50.540 79.111 C 49.682 77.809,49.343 77.594,50.051 78.800 M199.819 80.305 C 203.002 80.347,208.135 80.347,211.225 80.305 C 214.315 80.262,211.711 80.228,205.438 80.228 C 199.164 80.228,196.636 80.262,199.819 80.305 M170.773 80.570 C 173.445 80.613,177.742 80.613,180.322 80.570 C 182.902 80.526,180.716 80.491,175.464 80.491 C 170.212 80.491,168.101 80.527,170.773 80.570 M7.808 87.798 C 7.808 91.664,7.845 93.246,7.891 91.313 C 7.936 89.380,7.936 86.217,7.891 84.284 C 7.845 82.351,7.808 83.932,7.808 87.798 M52.471 82.162 C 52.907 82.709,53.596 83.455,54.002 83.820 C 54.409 84.184,54.096 83.737,53.307 82.825 C 51.722 80.994,51.234 80.607,52.471 82.162 M55.821 85.240 C 56.381 85.750,58.711 87.007,59.076 86.997 C 59.190 86.993,58.532 86.586,57.614 86.091 C 56.695 85.596,55.794 85.091,55.612 84.969 C 55.429 84.848,55.523 84.969,55.821 85.240 M319.945 86.140 C 321.796 86.185,324.899 86.185,326.841 86.140 C 328.783 86.095,327.268 86.057,323.475 86.057 C 319.682 86.057,318.093 86.094,319.945 86.140 M293.814 86.406 C 297.342 86.447,303.191 86.447,306.812 86.406 C 310.433 86.364,307.546 86.330,300.398 86.330 C 293.249 86.330,290.287 86.364,293.814 86.406 M331.493 86.398 C 331.964 86.457,332.799 86.458,333.350 86.400 C 333.900 86.343,333.515 86.295,332.493 86.294 C 331.472 86.293,331.022 86.340,331.493 86.398 M263.594 86.671 C 265.965 86.715,269.844 86.715,272.215 86.671 C 274.586 86.627,272.646 86.591,267.905 86.591 C 263.163 86.591,261.223 86.627,263.594 86.671 M335.345 86.655 C 335.600 86.722,336.018 86.722,336.273 86.655 C 336.529 86.588,336.320 86.534,335.809 86.534 C 335.298 86.534,335.090 86.588,335.345 86.655 M226.592 86.920 C 226.847 86.987,227.265 86.987,227.520 86.920 C 227.775 86.854,227.566 86.799,227.056 86.799 C 226.545 86.799,226.336 86.854,226.592 86.920 M232.825 86.936 C 235.050 86.980,238.690 86.980,240.915 86.936 C 243.140 86.891,241.320 86.855,236.870 86.855 C 232.420 86.855,230.600 86.891,232.825 86.936 M197.679 87.201 C 199.685 87.246,202.968 87.246,204.973 87.201 C 206.979 87.156,205.338 87.119,201.326 87.119 C 197.314 87.119,195.673 87.156,197.679 87.201 M149.682 87.466 C 151.112 87.514,153.380 87.513,154.722 87.465 C 156.064 87.417,154.894 87.378,152.122 87.378 C 149.350 87.379,148.252 87.418,149.682 87.466 M161.621 87.466 C 163.635 87.511,166.858 87.511,168.782 87.466 C 170.707 87.421,169.058 87.384,165.119 87.384 C 161.180 87.384,159.606 87.421,161.621 87.466 M118.385 87.732 C 120.692 87.776,124.392 87.776,126.608 87.731 C 128.824 87.687,126.936 87.651,122.414 87.651 C 117.891 87.651,116.078 87.687,118.385 87.732 M83.886 87.997 C 86.475 88.040,90.713 88.040,93.302 87.997 C 95.892 87.954,93.773 87.918,88.594 87.918 C 83.415 87.918,81.296 87.954,83.886 87.997 M65.981 88.251 C 66.310 88.314,66.847 88.314,67.175 88.251 C 67.503 88.188,67.235 88.136,66.578 88.136 C 65.922 88.136,65.653 88.188,65.981 88.251 M341.706 90.716 C 341.706 91.227,341.761 91.436,341.827 91.180 C 341.894 90.925,341.894 90.507,341.827 90.252 C 341.761 89.997,341.706 90.206,341.706 90.716 M8.072 104.377 C 8.072 107.878,8.110 109.274,8.156 107.478 C 8.202 105.683,8.202 102.818,8.156 101.112 C 8.109 99.406,8.072 100.875,8.072 104.377 M343.255 101.478 C 343.228 101.879,344.070 104.295,344.193 104.171 C 344.250 104.115,344.066 103.422,343.785 102.631 C 343.504 101.841,343.266 101.322,343.255 101.478 M127.122 107.610 C 127.377 107.677,127.795 107.677,128.050 107.610 C 128.306 107.543,128.097 107.489,127.586 107.489 C 127.076 107.489,126.867 107.543,127.122 107.610 M166.645 107.882 C 167.046 107.943,167.702 107.943,168.103 107.882 C 168.505 107.822,168.176 107.772,167.374 107.772 C 166.572 107.772,166.243 107.822,166.645 107.882 M346.868 109.569 C 347.132 110.018,347.517 110.526,347.724 110.697 C 347.931 110.868,347.766 110.501,347.357 109.881 C 346.499 108.579,346.160 108.363,346.868 109.569 M213.527 109.707 C 214.183 110.081,214.869 110.512,215.052 110.664 C 215.235 110.816,215.385 110.863,215.385 110.769 C 215.385 110.541,212.969 109.018,212.614 109.022 C 212.460 109.024,212.871 109.332,213.527 109.707 M253.282 109.814 C 254.066 110.246,254.895 110.751,255.124 110.936 C 255.460 111.209,255.501 111.209,255.337 110.936 C 255.108 110.555,252.529 109.022,252.122 109.026 C 251.976 109.027,252.498 109.382,253.282 109.814 M159.721 110.081 C 159.116 110.520,158.621 110.944,158.621 111.023 C 158.621 111.148,160.115 110.130,160.862 109.497 C 161.490 108.965,160.714 109.362,159.721 110.081 M240.385 109.845 C 239.188 110.611,239.299 110.788,240.517 110.055 C 241.750 109.314,241.789 109.283,241.490 109.288 C 241.356 109.291,240.859 109.541,240.385 109.845 M280.570 109.832 C 280.023 110.121,279.576 110.417,279.576 110.489 C 279.576 110.562,280.053 110.377,280.637 110.080 C 281.220 109.782,281.698 109.481,281.698 109.411 C 281.698 109.238,281.696 109.238,280.570 109.832 M292.330 109.383 C 292.603 109.627,294.164 110.345,294.164 110.226 C 294.164 110.073,292.694 109.284,292.409 109.284 C 292.305 109.284,292.269 109.328,292.330 109.383 M119.444 110.232 L 118.700 110.914 119.562 110.314 C 120.036 109.984,120.424 109.677,120.424 109.632 C 120.424 109.422,120.131 109.602,119.444 110.232 M137.118 111.804 C 138.683 113.593,138.912 113.805,138.263 112.865 C 137.961 112.427,137.319 111.711,136.836 111.273 C 136.187 110.685,136.260 110.824,137.118 111.804 M197.598 111.870 L 196.684 112.865 197.679 111.951 C 198.605 111.100,198.796 110.875,198.593 110.875 C 198.549 110.875,198.101 111.323,197.598 111.870 M216.578 111.936 C 217.148 112.520,217.674 112.997,217.747 112.997 C 217.820 112.997,217.413 112.520,216.844 111.936 C 216.274 111.353,215.748 110.875,215.675 110.875 C 215.602 110.875,216.008 111.353,216.578 111.936 M256.499 112.069 C 256.994 112.580,257.458 112.997,257.531 112.997 C 257.604 112.997,257.259 112.580,256.764 112.069 C 256.269 111.558,255.804 111.141,255.731 111.141 C 255.659 111.141,256.004 111.558,256.499 112.069 M296.419 112.202 C 296.989 112.785,297.515 113.263,297.588 113.263 C 297.661 113.263,297.254 112.785,296.684 112.202 C 296.115 111.618,295.589 111.141,295.516 111.141 C 295.443 111.141,295.849 111.618,296.419 112.202 M349.867 113.395 C 350.362 113.906,350.827 114.324,350.900 114.324 C 350.973 114.324,350.628 113.906,350.133 113.395 C 349.638 112.885,349.173 112.467,349.100 112.467 C 349.027 112.467,349.372 112.885,349.867 113.395 M155.425 114.880 C 155.120 115.478,154.916 116.012,154.971 116.068 C 155.027 116.123,155.332 115.634,155.649 114.981 C 156.372 113.493,156.177 113.405,155.425 114.880 M258.939 115.511 C 259.257 116.165,259.562 116.654,259.618 116.598 C 259.738 116.478,258.666 114.324,258.486 114.324 C 258.418 114.324,258.622 114.858,258.939 115.511 M234.883 115.981 C 234.535 116.747,234.182 117.732,234.098 118.170 C 234.014 118.607,234.171 118.363,234.445 117.626 C 234.720 116.889,235.143 115.904,235.384 115.437 C 235.625 114.971,235.753 114.589,235.669 114.589 C 235.584 114.589,235.230 115.216,234.883 115.981 M8.321 117.507 C 8.321 119.038,8.365 119.665,8.418 118.899 C 8.472 118.133,8.472 116.880,8.418 116.114 C 8.365 115.348,8.321 115.975,8.321 117.507 M195.003 115.529 C 194.559 116.504,194.644 116.712,195.124 115.825 C 195.349 115.411,195.483 115.023,195.422 114.962 C 195.361 114.902,195.173 115.156,195.003 115.529 M246.485 115.037 C 246.741 115.104,247.158 115.104,247.414 115.037 C 247.669 114.970,247.460 114.916,246.950 114.916 C 246.439 114.916,246.230 114.970,246.485 115.037 M351.857 115.361 C 352.411 116.001,354.377 117.628,354.377 117.447 C 354.377 117.390,353.690 116.759,352.851 116.045 C 352.013 115.332,351.565 115.024,351.857 115.361 M179.757 116.446 C 179.854 116.810,180.091 117.706,180.284 118.435 L 180.636 119.761 180.498 118.618 C 180.422 117.990,180.185 117.094,179.971 116.629 C 179.701 116.043,179.635 115.987,179.757 116.446 M290.981 116.529 C 290.981 116.574,291.369 116.962,291.844 117.391 L 292.706 118.170 291.927 117.308 C 291.200 116.504,290.981 116.324,290.981 116.529 M370.756 116.633 C 371.084 116.696,371.621 116.696,371.950 116.633 C 372.278 116.570,372.009 116.518,371.353 116.518 C 370.696 116.518,370.428 116.570,370.756 116.633 M374.347 116.642 C 375.191 116.695,376.504 116.694,377.264 116.641 C 378.025 116.587,377.334 116.544,375.729 116.545 C 374.125 116.545,373.502 116.589,374.347 116.642 M219.931 117.507 C 219.931 117.725,220.034 118.143,220.159 118.435 C 220.303 118.769,220.387 118.818,220.387 118.568 C 220.387 118.349,220.285 117.931,220.159 117.639 C 220.015 117.305,219.931 117.256,219.931 117.507 M140.645 119.363 C 140.645 119.874,140.700 120.083,140.766 119.828 C 140.833 119.572,140.833 119.155,140.766 118.899 C 140.700 118.644,140.645 118.853,140.645 119.363 M273.599 120.270 C 273.416 121.735,273.629 124.109,274.029 125.066 C 274.159 125.377,274.172 125.102,274.062 124.403 C 273.958 123.747,273.887 122.225,273.905 121.021 C 273.942 118.478,273.851 118.254,273.599 120.270 M114.148 120.955 C 114.148 122.049,114.194 122.497,114.252 121.950 C 114.309 121.403,114.309 120.507,114.252 119.960 C 114.194 119.413,114.148 119.861,114.148 120.955 M220.511 121.353 C 220.513 122.374,220.561 122.759,220.618 122.209 C 220.675 121.659,220.674 120.823,220.616 120.352 C 220.557 119.881,220.510 120.332,220.511 121.353 M153.922 121.088 C 153.924 121.817,153.976 122.084,154.036 121.681 C 154.097 121.278,154.096 120.681,154.033 120.354 C 153.970 120.028,153.920 120.358,153.922 121.088 M180.716 121.220 C 180.716 122.023,180.766 122.351,180.827 121.950 C 180.887 121.548,180.887 120.892,180.827 120.491 C 180.766 120.090,180.716 120.418,180.716 121.220 M173.816 121.353 C 173.818 122.082,173.869 122.349,173.930 121.946 C 173.991 121.543,173.990 120.946,173.927 120.620 C 173.864 120.293,173.814 120.623,173.816 121.353 M300.350 121.751 C 300.350 122.699,300.398 123.087,300.457 122.613 C 300.516 122.139,300.516 121.363,300.457 120.889 C 300.398 120.414,300.350 120.802,300.350 121.751 M280.444 121.751 C 280.444 122.407,280.495 122.676,280.559 122.347 C 280.622 122.019,280.622 121.482,280.559 121.154 C 280.495 120.826,280.444 121.094,280.444 121.751 M363.395 122.149 C 363.906 122.345,364.503 122.506,364.721 122.506 C 364.940 122.506,364.702 122.345,364.191 122.149 C 363.680 121.952,363.084 121.791,362.865 121.791 C 362.646 121.791,362.885 121.952,363.395 122.149 M140.645 122.812 C 140.645 123.322,140.700 123.531,140.766 123.276 C 140.833 123.021,140.833 122.603,140.766 122.347 C 140.700 122.092,140.645 122.301,140.645 122.812 M180.072 124.599 C 179.834 125.586,179.678 126.435,179.725 126.487 C 179.876 126.657,180.678 123.617,180.589 123.206 C 180.542 122.986,180.309 123.613,180.072 124.599 M385.090 123.274 C 386.007 123.326,387.440 123.325,388.273 123.273 C 389.106 123.220,388.355 123.178,386.605 123.178 C 384.854 123.179,384.172 123.222,385.090 123.274 M392.660 124.801 C 392.661 125.822,392.709 126.208,392.767 125.657 C 392.824 125.107,392.823 124.271,392.764 123.800 C 392.706 123.330,392.659 123.780,392.660 124.801 M371.958 123.537 C 372.655 123.592,373.729 123.592,374.345 123.536 C 374.960 123.480,374.390 123.436,373.077 123.436 C 371.764 123.437,371.260 123.483,371.958 123.537 M194.695 126.362 C 194.695 126.646,195.484 128.117,195.637 128.117 C 195.710 128.117,195.572 127.729,195.331 127.255 C 194.839 126.286,194.695 126.085,194.695 126.362 M258.847 127.867 C 258.464 128.584,258.259 129.105,258.390 129.024 C 258.675 128.848,259.757 126.777,259.630 126.651 C 259.582 126.602,259.229 127.150,258.847 127.867 M286.406 128.304 C 286.734 128.367,287.271 128.367,287.599 128.304 C 287.928 128.241,287.659 128.189,287.003 128.189 C 286.346 128.189,286.078 128.241,286.406 128.304 M137.016 130.191 L 135.439 131.963 136.837 130.637 C 137.988 129.546,138.992 128.320,138.670 128.401 C 138.628 128.411,137.884 129.217,137.016 130.191 M391.943 129.211 C 391.722 130.317,391.936 130.531,392.175 129.443 C 392.276 128.984,392.303 128.554,392.235 128.486 C 392.168 128.419,392.036 128.745,391.943 129.211 M117.905 130.504 C 118.474 131.088,119.000 131.565,119.073 131.565 C 119.146 131.565,118.740 131.088,118.170 130.504 C 117.600 129.920,117.074 129.443,117.001 129.443 C 116.928 129.443,117.335 129.920,117.905 130.504 M157.814 130.570 C 158.464 131.263,159.031 131.830,159.074 131.830 C 159.273 131.830,159.062 131.592,157.891 130.493 L 156.631 129.310 157.814 130.570 M176.658 130.637 C 176.014 131.293,175.546 131.830,175.619 131.830 C 175.692 131.830,176.279 131.293,176.923 130.637 C 177.567 129.980,178.035 129.443,177.962 129.443 C 177.889 129.443,177.302 129.980,176.658 130.637 M216.566 130.836 L 215.517 131.963 216.645 130.914 C 217.693 129.939,217.894 129.708,217.693 129.708 C 217.650 129.708,217.142 130.216,216.566 130.836 M237.533 131.034 C 238.103 131.618,238.629 132.095,238.702 132.095 C 238.775 132.095,238.368 131.618,237.798 131.034 C 237.229 130.451,236.703 129.973,236.630 129.973 C 236.557 129.973,236.963 130.451,237.533 131.034 M277.442 131.101 C 278.542 132.272,278.780 132.483,278.780 132.283 C 278.780 132.241,278.213 131.674,277.520 131.023 L 276.260 129.841 277.442 131.101 M296.286 131.167 C 295.642 131.824,295.175 132.361,295.248 132.361 C 295.321 132.361,295.907 131.824,296.552 131.167 C 297.196 130.511,297.664 129.973,297.591 129.973 C 297.518 129.973,296.931 130.511,296.286 131.167 M197.347 130.592 C 197.347 130.665,197.825 131.103,198.408 131.565 C 198.992 132.027,199.469 132.346,199.469 132.273 C 199.469 132.200,198.992 131.762,198.408 131.300 C 197.825 130.838,197.347 130.519,197.347 130.592 M13.723 133.554 C 14.319 134.284,15.263 135.298,15.820 135.809 C 16.377 136.320,16.128 135.962,15.267 135.013 C 13.037 132.557,12.468 132.019,13.723 133.554 M279.841 133.022 C 279.841 133.202,281.995 134.273,282.115 134.153 C 282.171 134.098,281.682 133.793,281.029 133.475 C 280.375 133.158,279.841 132.954,279.841 133.022 M251.724 133.965 C 251.068 134.234,250.710 134.457,250.928 134.461 C 251.147 134.465,251.804 134.243,252.387 133.967 C 253.742 133.326,253.290 133.325,251.724 133.965 M210.875 134.085 C 210.365 134.282,210.126 134.446,210.345 134.451 C 210.564 134.455,211.101 134.295,211.538 134.094 C 212.563 133.625,212.086 133.619,210.875 134.085 M127.586 134.218 L 125.332 134.384 127.454 134.407 C 128.621 134.420,129.874 134.334,130.239 134.218 C 131.008 133.971,130.924 133.971,127.586 134.218 M163.793 134.205 C 164.302 134.436,165.723 134.586,165.495 134.385 C 165.434 134.332,164.907 134.215,164.324 134.126 C 163.584 134.014,163.423 134.038,163.793 134.205 M169.894 134.218 C 169.172 134.401,169.160 134.421,169.761 134.433 C 170.126 134.440,170.663 134.343,170.955 134.218 C 171.609 133.936,170.998 133.936,169.894 134.218 M166.512 134.675 C 166.986 134.733,167.762 134.733,168.236 134.675 C 168.710 134.616,168.322 134.568,167.374 134.568 C 166.426 134.568,166.038 134.616,166.512 134.675 M205.106 134.666 C 205.361 134.732,205.779 134.732,206.034 134.666 C 206.290 134.599,206.081 134.544,205.570 134.544 C 205.060 134.544,204.851 134.599,205.106 134.666 M389.247 135.610 C 388.839 136.230,388.673 136.597,388.881 136.426 C 389.279 136.097,390.295 134.483,390.103 134.483 C 390.041 134.483,389.656 134.990,389.247 135.610 M245.424 134.931 C 245.680 134.998,246.097 134.998,246.353 134.931 C 246.608 134.864,246.399 134.810,245.889 134.810 C 245.378 134.810,245.169 134.864,245.424 134.931 M247.682 134.936 C 248.012 134.999,248.490 134.997,248.743 134.930 C 248.997 134.864,248.727 134.812,248.143 134.815 C 247.560 134.818,247.352 134.872,247.682 134.936 M286.538 135.196 C 286.794 135.263,287.212 135.263,287.467 135.196 C 287.722 135.129,287.513 135.075,287.003 135.075 C 286.492 135.075,286.283 135.129,286.538 135.196 M20.955 139.387 C 20.955 139.569,22.579 140.374,22.700 140.253 C 22.758 140.195,22.389 139.950,21.880 139.707 C 21.371 139.464,20.955 139.321,20.955 139.387 M276.972 141.843 C 279.407 141.887,283.465 141.887,285.991 141.843 C 288.517 141.800,286.525 141.764,281.565 141.764 C 276.605 141.764,274.538 141.799,276.972 141.843 M31.885 142.106 C 32.863 142.157,34.534 142.157,35.598 142.107 C 36.663 142.057,35.862 142.015,33.820 142.014 C 31.777 142.014,30.907 142.055,31.885 142.106 M259.665 143.303 C 258.853 144.069,258.554 144.388,259.001 144.013 C 259.449 143.639,260.211 143.012,260.697 142.621 C 261.182 142.230,261.480 141.910,261.360 141.910 C 261.239 141.911,260.476 142.537,259.665 143.303 M318.899 142.108 C 321.781 142.151,326.495 142.151,329.377 142.108 C 332.258 142.066,329.901 142.031,324.138 142.031 C 318.375 142.031,316.018 142.066,318.899 142.108 M53.647 142.374 C 56.383 142.417,60.859 142.417,63.594 142.374 C 66.330 142.331,64.092 142.295,58.621 142.295 C 53.150 142.295,50.912 142.331,53.647 142.374 M357.493 142.374 C 360.448 142.416,365.282 142.416,368.236 142.374 C 371.190 142.331,368.773 142.296,362.865 142.296 C 356.956 142.296,354.539 142.331,357.493 142.374 M132.759 142.704 C 156.652 142.781,174.573 142.940,174.801 143.077 C 175.020 143.208,175.496 143.566,175.860 143.872 L 176.521 144.430 175.993 143.796 C 174.803 142.371,176.975 142.435,132.436 142.505 L 91.114 142.569 132.759 142.704 M176.725 146.021 C 176.728 146.605,176.782 146.812,176.845 146.482 C 176.909 146.152,176.906 145.675,176.840 145.421 C 176.774 145.168,176.722 145.438,176.725 146.021 M256.484 146.088 L 255.570 147.082 256.565 146.168 C 257.112 145.665,257.560 145.218,257.560 145.173 C 257.560 144.971,257.335 145.162,256.484 146.088 M254.227 148.077 L 253.448 148.939 254.310 148.160 C 254.784 147.731,255.172 147.344,255.172 147.298 C 255.172 147.093,254.954 147.273,254.227 148.077 M252.371 149.668 L 251.592 150.531 252.454 149.751 C 252.928 149.323,253.316 148.935,253.316 148.889 C 253.316 148.684,253.097 148.865,252.371 149.668 M249.983 151.790 L 249.204 152.653 250.066 151.873 C 250.540 151.445,250.928 151.057,250.928 151.011 C 250.928 150.806,250.710 150.987,249.983 151.790 M247.731 153.780 L 246.817 154.775 247.812 153.860 C 248.359 153.358,248.806 152.910,248.806 152.866 C 248.806 152.663,248.582 152.854,247.731 153.780 M171.088 155.438 C 170.493 156.313,170.066 157.029,170.139 157.029 C 170.212 157.029,170.758 156.313,171.353 155.438 C 171.947 154.562,172.374 153.846,172.301 153.846 C 172.228 153.846,171.682 154.562,171.088 155.438 M245.739 155.504 L 244.960 156.366 245.822 155.587 C 246.296 155.158,246.684 154.771,246.684 154.725 C 246.684 154.520,246.465 154.700,245.739 155.504 M243.352 157.626 L 242.573 158.488 243.435 157.709 C 243.909 157.281,244.297 156.893,244.297 156.847 C 244.297 156.642,244.078 156.822,243.352 157.626 M239.112 161.340 L 238.064 162.467 239.191 161.418 C 240.239 160.443,240.440 160.212,240.240 160.212 C 240.196 160.212,239.689 160.719,239.112 161.340 M236.856 163.329 L 235.942 164.324 236.936 163.410 C 237.862 162.559,238.053 162.334,237.850 162.334 C 237.806 162.334,237.359 162.782,236.856 163.329 M164.721 164.854 C 164.270 165.511,163.960 166.048,164.033 166.048 C 164.106 166.048,164.535 165.511,164.987 164.854 C 165.438 164.198,165.748 163.660,165.675 163.660 C 165.602 163.660,165.173 164.198,164.721 164.854 M234.864 165.053 L 234.085 165.915 234.947 165.136 C 235.751 164.410,235.931 164.191,235.726 164.191 C 235.680 164.191,235.292 164.579,234.864 165.053 M232.612 167.042 L 231.698 168.037 232.692 167.123 C 233.239 166.620,233.687 166.173,233.687 166.128 C 233.687 165.926,233.463 166.117,232.612 167.042 M230.490 168.899 L 229.576 169.894 230.570 168.980 C 231.496 168.129,231.687 167.905,231.484 167.905 C 231.440 167.905,230.992 168.352,230.490 168.899 M228.498 170.623 L 227.719 171.485 228.581 170.706 C 229.384 169.980,229.565 169.761,229.360 169.761 C 229.314 169.761,228.926 170.149,228.498 170.623 M225.845 173.011 L 225.066 173.873 225.928 173.094 C 226.403 172.665,226.790 172.277,226.790 172.232 C 226.790 172.027,226.572 172.207,225.845 173.011 M158.886 173.475 C 158.574 173.912,158.379 174.271,158.452 174.271 C 158.525 174.271,158.840 173.912,159.151 173.475 C 159.463 173.037,159.658 172.679,159.585 172.679 C 159.512 172.679,159.198 173.037,158.886 173.475 M221.867 176.459 L 221.088 177.321 221.950 176.542 C 222.424 176.113,222.812 175.725,222.812 175.680 C 222.812 175.475,222.593 175.655,221.867 176.459 M156.499 177.056 C 156.047 177.712,155.737 178.249,155.810 178.249 C 155.883 178.249,156.312 177.712,156.764 177.056 C 157.216 176.399,157.525 175.862,157.453 175.862 C 157.380 175.862,156.950 176.399,156.499 177.056 M217.357 180.438 L 216.578 181.300 217.440 180.521 C 217.914 180.092,218.302 179.704,218.302 179.659 C 218.302 179.454,218.084 179.634,217.357 180.438 M215.105 182.427 L 214.191 183.422 215.186 182.508 C 215.733 182.005,216.180 181.557,216.180 181.513 C 216.180 181.310,215.956 181.501,215.105 182.427 M212.983 184.284 L 212.069 185.279 213.064 184.364 C 213.611 183.862,214.058 183.414,214.058 183.370 C 214.058 183.167,213.834 183.358,212.983 184.284 M210.991 186.008 L 210.212 186.870 211.074 186.091 C 211.548 185.662,211.936 185.275,211.936 185.229 C 211.936 185.024,211.717 185.204,210.991 186.008 M150.133 186.472 C 149.821 186.910,149.626 187.268,149.699 187.268 C 149.772 187.268,150.086 186.910,150.398 186.472 C 150.710 186.034,150.905 185.676,150.832 185.676 C 150.759 185.676,150.444 186.034,150.133 186.472 M208.474 188.263 L 207.560 189.257 208.554 188.343 C 209.480 187.492,209.671 187.268,209.468 187.268 C 209.424 187.268,208.977 187.716,208.474 188.263 M204.360 191.844 L 203.581 192.706 204.443 191.927 C 204.917 191.498,205.305 191.110,205.305 191.064 C 205.305 190.860,205.086 191.040,204.360 191.844 M201.842 194.098 L 200.928 195.093 201.923 194.179 C 202.849 193.328,203.040 193.103,202.837 193.103 C 202.793 193.103,202.345 193.551,201.842 194.098 M144.032 195.491 C 143.437 196.366,143.011 197.082,143.084 197.082 C 143.157 197.082,143.703 196.366,144.297 195.491 C 144.892 194.615,145.318 193.899,145.245 193.899 C 145.172 193.899,144.626 194.615,144.032 195.491 M199.720 195.955 L 198.806 196.950 199.801 196.035 C 200.727 195.185,200.918 194.960,200.715 194.960 C 200.671 194.960,200.223 195.408,199.720 195.955 M197.729 197.679 L 196.950 198.541 197.812 197.762 C 198.286 197.334,198.674 196.946,198.674 196.900 C 198.674 196.695,198.455 196.875,197.729 197.679 M195.211 199.934 L 194.297 200.928 195.292 200.014 C 196.218 199.163,196.408 198.939,196.206 198.939 C 196.162 198.939,195.714 199.387,195.211 199.934 M192.954 201.923 L 192.175 202.785 193.037 202.006 C 193.511 201.578,193.899 201.190,193.899 201.144 C 193.899 200.939,193.680 201.120,192.954 201.923 M190.967 203.647 L 190.053 204.642 191.048 203.728 C 191.595 203.225,192.042 202.777,192.042 202.733 C 192.042 202.531,191.818 202.721,190.967 203.647 M137.724 204.841 C 136.756 206.271,136.546 206.631,136.684 206.631 C 136.745 206.631,137.231 205.975,137.764 205.172 C 138.296 204.370,138.677 203.714,138.610 203.714 C 138.542 203.714,138.144 204.221,137.724 204.841 M188.580 205.769 L 187.666 206.764 188.660 205.850 C 189.586 204.999,189.777 204.775,189.575 204.775 C 189.530 204.775,189.083 205.222,188.580 205.769 M186.458 207.626 L 185.544 208.621 186.538 207.707 C 187.464 206.856,187.655 206.631,187.453 206.631 C 187.408 206.631,186.961 207.079,186.458 207.626 M134.871 209.085 C 134.462 209.705,134.297 210.072,134.504 209.901 C 134.902 209.572,135.918 207.958,135.727 207.958 C 135.665 207.958,135.280 208.465,134.871 209.085 M184.205 209.615 L 183.156 210.743 184.284 209.694 C 185.332 208.719,185.533 208.488,185.332 208.488 C 185.289 208.488,184.782 208.995,184.205 209.615 M181.034 212.377 C 179.211 214.093,179.206 214.100,180.797 212.772 C 182.279 211.535,183.238 210.594,182.990 210.621 C 182.936 210.626,182.056 211.417,181.034 212.377 M177.439 215.584 L 176.525 216.578 177.520 215.664 C 178.446 214.813,178.637 214.589,178.434 214.589 C 178.390 214.589,177.942 215.036,177.439 215.584 M128.647 218.302 C 128.053 219.178,127.626 219.894,127.699 219.894 C 127.772 219.894,128.318 219.178,128.912 218.302 C 129.507 217.427,129.934 216.711,129.861 216.711 C 129.788 216.711,129.242 217.427,128.647 218.302 M175.182 217.573 L 174.403 218.435 175.265 217.656 C 175.739 217.227,176.127 216.840,176.127 216.794 C 176.127 216.589,175.908 216.769,175.182 217.573 M173.325 219.164 L 172.546 220.027 173.408 219.247 C 173.883 218.819,174.271 218.431,174.271 218.385 C 174.271 218.180,174.052 218.361,173.325 219.164 M170.808 221.419 L 169.894 222.414 170.889 221.500 C 171.814 220.649,172.005 220.424,171.803 220.424 C 171.758 220.424,171.311 220.872,170.808 221.419 M167.241 224.561 L 165.385 226.305 167.308 224.652 C 169.015 223.185,169.398 222.806,169.164 222.814 C 169.128 222.815,168.263 223.601,167.241 224.561 M164.046 227.387 L 162.997 228.515 164.125 227.466 C 165.173 226.491,165.374 226.260,165.173 226.260 C 165.130 226.260,164.623 226.767,164.046 227.387 M122.608 227.255 C 121.921 228.246,121.698 228.647,121.832 228.647 C 121.895 228.647,122.261 228.170,122.648 227.586 C 123.432 226.400,123.398 226.113,122.608 227.255 M161.654 229.509 L 160.875 230.371 161.737 229.592 C 162.212 229.164,162.599 228.776,162.599 228.730 C 162.599 228.525,162.381 228.706,161.654 229.509 M120.017 231.101 C 119.608 231.721,119.443 232.088,119.650 231.917 C 120.048 231.588,121.064 229.973,120.873 229.973 C 120.811 229.973,120.426 230.481,120.017 231.101 M159.537 231.366 L 158.488 232.493 159.615 231.445 C 160.235 230.868,160.743 230.361,160.743 230.318 C 160.743 230.117,160.512 230.318,159.537 231.366 M157.149 233.488 L 156.101 234.615 157.228 233.567 C 157.848 232.990,158.355 232.483,158.355 232.440 C 158.355 232.239,158.124 232.440,157.149 233.488 M154.762 235.610 L 153.714 236.737 154.841 235.689 C 155.889 234.714,156.090 234.483,155.889 234.483 C 155.846 234.483,155.339 234.990,154.762 235.610 M152.636 237.467 L 151.857 238.329 152.719 237.550 C 153.193 237.121,153.581 236.733,153.581 236.688 C 153.581 236.483,153.362 236.663,152.636 237.467 M150.118 239.721 L 149.204 240.716 150.199 239.802 C 151.125 238.951,151.316 238.727,151.113 238.727 C 151.069 238.727,150.621 239.174,150.118 239.721 M113.528 240.716 C 113.076 241.373,112.766 241.910,112.839 241.910 C 112.912 241.910,113.341 241.373,113.793 240.716 C 114.245 240.060,114.555 239.523,114.482 239.523 C 114.409 239.523,113.980 240.060,113.528 240.716 M147.466 242.109 L 146.552 243.103 147.546 242.189 C 148.472 241.339,148.663 241.114,148.461 241.114 C 148.416 241.114,147.969 241.562,147.466 242.109 M145.079 244.231 L 144.164 245.225 145.159 244.311 C 146.085 243.461,146.276 243.236,146.073 243.236 C 146.029 243.236,145.581 243.684,145.079 244.231 M110.610 245.093 C 110.298 245.531,110.103 245.889,110.176 245.889 C 110.249 245.889,110.564 245.531,110.875 245.093 C 111.187 244.655,111.382 244.297,111.309 244.297 C 111.236 244.297,110.922 244.655,110.610 245.093 M143.087 245.955 L 142.308 246.817 143.170 246.038 C 143.644 245.609,144.032 245.221,144.032 245.176 C 144.032 244.971,143.813 245.151,143.087 245.955 M140.451 248.041 C 138.829 249.354,138.317 249.881,139.390 249.134 C 140.364 248.456,142.092 246.972,141.910 246.970 C 141.837 246.969,141.180 247.451,140.451 248.041 M136.659 250.777 C 135.427 251.648,135.253 251.897,136.294 251.301 C 136.779 251.023,137.301 250.647,137.453 250.464 C 137.845 249.996,137.661 250.068,136.659 250.777 M129.973 254.509 C 129.317 254.861,128.899 255.148,129.045 255.148 C 129.191 255.148,129.847 254.861,130.504 254.509 C 131.160 254.158,131.578 253.870,131.432 253.870 C 131.286 253.870,130.630 254.158,129.973 254.509 M121.220 257.560 C 120.687 257.730,120.661 257.774,121.088 257.780 C 121.379 257.784,121.857 257.685,122.149 257.560 C 122.824 257.269,122.127 257.269,121.220 257.560 M106.049 258.288 C 107.552 258.336,109.939 258.335,111.354 258.288 C 112.768 258.240,111.538 258.201,108.621 258.202 C 105.703 258.202,104.545 258.241,106.049 258.288 M116.777 258.280 C 117.178 258.341,117.835 258.341,118.236 258.280 C 118.637 258.219,118.309 258.170,117.507 258.170 C 116.704 258.170,116.376 258.219,116.777 258.280 " stroke="none" fill="#949494" fill-rule="evenodd"></path></g></svg>